G04 MADE WITH FRITZING*
G04 WWW.FRITZING.ORG*
G04 DOUBLE SIDED*
G04 HOLES PLATED*
G04 CONTOUR ON CENTER OF CONTOUR VECTOR*
%ASAXBY*%
%FSLAX23Y23*%
%MOIN*%
%OFA0B0*%
%SFA1.0B1.0*%
%ADD10C,0.084000*%
%ADD11C,0.090000*%
%ADD12C,0.109055*%
%ADD13C,0.088000*%
%ADD14C,0.084472*%
%ADD15C,0.085000*%
%ADD16R,0.084472X0.084108*%
%ADD17R,0.109055X0.109055*%
%ADD18R,0.085000X0.085000*%
%LNMASK0*%
G90*
G70*
G54D10*
X1947Y684D03*
X1997Y759D03*
X2047Y684D03*
G54D11*
X1547Y334D03*
X1547Y617D03*
X1547Y1028D03*
X1547Y1128D03*
G54D10*
X1347Y584D03*
X1347Y384D03*
G54D12*
X1047Y184D03*
X897Y184D03*
G54D13*
X947Y1384D03*
X747Y1384D03*
G54D14*
X2147Y1284D03*
X2147Y1384D03*
X2047Y1284D03*
X2047Y1384D03*
X1946Y1284D03*
X1946Y1384D03*
X1846Y1284D03*
X1846Y1384D03*
G54D15*
X2197Y984D03*
X1797Y984D03*
X1797Y1084D03*
X2197Y1084D03*
G54D12*
X247Y190D03*
X247Y387D03*
X247Y584D03*
X247Y990D03*
X247Y1187D03*
X247Y1384D03*
G54D15*
X1247Y1384D03*
X1647Y1384D03*
X2097Y234D03*
X1897Y234D03*
G54D16*
X2147Y1284D03*
X1846Y1284D03*
G54D17*
X247Y190D03*
X247Y990D03*
G54D18*
X2097Y234D03*
G04 End of Mask0*
M02*