G04 MADE WITH FRITZING*
G04 WWW.FRITZING.ORG*
G04 DOUBLE SIDED*
G04 HOLES PLATED*
G04 CONTOUR ON CENTER OF CONTOUR VECTOR*
%ASAXBY*%
%FSLAX23Y23*%
%MOIN*%
%OFA0B0*%
%SFA1.0B1.0*%
%ADD10C,0.075000*%
%ADD11C,0.074000*%
%ADD12C,0.080000*%
%ADD13C,0.099055*%
%ADD14C,0.078000*%
%ADD15C,0.074472*%
%ADD16R,0.074472X0.074108*%
%ADD17R,0.099055X0.099055*%
%ADD18R,0.075000X0.075000*%
%ADD19C,0.024000*%
%ADD20C,0.048000*%
%ADD21C,0.008000*%
%LNCOPPER0*%
G90*
G70*
G54D10*
X1326Y1467D03*
G54D11*
X1947Y684D03*
X1997Y759D03*
X2047Y684D03*
G54D12*
X1547Y334D03*
X1547Y617D03*
X1547Y1028D03*
X1547Y1128D03*
G54D11*
X1347Y584D03*
X1347Y384D03*
G54D13*
X1047Y184D03*
X897Y184D03*
G54D14*
X947Y1384D03*
X747Y1384D03*
G54D15*
X2147Y1284D03*
X2147Y1384D03*
X2047Y1284D03*
X2047Y1384D03*
X1946Y1284D03*
X1946Y1384D03*
X1846Y1284D03*
X1846Y1384D03*
G54D10*
X2197Y984D03*
X1797Y984D03*
X1797Y1084D03*
X2197Y1084D03*
G54D13*
X247Y190D03*
X247Y387D03*
X247Y584D03*
X247Y990D03*
X247Y1187D03*
X247Y1384D03*
G54D10*
X1247Y1384D03*
X1647Y1384D03*
X2097Y234D03*
X1897Y234D03*
G54D16*
X2147Y1284D03*
X1846Y1284D03*
G54D17*
X247Y190D03*
X247Y990D03*
G54D18*
X2097Y234D03*
G54D19*
X2169Y984D02*
X2047Y983D01*
D02*
X2047Y983D02*
X1998Y934D01*
D02*
X1998Y934D02*
X1998Y786D01*
D02*
X1848Y684D02*
X1920Y684D01*
D02*
X1797Y734D02*
X1848Y684D01*
D02*
X1848Y684D02*
X1848Y283D01*
D02*
X1797Y955D02*
X1797Y734D01*
D02*
X1848Y283D02*
X1877Y254D01*
G54D20*
D02*
X1548Y661D02*
X1548Y733D01*
D02*
X1548Y733D02*
X1498Y783D01*
D02*
X1498Y783D02*
X497Y785D01*
D02*
X497Y785D02*
X448Y834D01*
D02*
X448Y834D02*
X448Y1333D01*
D02*
X448Y1333D02*
X397Y1384D01*
D02*
X397Y1384D02*
X299Y1384D01*
G54D19*
D02*
X978Y1384D02*
X1219Y1384D01*
D02*
X1946Y1415D02*
X1947Y1433D01*
D02*
X1947Y1433D02*
X1897Y1485D01*
D02*
X1897Y1485D02*
X1697Y1485D01*
D02*
X1697Y1485D02*
X1648Y1433D01*
D02*
X1648Y1433D02*
X1648Y1413D01*
G54D20*
D02*
X1048Y584D02*
X299Y584D01*
D02*
X1048Y584D02*
X1048Y236D01*
D02*
X1310Y584D02*
X1048Y584D01*
D02*
X147Y1184D02*
X196Y1185D01*
D02*
X98Y1135D02*
X147Y1184D01*
D02*
X98Y435D02*
X98Y1135D01*
D02*
X147Y383D02*
X98Y435D01*
D02*
X196Y385D02*
X147Y383D01*
G54D19*
D02*
X1580Y1032D02*
X1597Y1034D01*
D02*
X1597Y1034D02*
X1647Y1034D01*
D02*
X1647Y1034D02*
X1697Y984D01*
D02*
X1697Y984D02*
X1697Y684D01*
D02*
X1697Y684D02*
X1748Y633D01*
D02*
X1748Y633D02*
X1748Y185D01*
D02*
X1748Y185D02*
X1797Y134D01*
D02*
X1797Y134D02*
X1947Y134D01*
D02*
X1947Y134D02*
X1997Y184D01*
D02*
X1997Y184D02*
X1997Y634D01*
D02*
X1997Y634D02*
X2028Y665D01*
G54D21*
D02*
X1897Y1334D02*
X1864Y1366D01*
D02*
X1997Y1334D02*
X1897Y1334D01*
D02*
X2029Y1366D02*
X1997Y1334D01*
G54D19*
D02*
X1814Y1384D02*
X1797Y1384D01*
D02*
X1797Y1384D02*
X1697Y1284D01*
D02*
X1697Y1284D02*
X1298Y1284D01*
D02*
X1298Y1284D02*
X1247Y1333D01*
D02*
X1697Y1284D02*
X1697Y1083D01*
D02*
X1247Y1333D02*
X1247Y1355D01*
D02*
X1697Y1083D02*
X1777Y1004D01*
G54D20*
D02*
X847Y383D02*
X299Y387D01*
D02*
X897Y334D02*
X847Y383D01*
D02*
X897Y236D02*
X897Y334D01*
G54D19*
D02*
X1648Y484D02*
X1498Y484D01*
D02*
X1498Y484D02*
X1447Y535D01*
D02*
X1648Y484D02*
X1647Y834D01*
D02*
X1447Y535D02*
X1447Y633D01*
D02*
X1647Y834D02*
X1597Y884D01*
D02*
X1648Y85D02*
X1648Y484D01*
D02*
X1447Y633D02*
X1398Y684D01*
D02*
X1597Y884D02*
X1397Y884D01*
D02*
X1648Y85D02*
X297Y83D01*
D02*
X1398Y684D02*
X448Y684D01*
D02*
X1397Y884D02*
X797Y884D01*
D02*
X297Y83D02*
X248Y134D01*
D02*
X2247Y85D02*
X1648Y85D01*
D02*
X448Y684D02*
X397Y733D01*
D02*
X797Y884D02*
X747Y934D01*
D02*
X1397Y884D02*
X1397Y1084D01*
D02*
X248Y134D02*
X248Y150D01*
D02*
X2297Y134D02*
X2247Y85D01*
D02*
X397Y733D02*
X297Y733D01*
D02*
X747Y934D02*
X747Y1354D01*
D02*
X1397Y1084D02*
X1447Y1134D01*
D02*
X2297Y234D02*
X2297Y134D01*
D02*
X297Y733D02*
X248Y785D01*
D02*
X1447Y1134D02*
X1497Y1134D01*
D02*
X2297Y234D02*
X2126Y234D01*
D02*
X248Y785D02*
X248Y950D01*
D02*
X1497Y1134D02*
X1515Y1132D01*
D02*
X2297Y1235D02*
X2297Y234D01*
D02*
X2247Y1284D02*
X2297Y1235D01*
D02*
X2179Y1284D02*
X2247Y1284D01*
D02*
X2197Y1055D02*
X2197Y1013D01*
G54D20*
D02*
X1517Y365D02*
X1498Y383D01*
D02*
X1498Y383D02*
X1385Y384D01*
G54D19*
D02*
X1897Y1084D02*
X1826Y1084D01*
D02*
X1947Y1134D02*
X1897Y1084D01*
D02*
X1946Y1253D02*
X1947Y1134D01*
G36*
X1710Y1453D02*
X1710Y1451D01*
X1708Y1451D01*
X1708Y1449D01*
X1706Y1449D01*
X1706Y1447D01*
X1704Y1447D01*
X1704Y1445D01*
X1702Y1445D01*
X1702Y1443D01*
X1700Y1443D01*
X1700Y1441D01*
X1698Y1441D01*
X1698Y1439D01*
X1696Y1439D01*
X1696Y1437D01*
X1694Y1437D01*
X1694Y1417D01*
X1696Y1417D01*
X1696Y1413D01*
X1698Y1413D01*
X1698Y1409D01*
X1700Y1409D01*
X1700Y1405D01*
X1702Y1405D01*
X1702Y1399D01*
X1704Y1399D01*
X1704Y1369D01*
X1702Y1369D01*
X1702Y1363D01*
X1700Y1363D01*
X1700Y1359D01*
X1698Y1359D01*
X1698Y1355D01*
X1696Y1355D01*
X1696Y1353D01*
X1694Y1353D01*
X1694Y1349D01*
X1692Y1349D01*
X1692Y1347D01*
X1690Y1347D01*
X1690Y1345D01*
X1688Y1345D01*
X1688Y1343D01*
X1686Y1343D01*
X1686Y1341D01*
X1684Y1341D01*
X1684Y1339D01*
X1682Y1339D01*
X1682Y1337D01*
X1678Y1337D01*
X1678Y1329D01*
X1698Y1329D01*
X1698Y1331D01*
X1700Y1331D01*
X1700Y1333D01*
X1702Y1333D01*
X1702Y1335D01*
X1704Y1335D01*
X1704Y1337D01*
X1706Y1337D01*
X1706Y1339D01*
X1708Y1339D01*
X1708Y1341D01*
X1710Y1341D01*
X1710Y1343D01*
X1712Y1343D01*
X1712Y1345D01*
X1714Y1345D01*
X1714Y1347D01*
X1716Y1347D01*
X1716Y1349D01*
X1718Y1349D01*
X1718Y1351D01*
X1720Y1351D01*
X1720Y1353D01*
X1722Y1353D01*
X1722Y1355D01*
X1724Y1355D01*
X1724Y1357D01*
X1726Y1357D01*
X1726Y1359D01*
X1728Y1359D01*
X1728Y1361D01*
X1730Y1361D01*
X1730Y1363D01*
X1732Y1363D01*
X1732Y1365D01*
X1734Y1365D01*
X1734Y1367D01*
X1736Y1367D01*
X1736Y1369D01*
X1738Y1369D01*
X1738Y1371D01*
X1740Y1371D01*
X1740Y1373D01*
X1742Y1373D01*
X1742Y1375D01*
X1744Y1375D01*
X1744Y1377D01*
X1746Y1377D01*
X1746Y1379D01*
X1748Y1379D01*
X1748Y1381D01*
X1750Y1381D01*
X1750Y1383D01*
X1752Y1383D01*
X1752Y1385D01*
X1754Y1385D01*
X1754Y1387D01*
X1756Y1387D01*
X1756Y1389D01*
X1758Y1389D01*
X1758Y1391D01*
X1760Y1391D01*
X1760Y1393D01*
X1762Y1393D01*
X1762Y1395D01*
X1764Y1395D01*
X1764Y1397D01*
X1766Y1397D01*
X1766Y1399D01*
X1768Y1399D01*
X1768Y1401D01*
X1770Y1401D01*
X1770Y1403D01*
X1772Y1403D01*
X1772Y1405D01*
X1774Y1405D01*
X1774Y1407D01*
X1776Y1407D01*
X1776Y1409D01*
X1778Y1409D01*
X1778Y1411D01*
X1782Y1411D01*
X1782Y1413D01*
X1784Y1413D01*
X1784Y1415D01*
X1792Y1415D01*
X1792Y1417D01*
X1800Y1417D01*
X1800Y1419D01*
X1802Y1419D01*
X1802Y1423D01*
X1804Y1423D01*
X1804Y1425D01*
X1806Y1425D01*
X1806Y1427D01*
X1810Y1427D01*
X1810Y1429D01*
X1812Y1429D01*
X1812Y1431D01*
X1814Y1431D01*
X1814Y1433D01*
X1818Y1433D01*
X1818Y1453D01*
X1710Y1453D01*
G37*
D02*
G36*
X1768Y1311D02*
X1768Y1309D01*
X1766Y1309D01*
X1766Y1307D01*
X1764Y1307D01*
X1764Y1305D01*
X1762Y1305D01*
X1762Y1303D01*
X1760Y1303D01*
X1760Y1301D01*
X1758Y1301D01*
X1758Y1299D01*
X1756Y1299D01*
X1756Y1297D01*
X1754Y1297D01*
X1754Y1295D01*
X1752Y1295D01*
X1752Y1293D01*
X1750Y1293D01*
X1750Y1291D01*
X1748Y1291D01*
X1748Y1289D01*
X1746Y1289D01*
X1746Y1287D01*
X1744Y1287D01*
X1744Y1285D01*
X1742Y1285D01*
X1742Y1283D01*
X1740Y1283D01*
X1740Y1281D01*
X1738Y1281D01*
X1738Y1279D01*
X1736Y1279D01*
X1736Y1277D01*
X1734Y1277D01*
X1734Y1275D01*
X1732Y1275D01*
X1732Y1273D01*
X1730Y1273D01*
X1730Y1271D01*
X1728Y1271D01*
X1728Y1141D01*
X1810Y1141D01*
X1810Y1139D01*
X1818Y1139D01*
X1818Y1137D01*
X1822Y1137D01*
X1822Y1135D01*
X1826Y1135D01*
X1826Y1133D01*
X1830Y1133D01*
X1830Y1131D01*
X1832Y1131D01*
X1832Y1129D01*
X1834Y1129D01*
X1834Y1127D01*
X1836Y1127D01*
X1836Y1125D01*
X1838Y1125D01*
X1838Y1123D01*
X1840Y1123D01*
X1840Y1121D01*
X1842Y1121D01*
X1842Y1119D01*
X1844Y1119D01*
X1844Y1117D01*
X1886Y1117D01*
X1886Y1119D01*
X1888Y1119D01*
X1888Y1121D01*
X1890Y1121D01*
X1890Y1123D01*
X1892Y1123D01*
X1892Y1125D01*
X1894Y1125D01*
X1894Y1127D01*
X1896Y1127D01*
X1896Y1129D01*
X1898Y1129D01*
X1898Y1131D01*
X1900Y1131D01*
X1900Y1133D01*
X1902Y1133D01*
X1902Y1135D01*
X1904Y1135D01*
X1904Y1137D01*
X1906Y1137D01*
X1906Y1139D01*
X1908Y1139D01*
X1908Y1141D01*
X1910Y1141D01*
X1910Y1143D01*
X1912Y1143D01*
X1912Y1145D01*
X1914Y1145D01*
X1914Y1147D01*
X1916Y1147D01*
X1916Y1191D01*
X1914Y1191D01*
X1914Y1227D01*
X1788Y1227D01*
X1788Y1311D01*
X1768Y1311D01*
G37*
D02*
G36*
X1728Y1141D02*
X1728Y1111D01*
X1748Y1111D01*
X1748Y1115D01*
X1750Y1115D01*
X1750Y1117D01*
X1752Y1117D01*
X1752Y1121D01*
X1754Y1121D01*
X1754Y1123D01*
X1756Y1123D01*
X1756Y1125D01*
X1758Y1125D01*
X1758Y1127D01*
X1760Y1127D01*
X1760Y1129D01*
X1764Y1129D01*
X1764Y1131D01*
X1766Y1131D01*
X1766Y1133D01*
X1770Y1133D01*
X1770Y1135D01*
X1772Y1135D01*
X1772Y1137D01*
X1778Y1137D01*
X1778Y1139D01*
X1784Y1139D01*
X1784Y1141D01*
X1728Y1141D01*
G37*
D02*
G36*
X1730Y953D02*
X1730Y769D01*
X1728Y769D01*
X1728Y697D01*
X1730Y697D01*
X1730Y695D01*
X1732Y695D01*
X1732Y693D01*
X1734Y693D01*
X1734Y691D01*
X1736Y691D01*
X1736Y689D01*
X1738Y689D01*
X1738Y687D01*
X1740Y687D01*
X1740Y685D01*
X1742Y685D01*
X1742Y683D01*
X1744Y683D01*
X1744Y681D01*
X1746Y681D01*
X1746Y679D01*
X1748Y679D01*
X1748Y677D01*
X1750Y677D01*
X1750Y675D01*
X1752Y675D01*
X1752Y673D01*
X1754Y673D01*
X1754Y671D01*
X1756Y671D01*
X1756Y669D01*
X1758Y669D01*
X1758Y667D01*
X1760Y667D01*
X1760Y665D01*
X1762Y665D01*
X1762Y663D01*
X1764Y663D01*
X1764Y661D01*
X1766Y661D01*
X1766Y659D01*
X1768Y659D01*
X1768Y657D01*
X1770Y657D01*
X1770Y655D01*
X1772Y655D01*
X1772Y653D01*
X1774Y653D01*
X1774Y651D01*
X1776Y651D01*
X1776Y647D01*
X1778Y647D01*
X1778Y641D01*
X1780Y641D01*
X1780Y197D01*
X1782Y197D01*
X1782Y195D01*
X1784Y195D01*
X1784Y193D01*
X1786Y193D01*
X1786Y191D01*
X1788Y191D01*
X1788Y189D01*
X1790Y189D01*
X1790Y187D01*
X1792Y187D01*
X1792Y185D01*
X1794Y185D01*
X1794Y183D01*
X1796Y183D01*
X1796Y181D01*
X1798Y181D01*
X1798Y179D01*
X1800Y179D01*
X1800Y177D01*
X1802Y177D01*
X1802Y173D01*
X1804Y173D01*
X1804Y171D01*
X1806Y171D01*
X1806Y169D01*
X1808Y169D01*
X1808Y167D01*
X1810Y167D01*
X1810Y165D01*
X1840Y165D01*
X1840Y167D01*
X1866Y167D01*
X1866Y187D01*
X1864Y187D01*
X1864Y189D01*
X1862Y189D01*
X1862Y191D01*
X1858Y191D01*
X1858Y193D01*
X1856Y193D01*
X1856Y195D01*
X1854Y195D01*
X1854Y199D01*
X1852Y199D01*
X1852Y201D01*
X1850Y201D01*
X1850Y203D01*
X1848Y203D01*
X1848Y207D01*
X1846Y207D01*
X1846Y211D01*
X1844Y211D01*
X1844Y217D01*
X1842Y217D01*
X1842Y225D01*
X1840Y225D01*
X1840Y247D01*
X1838Y247D01*
X1838Y249D01*
X1836Y249D01*
X1836Y251D01*
X1834Y251D01*
X1834Y253D01*
X1832Y253D01*
X1832Y255D01*
X1830Y255D01*
X1830Y257D01*
X1828Y257D01*
X1828Y259D01*
X1826Y259D01*
X1826Y261D01*
X1824Y261D01*
X1824Y263D01*
X1822Y263D01*
X1822Y267D01*
X1820Y267D01*
X1820Y271D01*
X1818Y271D01*
X1818Y277D01*
X1816Y277D01*
X1816Y673D01*
X1814Y673D01*
X1814Y675D01*
X1812Y675D01*
X1812Y677D01*
X1810Y677D01*
X1810Y679D01*
X1808Y679D01*
X1808Y681D01*
X1804Y681D01*
X1804Y683D01*
X1802Y683D01*
X1802Y685D01*
X1800Y685D01*
X1800Y687D01*
X1798Y687D01*
X1798Y689D01*
X1796Y689D01*
X1796Y691D01*
X1794Y691D01*
X1794Y693D01*
X1792Y693D01*
X1792Y695D01*
X1790Y695D01*
X1790Y697D01*
X1788Y697D01*
X1788Y699D01*
X1786Y699D01*
X1786Y701D01*
X1784Y701D01*
X1784Y703D01*
X1782Y703D01*
X1782Y705D01*
X1780Y705D01*
X1780Y707D01*
X1778Y707D01*
X1778Y709D01*
X1776Y709D01*
X1776Y711D01*
X1774Y711D01*
X1774Y713D01*
X1772Y713D01*
X1772Y717D01*
X1770Y717D01*
X1770Y719D01*
X1768Y719D01*
X1768Y725D01*
X1766Y725D01*
X1766Y937D01*
X1764Y937D01*
X1764Y939D01*
X1762Y939D01*
X1762Y941D01*
X1758Y941D01*
X1758Y943D01*
X1756Y943D01*
X1756Y945D01*
X1754Y945D01*
X1754Y949D01*
X1752Y949D01*
X1752Y951D01*
X1750Y951D01*
X1750Y953D01*
X1730Y953D01*
G37*
D02*
G36*
X1880Y653D02*
X1880Y295D01*
X1882Y295D01*
X1882Y293D01*
X1884Y293D01*
X1884Y291D01*
X1910Y291D01*
X1910Y289D01*
X1918Y289D01*
X1918Y287D01*
X1922Y287D01*
X1922Y285D01*
X1926Y285D01*
X1926Y283D01*
X1930Y283D01*
X1930Y281D01*
X1932Y281D01*
X1932Y279D01*
X1934Y279D01*
X1934Y277D01*
X1936Y277D01*
X1936Y275D01*
X1938Y275D01*
X1938Y273D01*
X1940Y273D01*
X1940Y271D01*
X1942Y271D01*
X1942Y269D01*
X1944Y269D01*
X1944Y267D01*
X1946Y267D01*
X1946Y263D01*
X1966Y263D01*
X1966Y627D01*
X1938Y627D01*
X1938Y629D01*
X1930Y629D01*
X1930Y631D01*
X1924Y631D01*
X1924Y633D01*
X1920Y633D01*
X1920Y635D01*
X1918Y635D01*
X1918Y637D01*
X1914Y637D01*
X1914Y639D01*
X1912Y639D01*
X1912Y641D01*
X1910Y641D01*
X1910Y643D01*
X1908Y643D01*
X1908Y645D01*
X1906Y645D01*
X1906Y647D01*
X1904Y647D01*
X1904Y649D01*
X1902Y649D01*
X1902Y651D01*
X1900Y651D01*
X1900Y653D01*
X1880Y653D01*
G37*
D02*
G36*
X40Y1535D02*
X40Y1453D01*
X262Y1453D01*
X262Y1451D01*
X270Y1451D01*
X270Y1449D01*
X274Y1449D01*
X274Y1447D01*
X280Y1447D01*
X280Y1445D01*
X282Y1445D01*
X282Y1443D01*
X958Y1443D01*
X958Y1441D01*
X1260Y1441D01*
X1260Y1439D01*
X1268Y1439D01*
X1268Y1437D01*
X1272Y1437D01*
X1272Y1435D01*
X1276Y1435D01*
X1276Y1433D01*
X1280Y1433D01*
X1280Y1431D01*
X1282Y1431D01*
X1282Y1429D01*
X1284Y1429D01*
X1284Y1427D01*
X1286Y1427D01*
X1286Y1425D01*
X1288Y1425D01*
X1288Y1423D01*
X1290Y1423D01*
X1290Y1421D01*
X1292Y1421D01*
X1292Y1419D01*
X1294Y1419D01*
X1294Y1417D01*
X1296Y1417D01*
X1296Y1413D01*
X1298Y1413D01*
X1298Y1409D01*
X1300Y1409D01*
X1300Y1405D01*
X1302Y1405D01*
X1302Y1399D01*
X1304Y1399D01*
X1304Y1369D01*
X1302Y1369D01*
X1302Y1363D01*
X1300Y1363D01*
X1300Y1359D01*
X1298Y1359D01*
X1298Y1355D01*
X1296Y1355D01*
X1296Y1353D01*
X1294Y1353D01*
X1294Y1331D01*
X1296Y1331D01*
X1296Y1329D01*
X1298Y1329D01*
X1298Y1327D01*
X1300Y1327D01*
X1300Y1325D01*
X1302Y1325D01*
X1302Y1323D01*
X1304Y1323D01*
X1304Y1321D01*
X1306Y1321D01*
X1306Y1319D01*
X1308Y1319D01*
X1308Y1317D01*
X1616Y1317D01*
X1616Y1337D01*
X1614Y1337D01*
X1614Y1339D01*
X1612Y1339D01*
X1612Y1341D01*
X1608Y1341D01*
X1608Y1343D01*
X1606Y1343D01*
X1606Y1345D01*
X1604Y1345D01*
X1604Y1349D01*
X1602Y1349D01*
X1602Y1351D01*
X1600Y1351D01*
X1600Y1353D01*
X1598Y1353D01*
X1598Y1357D01*
X1596Y1357D01*
X1596Y1361D01*
X1594Y1361D01*
X1594Y1367D01*
X1592Y1367D01*
X1592Y1375D01*
X1590Y1375D01*
X1590Y1393D01*
X1592Y1393D01*
X1592Y1403D01*
X1594Y1403D01*
X1594Y1407D01*
X1596Y1407D01*
X1596Y1411D01*
X1598Y1411D01*
X1598Y1415D01*
X1600Y1415D01*
X1600Y1417D01*
X1602Y1417D01*
X1602Y1421D01*
X1604Y1421D01*
X1604Y1423D01*
X1606Y1423D01*
X1606Y1425D01*
X1608Y1425D01*
X1608Y1427D01*
X1610Y1427D01*
X1610Y1429D01*
X1614Y1429D01*
X1614Y1431D01*
X1616Y1431D01*
X1616Y1443D01*
X1618Y1443D01*
X1618Y1447D01*
X1620Y1447D01*
X1620Y1451D01*
X1622Y1451D01*
X1622Y1453D01*
X1624Y1453D01*
X1624Y1457D01*
X1626Y1457D01*
X1626Y1459D01*
X1628Y1459D01*
X1628Y1461D01*
X1630Y1461D01*
X1630Y1463D01*
X1632Y1463D01*
X1632Y1465D01*
X1634Y1465D01*
X1634Y1467D01*
X1636Y1467D01*
X1636Y1469D01*
X1638Y1469D01*
X1638Y1471D01*
X1640Y1471D01*
X1640Y1473D01*
X1642Y1473D01*
X1642Y1475D01*
X1644Y1475D01*
X1644Y1477D01*
X1646Y1477D01*
X1646Y1479D01*
X1648Y1479D01*
X1648Y1481D01*
X1650Y1481D01*
X1650Y1483D01*
X1652Y1483D01*
X1652Y1485D01*
X1654Y1485D01*
X1654Y1487D01*
X1656Y1487D01*
X1656Y1489D01*
X1658Y1489D01*
X1658Y1491D01*
X1660Y1491D01*
X1660Y1493D01*
X1662Y1493D01*
X1662Y1495D01*
X1664Y1495D01*
X1664Y1497D01*
X1666Y1497D01*
X1666Y1499D01*
X1668Y1499D01*
X1668Y1501D01*
X1670Y1501D01*
X1670Y1505D01*
X1672Y1505D01*
X1672Y1507D01*
X1674Y1507D01*
X1674Y1509D01*
X1678Y1509D01*
X1678Y1511D01*
X1680Y1511D01*
X1680Y1513D01*
X1684Y1513D01*
X1684Y1515D01*
X1690Y1515D01*
X1690Y1535D01*
X40Y1535D01*
G37*
D02*
G36*
X1904Y1535D02*
X1904Y1515D01*
X1910Y1515D01*
X1910Y1513D01*
X1914Y1513D01*
X1914Y1511D01*
X1916Y1511D01*
X1916Y1509D01*
X1920Y1509D01*
X1920Y1507D01*
X1922Y1507D01*
X1922Y1505D01*
X1924Y1505D01*
X1924Y1503D01*
X1926Y1503D01*
X1926Y1501D01*
X1928Y1501D01*
X1928Y1499D01*
X1930Y1499D01*
X1930Y1495D01*
X1932Y1495D01*
X1932Y1493D01*
X1934Y1493D01*
X1934Y1491D01*
X1936Y1491D01*
X1936Y1489D01*
X1938Y1489D01*
X1938Y1487D01*
X1940Y1487D01*
X1940Y1485D01*
X1942Y1485D01*
X1942Y1483D01*
X1944Y1483D01*
X1944Y1481D01*
X1946Y1481D01*
X1946Y1479D01*
X1948Y1479D01*
X1948Y1477D01*
X1950Y1477D01*
X1950Y1475D01*
X1952Y1475D01*
X1952Y1473D01*
X1954Y1473D01*
X1954Y1471D01*
X1956Y1471D01*
X1956Y1469D01*
X1958Y1469D01*
X1958Y1467D01*
X1960Y1467D01*
X1960Y1465D01*
X1962Y1465D01*
X1962Y1463D01*
X1964Y1463D01*
X1964Y1461D01*
X1966Y1461D01*
X1966Y1459D01*
X1968Y1459D01*
X1968Y1457D01*
X1970Y1457D01*
X1970Y1453D01*
X1972Y1453D01*
X1972Y1451D01*
X1974Y1451D01*
X1974Y1447D01*
X1976Y1447D01*
X1976Y1443D01*
X1978Y1443D01*
X1978Y1441D01*
X2160Y1441D01*
X2160Y1439D01*
X2166Y1439D01*
X2166Y1437D01*
X2172Y1437D01*
X2172Y1435D01*
X2176Y1435D01*
X2176Y1433D01*
X2178Y1433D01*
X2178Y1431D01*
X2182Y1431D01*
X2182Y1429D01*
X2184Y1429D01*
X2184Y1427D01*
X2186Y1427D01*
X2186Y1425D01*
X2188Y1425D01*
X2188Y1423D01*
X2190Y1423D01*
X2190Y1421D01*
X2192Y1421D01*
X2192Y1419D01*
X2194Y1419D01*
X2194Y1415D01*
X2196Y1415D01*
X2196Y1413D01*
X2198Y1413D01*
X2198Y1409D01*
X2200Y1409D01*
X2200Y1405D01*
X2202Y1405D01*
X2202Y1397D01*
X2204Y1397D01*
X2204Y1371D01*
X2202Y1371D01*
X2202Y1365D01*
X2200Y1365D01*
X2200Y1341D01*
X2204Y1341D01*
X2204Y1227D01*
X2322Y1227D01*
X2322Y1535D01*
X1904Y1535D01*
G37*
D02*
G36*
X40Y1453D02*
X40Y1315D01*
X234Y1315D01*
X234Y1317D01*
X226Y1317D01*
X226Y1319D01*
X220Y1319D01*
X220Y1321D01*
X216Y1321D01*
X216Y1323D01*
X212Y1323D01*
X212Y1325D01*
X210Y1325D01*
X210Y1327D01*
X206Y1327D01*
X206Y1329D01*
X204Y1329D01*
X204Y1331D01*
X202Y1331D01*
X202Y1333D01*
X200Y1333D01*
X200Y1335D01*
X198Y1335D01*
X198Y1337D01*
X196Y1337D01*
X196Y1339D01*
X194Y1339D01*
X194Y1341D01*
X192Y1341D01*
X192Y1343D01*
X190Y1343D01*
X190Y1347D01*
X188Y1347D01*
X188Y1351D01*
X186Y1351D01*
X186Y1353D01*
X184Y1353D01*
X184Y1359D01*
X182Y1359D01*
X182Y1365D01*
X180Y1365D01*
X180Y1373D01*
X178Y1373D01*
X178Y1395D01*
X180Y1395D01*
X180Y1405D01*
X182Y1405D01*
X182Y1409D01*
X184Y1409D01*
X184Y1415D01*
X186Y1415D01*
X186Y1419D01*
X188Y1419D01*
X188Y1421D01*
X190Y1421D01*
X190Y1425D01*
X192Y1425D01*
X192Y1427D01*
X194Y1427D01*
X194Y1429D01*
X196Y1429D01*
X196Y1431D01*
X198Y1431D01*
X198Y1433D01*
X200Y1433D01*
X200Y1435D01*
X202Y1435D01*
X202Y1437D01*
X204Y1437D01*
X204Y1439D01*
X206Y1439D01*
X206Y1441D01*
X210Y1441D01*
X210Y1443D01*
X212Y1443D01*
X212Y1445D01*
X216Y1445D01*
X216Y1447D01*
X220Y1447D01*
X220Y1449D01*
X226Y1449D01*
X226Y1451D01*
X234Y1451D01*
X234Y1453D01*
X40Y1453D01*
G37*
D02*
G36*
X286Y1443D02*
X286Y1441D01*
X288Y1441D01*
X288Y1439D01*
X292Y1439D01*
X292Y1437D01*
X294Y1437D01*
X294Y1435D01*
X296Y1435D01*
X296Y1433D01*
X298Y1433D01*
X298Y1431D01*
X300Y1431D01*
X300Y1429D01*
X404Y1429D01*
X404Y1427D01*
X412Y1427D01*
X412Y1425D01*
X416Y1425D01*
X416Y1423D01*
X420Y1423D01*
X420Y1421D01*
X422Y1421D01*
X422Y1419D01*
X426Y1419D01*
X426Y1417D01*
X428Y1417D01*
X428Y1415D01*
X430Y1415D01*
X430Y1413D01*
X432Y1413D01*
X432Y1411D01*
X434Y1411D01*
X434Y1409D01*
X436Y1409D01*
X436Y1407D01*
X438Y1407D01*
X438Y1405D01*
X440Y1405D01*
X440Y1403D01*
X442Y1403D01*
X442Y1401D01*
X444Y1401D01*
X444Y1399D01*
X446Y1399D01*
X446Y1397D01*
X448Y1397D01*
X448Y1395D01*
X450Y1395D01*
X450Y1393D01*
X452Y1393D01*
X452Y1391D01*
X454Y1391D01*
X454Y1389D01*
X456Y1389D01*
X456Y1387D01*
X458Y1387D01*
X458Y1385D01*
X460Y1385D01*
X460Y1383D01*
X462Y1383D01*
X462Y1381D01*
X464Y1381D01*
X464Y1379D01*
X466Y1379D01*
X466Y1377D01*
X468Y1377D01*
X468Y1375D01*
X470Y1375D01*
X470Y1373D01*
X472Y1373D01*
X472Y1371D01*
X474Y1371D01*
X474Y1369D01*
X476Y1369D01*
X476Y1367D01*
X478Y1367D01*
X478Y1365D01*
X480Y1365D01*
X480Y1363D01*
X482Y1363D01*
X482Y1361D01*
X484Y1361D01*
X484Y1357D01*
X486Y1357D01*
X486Y1353D01*
X488Y1353D01*
X488Y1349D01*
X490Y1349D01*
X490Y1343D01*
X492Y1343D01*
X492Y1325D01*
X738Y1325D01*
X738Y1327D01*
X730Y1327D01*
X730Y1329D01*
X724Y1329D01*
X724Y1331D01*
X720Y1331D01*
X720Y1333D01*
X716Y1333D01*
X716Y1335D01*
X714Y1335D01*
X714Y1337D01*
X712Y1337D01*
X712Y1339D01*
X708Y1339D01*
X708Y1341D01*
X706Y1341D01*
X706Y1343D01*
X704Y1343D01*
X704Y1345D01*
X702Y1345D01*
X702Y1349D01*
X700Y1349D01*
X700Y1351D01*
X698Y1351D01*
X698Y1353D01*
X696Y1353D01*
X696Y1357D01*
X694Y1357D01*
X694Y1361D01*
X692Y1361D01*
X692Y1367D01*
X690Y1367D01*
X690Y1377D01*
X688Y1377D01*
X688Y1391D01*
X690Y1391D01*
X690Y1401D01*
X692Y1401D01*
X692Y1407D01*
X694Y1407D01*
X694Y1411D01*
X696Y1411D01*
X696Y1415D01*
X698Y1415D01*
X698Y1417D01*
X700Y1417D01*
X700Y1419D01*
X702Y1419D01*
X702Y1423D01*
X704Y1423D01*
X704Y1425D01*
X706Y1425D01*
X706Y1427D01*
X708Y1427D01*
X708Y1429D01*
X710Y1429D01*
X710Y1431D01*
X714Y1431D01*
X714Y1433D01*
X716Y1433D01*
X716Y1435D01*
X720Y1435D01*
X720Y1437D01*
X724Y1437D01*
X724Y1439D01*
X728Y1439D01*
X728Y1441D01*
X736Y1441D01*
X736Y1443D01*
X286Y1443D01*
G37*
D02*
G36*
X758Y1443D02*
X758Y1441D01*
X766Y1441D01*
X766Y1439D01*
X772Y1439D01*
X772Y1437D01*
X776Y1437D01*
X776Y1435D01*
X778Y1435D01*
X778Y1433D01*
X782Y1433D01*
X782Y1431D01*
X784Y1431D01*
X784Y1429D01*
X786Y1429D01*
X786Y1427D01*
X788Y1427D01*
X788Y1425D01*
X790Y1425D01*
X790Y1423D01*
X792Y1423D01*
X792Y1421D01*
X794Y1421D01*
X794Y1419D01*
X796Y1419D01*
X796Y1415D01*
X798Y1415D01*
X798Y1413D01*
X800Y1413D01*
X800Y1409D01*
X802Y1409D01*
X802Y1403D01*
X804Y1403D01*
X804Y1397D01*
X806Y1397D01*
X806Y1371D01*
X804Y1371D01*
X804Y1365D01*
X802Y1365D01*
X802Y1359D01*
X800Y1359D01*
X800Y1355D01*
X798Y1355D01*
X798Y1353D01*
X796Y1353D01*
X796Y1349D01*
X794Y1349D01*
X794Y1347D01*
X792Y1347D01*
X792Y1345D01*
X790Y1345D01*
X790Y1343D01*
X788Y1343D01*
X788Y1341D01*
X786Y1341D01*
X786Y1339D01*
X784Y1339D01*
X784Y1337D01*
X782Y1337D01*
X782Y1335D01*
X778Y1335D01*
X778Y1333D01*
X774Y1333D01*
X774Y1331D01*
X770Y1331D01*
X770Y1329D01*
X766Y1329D01*
X766Y1327D01*
X756Y1327D01*
X756Y1325D01*
X938Y1325D01*
X938Y1327D01*
X930Y1327D01*
X930Y1329D01*
X924Y1329D01*
X924Y1331D01*
X920Y1331D01*
X920Y1333D01*
X916Y1333D01*
X916Y1335D01*
X914Y1335D01*
X914Y1337D01*
X912Y1337D01*
X912Y1339D01*
X908Y1339D01*
X908Y1341D01*
X906Y1341D01*
X906Y1343D01*
X904Y1343D01*
X904Y1345D01*
X902Y1345D01*
X902Y1349D01*
X900Y1349D01*
X900Y1351D01*
X898Y1351D01*
X898Y1353D01*
X896Y1353D01*
X896Y1357D01*
X894Y1357D01*
X894Y1361D01*
X892Y1361D01*
X892Y1367D01*
X890Y1367D01*
X890Y1377D01*
X888Y1377D01*
X888Y1391D01*
X890Y1391D01*
X890Y1401D01*
X892Y1401D01*
X892Y1407D01*
X894Y1407D01*
X894Y1411D01*
X896Y1411D01*
X896Y1415D01*
X898Y1415D01*
X898Y1417D01*
X900Y1417D01*
X900Y1419D01*
X902Y1419D01*
X902Y1423D01*
X904Y1423D01*
X904Y1425D01*
X906Y1425D01*
X906Y1427D01*
X908Y1427D01*
X908Y1429D01*
X910Y1429D01*
X910Y1431D01*
X914Y1431D01*
X914Y1433D01*
X916Y1433D01*
X916Y1435D01*
X920Y1435D01*
X920Y1437D01*
X924Y1437D01*
X924Y1439D01*
X928Y1439D01*
X928Y1441D01*
X936Y1441D01*
X936Y1443D01*
X758Y1443D01*
G37*
D02*
G36*
X966Y1441D02*
X966Y1439D01*
X972Y1439D01*
X972Y1437D01*
X976Y1437D01*
X976Y1435D01*
X978Y1435D01*
X978Y1433D01*
X982Y1433D01*
X982Y1431D01*
X984Y1431D01*
X984Y1429D01*
X986Y1429D01*
X986Y1427D01*
X988Y1427D01*
X988Y1425D01*
X990Y1425D01*
X990Y1423D01*
X992Y1423D01*
X992Y1421D01*
X994Y1421D01*
X994Y1419D01*
X996Y1419D01*
X996Y1417D01*
X1202Y1417D01*
X1202Y1421D01*
X1204Y1421D01*
X1204Y1423D01*
X1206Y1423D01*
X1206Y1425D01*
X1208Y1425D01*
X1208Y1427D01*
X1210Y1427D01*
X1210Y1429D01*
X1214Y1429D01*
X1214Y1431D01*
X1216Y1431D01*
X1216Y1433D01*
X1220Y1433D01*
X1220Y1435D01*
X1222Y1435D01*
X1222Y1437D01*
X1228Y1437D01*
X1228Y1439D01*
X1234Y1439D01*
X1234Y1441D01*
X966Y1441D01*
G37*
D02*
G36*
X1978Y1441D02*
X1978Y1431D01*
X1980Y1431D01*
X1980Y1429D01*
X1982Y1429D01*
X1982Y1427D01*
X1984Y1427D01*
X1984Y1425D01*
X2008Y1425D01*
X2008Y1427D01*
X2010Y1427D01*
X2010Y1429D01*
X2014Y1429D01*
X2014Y1431D01*
X2016Y1431D01*
X2016Y1433D01*
X2018Y1433D01*
X2018Y1435D01*
X2022Y1435D01*
X2022Y1437D01*
X2028Y1437D01*
X2028Y1439D01*
X2036Y1439D01*
X2036Y1441D01*
X1978Y1441D01*
G37*
D02*
G36*
X2058Y1441D02*
X2058Y1439D01*
X2066Y1439D01*
X2066Y1437D01*
X2070Y1437D01*
X2070Y1435D01*
X2074Y1435D01*
X2074Y1433D01*
X2078Y1433D01*
X2078Y1431D01*
X2080Y1431D01*
X2080Y1429D01*
X2084Y1429D01*
X2084Y1427D01*
X2086Y1427D01*
X2086Y1425D01*
X2108Y1425D01*
X2108Y1427D01*
X2112Y1427D01*
X2112Y1429D01*
X2114Y1429D01*
X2114Y1431D01*
X2116Y1431D01*
X2116Y1433D01*
X2120Y1433D01*
X2120Y1435D01*
X2124Y1435D01*
X2124Y1437D01*
X2128Y1437D01*
X2128Y1439D01*
X2136Y1439D01*
X2136Y1441D01*
X2058Y1441D01*
G37*
D02*
G36*
X996Y1353D02*
X996Y1349D01*
X994Y1349D01*
X994Y1347D01*
X992Y1347D01*
X992Y1345D01*
X990Y1345D01*
X990Y1343D01*
X988Y1343D01*
X988Y1341D01*
X986Y1341D01*
X986Y1339D01*
X984Y1339D01*
X984Y1337D01*
X982Y1337D01*
X982Y1335D01*
X978Y1335D01*
X978Y1333D01*
X974Y1333D01*
X974Y1331D01*
X970Y1331D01*
X970Y1329D01*
X966Y1329D01*
X966Y1327D01*
X956Y1327D01*
X956Y1325D01*
X1216Y1325D01*
X1216Y1329D01*
X1214Y1329D01*
X1214Y1339D01*
X1212Y1339D01*
X1212Y1341D01*
X1208Y1341D01*
X1208Y1343D01*
X1206Y1343D01*
X1206Y1345D01*
X1204Y1345D01*
X1204Y1349D01*
X1202Y1349D01*
X1202Y1351D01*
X1200Y1351D01*
X1200Y1353D01*
X996Y1353D01*
G37*
D02*
G36*
X302Y1341D02*
X302Y1339D01*
X300Y1339D01*
X300Y1337D01*
X298Y1337D01*
X298Y1335D01*
X296Y1335D01*
X296Y1333D01*
X294Y1333D01*
X294Y1331D01*
X290Y1331D01*
X290Y1329D01*
X288Y1329D01*
X288Y1327D01*
X286Y1327D01*
X286Y1325D01*
X282Y1325D01*
X282Y1323D01*
X278Y1323D01*
X278Y1321D01*
X274Y1321D01*
X274Y1319D01*
X268Y1319D01*
X268Y1317D01*
X260Y1317D01*
X260Y1315D01*
X404Y1315D01*
X404Y1317D01*
X402Y1317D01*
X402Y1319D01*
X400Y1319D01*
X400Y1321D01*
X398Y1321D01*
X398Y1323D01*
X396Y1323D01*
X396Y1325D01*
X394Y1325D01*
X394Y1327D01*
X392Y1327D01*
X392Y1329D01*
X390Y1329D01*
X390Y1331D01*
X388Y1331D01*
X388Y1333D01*
X386Y1333D01*
X386Y1335D01*
X384Y1335D01*
X384Y1337D01*
X382Y1337D01*
X382Y1339D01*
X380Y1339D01*
X380Y1341D01*
X302Y1341D01*
G37*
D02*
G36*
X492Y1325D02*
X492Y1323D01*
X1216Y1323D01*
X1216Y1325D01*
X492Y1325D01*
G37*
D02*
G36*
X492Y1325D02*
X492Y1323D01*
X1216Y1323D01*
X1216Y1325D01*
X492Y1325D01*
G37*
D02*
G36*
X492Y1325D02*
X492Y1323D01*
X1216Y1323D01*
X1216Y1325D01*
X492Y1325D01*
G37*
D02*
G36*
X492Y1323D02*
X492Y1189D01*
X1554Y1189D01*
X1554Y1187D01*
X1564Y1187D01*
X1564Y1185D01*
X1570Y1185D01*
X1570Y1183D01*
X1574Y1183D01*
X1574Y1181D01*
X1578Y1181D01*
X1578Y1179D01*
X1582Y1179D01*
X1582Y1177D01*
X1584Y1177D01*
X1584Y1175D01*
X1586Y1175D01*
X1586Y1173D01*
X1588Y1173D01*
X1588Y1171D01*
X1590Y1171D01*
X1590Y1169D01*
X1592Y1169D01*
X1592Y1167D01*
X1594Y1167D01*
X1594Y1165D01*
X1596Y1165D01*
X1596Y1163D01*
X1598Y1163D01*
X1598Y1159D01*
X1600Y1159D01*
X1600Y1155D01*
X1602Y1155D01*
X1602Y1151D01*
X1604Y1151D01*
X1604Y1145D01*
X1606Y1145D01*
X1606Y1135D01*
X1608Y1135D01*
X1608Y1121D01*
X1606Y1121D01*
X1606Y1113D01*
X1604Y1113D01*
X1604Y1105D01*
X1602Y1105D01*
X1602Y1101D01*
X1600Y1101D01*
X1600Y1099D01*
X1598Y1099D01*
X1598Y1095D01*
X1596Y1095D01*
X1596Y1093D01*
X1594Y1093D01*
X1594Y1089D01*
X1592Y1089D01*
X1592Y1067D01*
X1666Y1067D01*
X1666Y1081D01*
X1664Y1081D01*
X1664Y1253D01*
X1288Y1253D01*
X1288Y1255D01*
X1282Y1255D01*
X1282Y1257D01*
X1280Y1257D01*
X1280Y1259D01*
X1276Y1259D01*
X1276Y1261D01*
X1274Y1261D01*
X1274Y1263D01*
X1272Y1263D01*
X1272Y1265D01*
X1270Y1265D01*
X1270Y1267D01*
X1268Y1267D01*
X1268Y1269D01*
X1266Y1269D01*
X1266Y1271D01*
X1264Y1271D01*
X1264Y1273D01*
X1262Y1273D01*
X1262Y1275D01*
X1260Y1275D01*
X1260Y1277D01*
X1258Y1277D01*
X1258Y1279D01*
X1256Y1279D01*
X1256Y1281D01*
X1254Y1281D01*
X1254Y1283D01*
X1252Y1283D01*
X1252Y1285D01*
X1250Y1285D01*
X1250Y1287D01*
X1248Y1287D01*
X1248Y1289D01*
X1246Y1289D01*
X1246Y1291D01*
X1244Y1291D01*
X1244Y1293D01*
X1242Y1293D01*
X1242Y1295D01*
X1240Y1295D01*
X1240Y1297D01*
X1238Y1297D01*
X1238Y1299D01*
X1236Y1299D01*
X1236Y1301D01*
X1232Y1301D01*
X1232Y1303D01*
X1230Y1303D01*
X1230Y1305D01*
X1228Y1305D01*
X1228Y1307D01*
X1226Y1307D01*
X1226Y1309D01*
X1224Y1309D01*
X1224Y1311D01*
X1222Y1311D01*
X1222Y1315D01*
X1220Y1315D01*
X1220Y1317D01*
X1218Y1317D01*
X1218Y1321D01*
X1216Y1321D01*
X1216Y1323D01*
X492Y1323D01*
G37*
D02*
G36*
X40Y1315D02*
X40Y1313D01*
X404Y1313D01*
X404Y1315D01*
X40Y1315D01*
G37*
D02*
G36*
X40Y1315D02*
X40Y1313D01*
X404Y1313D01*
X404Y1315D01*
X40Y1315D01*
G37*
D02*
G36*
X40Y1313D02*
X40Y1257D01*
X256Y1257D01*
X256Y1255D01*
X266Y1255D01*
X266Y1253D01*
X272Y1253D01*
X272Y1251D01*
X278Y1251D01*
X278Y1249D01*
X282Y1249D01*
X282Y1247D01*
X284Y1247D01*
X284Y1245D01*
X288Y1245D01*
X288Y1243D01*
X290Y1243D01*
X290Y1241D01*
X292Y1241D01*
X292Y1239D01*
X294Y1239D01*
X294Y1237D01*
X298Y1237D01*
X298Y1233D01*
X300Y1233D01*
X300Y1231D01*
X302Y1231D01*
X302Y1229D01*
X304Y1229D01*
X304Y1227D01*
X306Y1227D01*
X306Y1223D01*
X308Y1223D01*
X308Y1219D01*
X310Y1219D01*
X310Y1215D01*
X312Y1215D01*
X312Y1211D01*
X314Y1211D01*
X314Y1203D01*
X316Y1203D01*
X316Y1171D01*
X314Y1171D01*
X314Y1165D01*
X312Y1165D01*
X312Y1159D01*
X310Y1159D01*
X310Y1155D01*
X308Y1155D01*
X308Y1151D01*
X306Y1151D01*
X306Y1149D01*
X304Y1149D01*
X304Y1145D01*
X302Y1145D01*
X302Y1143D01*
X300Y1143D01*
X300Y1141D01*
X298Y1141D01*
X298Y1139D01*
X296Y1139D01*
X296Y1137D01*
X294Y1137D01*
X294Y1135D01*
X292Y1135D01*
X292Y1133D01*
X290Y1133D01*
X290Y1131D01*
X286Y1131D01*
X286Y1129D01*
X284Y1129D01*
X284Y1127D01*
X280Y1127D01*
X280Y1125D01*
X276Y1125D01*
X276Y1123D01*
X272Y1123D01*
X272Y1121D01*
X264Y1121D01*
X264Y1119D01*
X252Y1119D01*
X252Y1117D01*
X404Y1117D01*
X404Y1313D01*
X40Y1313D01*
G37*
D02*
G36*
X40Y1257D02*
X40Y1155D01*
X60Y1155D01*
X60Y1157D01*
X62Y1157D01*
X62Y1161D01*
X64Y1161D01*
X64Y1163D01*
X66Y1163D01*
X66Y1165D01*
X68Y1165D01*
X68Y1167D01*
X70Y1167D01*
X70Y1169D01*
X72Y1169D01*
X72Y1171D01*
X74Y1171D01*
X74Y1173D01*
X76Y1173D01*
X76Y1175D01*
X78Y1175D01*
X78Y1177D01*
X80Y1177D01*
X80Y1179D01*
X82Y1179D01*
X82Y1181D01*
X84Y1181D01*
X84Y1183D01*
X86Y1183D01*
X86Y1185D01*
X88Y1185D01*
X88Y1187D01*
X90Y1187D01*
X90Y1189D01*
X92Y1189D01*
X92Y1191D01*
X94Y1191D01*
X94Y1193D01*
X96Y1193D01*
X96Y1195D01*
X98Y1195D01*
X98Y1197D01*
X100Y1197D01*
X100Y1199D01*
X102Y1199D01*
X102Y1201D01*
X104Y1201D01*
X104Y1203D01*
X106Y1203D01*
X106Y1205D01*
X108Y1205D01*
X108Y1207D01*
X110Y1207D01*
X110Y1209D01*
X112Y1209D01*
X112Y1211D01*
X114Y1211D01*
X114Y1213D01*
X116Y1213D01*
X116Y1215D01*
X118Y1215D01*
X118Y1217D01*
X120Y1217D01*
X120Y1219D01*
X122Y1219D01*
X122Y1221D01*
X126Y1221D01*
X126Y1223D01*
X130Y1223D01*
X130Y1225D01*
X136Y1225D01*
X136Y1227D01*
X150Y1227D01*
X150Y1229D01*
X192Y1229D01*
X192Y1231D01*
X194Y1231D01*
X194Y1233D01*
X196Y1233D01*
X196Y1235D01*
X198Y1235D01*
X198Y1237D01*
X200Y1237D01*
X200Y1239D01*
X202Y1239D01*
X202Y1241D01*
X204Y1241D01*
X204Y1243D01*
X208Y1243D01*
X208Y1245D01*
X210Y1245D01*
X210Y1247D01*
X214Y1247D01*
X214Y1249D01*
X218Y1249D01*
X218Y1251D01*
X222Y1251D01*
X222Y1253D01*
X228Y1253D01*
X228Y1255D01*
X238Y1255D01*
X238Y1257D01*
X40Y1257D01*
G37*
D02*
G36*
X1986Y1245D02*
X1986Y1243D01*
X1984Y1243D01*
X1984Y1241D01*
X1982Y1241D01*
X1982Y1239D01*
X1980Y1239D01*
X1980Y1237D01*
X1978Y1237D01*
X1978Y1227D01*
X2036Y1227D01*
X2036Y1229D01*
X2028Y1229D01*
X2028Y1231D01*
X2024Y1231D01*
X2024Y1233D01*
X2020Y1233D01*
X2020Y1235D01*
X2016Y1235D01*
X2016Y1237D01*
X2014Y1237D01*
X2014Y1239D01*
X2010Y1239D01*
X2010Y1241D01*
X2008Y1241D01*
X2008Y1243D01*
X2006Y1243D01*
X2006Y1245D01*
X1986Y1245D01*
G37*
D02*
G36*
X2070Y1233D02*
X2070Y1231D01*
X2066Y1231D01*
X2066Y1229D01*
X2058Y1229D01*
X2058Y1227D01*
X2090Y1227D01*
X2090Y1233D01*
X2070Y1233D01*
G37*
D02*
G36*
X1978Y1227D02*
X1978Y1225D01*
X2322Y1225D01*
X2322Y1227D01*
X1978Y1227D01*
G37*
D02*
G36*
X1978Y1227D02*
X1978Y1225D01*
X2322Y1225D01*
X2322Y1227D01*
X1978Y1227D01*
G37*
D02*
G36*
X1978Y1227D02*
X1978Y1225D01*
X2322Y1225D01*
X2322Y1227D01*
X1978Y1227D01*
G37*
D02*
G36*
X1978Y1225D02*
X1978Y1191D01*
X1980Y1191D01*
X1980Y1141D01*
X2210Y1141D01*
X2210Y1139D01*
X2218Y1139D01*
X2218Y1137D01*
X2222Y1137D01*
X2222Y1135D01*
X2226Y1135D01*
X2226Y1133D01*
X2230Y1133D01*
X2230Y1131D01*
X2232Y1131D01*
X2232Y1129D01*
X2234Y1129D01*
X2234Y1127D01*
X2236Y1127D01*
X2236Y1125D01*
X2238Y1125D01*
X2238Y1123D01*
X2240Y1123D01*
X2240Y1121D01*
X2242Y1121D01*
X2242Y1119D01*
X2244Y1119D01*
X2244Y1117D01*
X2246Y1117D01*
X2246Y1113D01*
X2248Y1113D01*
X2248Y1109D01*
X2250Y1109D01*
X2250Y1105D01*
X2252Y1105D01*
X2252Y1099D01*
X2254Y1099D01*
X2254Y1069D01*
X2252Y1069D01*
X2252Y1063D01*
X2250Y1063D01*
X2250Y1059D01*
X2248Y1059D01*
X2248Y1055D01*
X2246Y1055D01*
X2246Y1053D01*
X2244Y1053D01*
X2244Y1049D01*
X2242Y1049D01*
X2242Y1047D01*
X2240Y1047D01*
X2240Y1045D01*
X2238Y1045D01*
X2238Y1023D01*
X2240Y1023D01*
X2240Y1021D01*
X2242Y1021D01*
X2242Y1019D01*
X2244Y1019D01*
X2244Y1017D01*
X2246Y1017D01*
X2246Y1013D01*
X2248Y1013D01*
X2248Y1009D01*
X2250Y1009D01*
X2250Y1005D01*
X2252Y1005D01*
X2252Y999D01*
X2254Y999D01*
X2254Y969D01*
X2252Y969D01*
X2252Y963D01*
X2250Y963D01*
X2250Y959D01*
X2248Y959D01*
X2248Y955D01*
X2246Y955D01*
X2246Y953D01*
X2244Y953D01*
X2244Y949D01*
X2242Y949D01*
X2242Y947D01*
X2240Y947D01*
X2240Y945D01*
X2238Y945D01*
X2238Y943D01*
X2236Y943D01*
X2236Y941D01*
X2234Y941D01*
X2234Y939D01*
X2232Y939D01*
X2232Y937D01*
X2228Y937D01*
X2228Y935D01*
X2226Y935D01*
X2226Y933D01*
X2222Y933D01*
X2222Y931D01*
X2216Y931D01*
X2216Y929D01*
X2210Y929D01*
X2210Y927D01*
X2322Y927D01*
X2322Y1225D01*
X1978Y1225D01*
G37*
D02*
G36*
X492Y1189D02*
X492Y969D01*
X1536Y969D01*
X1536Y971D01*
X1528Y971D01*
X1528Y973D01*
X1522Y973D01*
X1522Y975D01*
X1518Y975D01*
X1518Y977D01*
X1516Y977D01*
X1516Y979D01*
X1512Y979D01*
X1512Y981D01*
X1510Y981D01*
X1510Y983D01*
X1508Y983D01*
X1508Y985D01*
X1506Y985D01*
X1506Y987D01*
X1504Y987D01*
X1504Y989D01*
X1502Y989D01*
X1502Y991D01*
X1500Y991D01*
X1500Y993D01*
X1498Y993D01*
X1498Y997D01*
X1496Y997D01*
X1496Y999D01*
X1494Y999D01*
X1494Y1003D01*
X1492Y1003D01*
X1492Y1009D01*
X1490Y1009D01*
X1490Y1015D01*
X1488Y1015D01*
X1488Y1041D01*
X1490Y1041D01*
X1490Y1049D01*
X1492Y1049D01*
X1492Y1053D01*
X1494Y1053D01*
X1494Y1057D01*
X1496Y1057D01*
X1496Y1061D01*
X1498Y1061D01*
X1498Y1063D01*
X1500Y1063D01*
X1500Y1065D01*
X1502Y1065D01*
X1502Y1069D01*
X1504Y1069D01*
X1504Y1089D01*
X1502Y1089D01*
X1502Y1091D01*
X1500Y1091D01*
X1500Y1093D01*
X1498Y1093D01*
X1498Y1097D01*
X1496Y1097D01*
X1496Y1099D01*
X1494Y1099D01*
X1494Y1103D01*
X1492Y1103D01*
X1492Y1109D01*
X1490Y1109D01*
X1490Y1115D01*
X1488Y1115D01*
X1488Y1141D01*
X1490Y1141D01*
X1490Y1149D01*
X1492Y1149D01*
X1492Y1153D01*
X1494Y1153D01*
X1494Y1157D01*
X1496Y1157D01*
X1496Y1161D01*
X1498Y1161D01*
X1498Y1163D01*
X1500Y1163D01*
X1500Y1165D01*
X1502Y1165D01*
X1502Y1169D01*
X1504Y1169D01*
X1504Y1171D01*
X1506Y1171D01*
X1506Y1173D01*
X1508Y1173D01*
X1508Y1175D01*
X1512Y1175D01*
X1512Y1177D01*
X1514Y1177D01*
X1514Y1179D01*
X1516Y1179D01*
X1516Y1181D01*
X1520Y1181D01*
X1520Y1183D01*
X1524Y1183D01*
X1524Y1185D01*
X1530Y1185D01*
X1530Y1187D01*
X1540Y1187D01*
X1540Y1189D01*
X492Y1189D01*
G37*
D02*
G36*
X166Y1141D02*
X166Y1139D01*
X164Y1139D01*
X164Y1137D01*
X162Y1137D01*
X162Y1135D01*
X160Y1135D01*
X160Y1133D01*
X158Y1133D01*
X158Y1131D01*
X156Y1131D01*
X156Y1129D01*
X154Y1129D01*
X154Y1127D01*
X152Y1127D01*
X152Y1125D01*
X150Y1125D01*
X150Y1123D01*
X148Y1123D01*
X148Y1121D01*
X146Y1121D01*
X146Y1119D01*
X144Y1119D01*
X144Y1117D01*
X244Y1117D01*
X244Y1119D01*
X230Y1119D01*
X230Y1121D01*
X224Y1121D01*
X224Y1123D01*
X218Y1123D01*
X218Y1125D01*
X214Y1125D01*
X214Y1127D01*
X212Y1127D01*
X212Y1129D01*
X208Y1129D01*
X208Y1131D01*
X206Y1131D01*
X206Y1133D01*
X202Y1133D01*
X202Y1135D01*
X200Y1135D01*
X200Y1137D01*
X198Y1137D01*
X198Y1139D01*
X196Y1139D01*
X196Y1141D01*
X166Y1141D01*
G37*
D02*
G36*
X1980Y1141D02*
X1980Y1129D01*
X1978Y1129D01*
X1978Y1121D01*
X1976Y1121D01*
X1976Y1117D01*
X1974Y1117D01*
X1974Y1115D01*
X1972Y1115D01*
X1972Y1113D01*
X1970Y1113D01*
X1970Y1111D01*
X1968Y1111D01*
X1968Y1109D01*
X1966Y1109D01*
X1966Y1107D01*
X1964Y1107D01*
X1964Y1105D01*
X1962Y1105D01*
X1962Y1103D01*
X1960Y1103D01*
X1960Y1101D01*
X1958Y1101D01*
X1958Y1099D01*
X1956Y1099D01*
X1956Y1097D01*
X1954Y1097D01*
X1954Y1095D01*
X1952Y1095D01*
X1952Y1093D01*
X1950Y1093D01*
X1950Y1091D01*
X1948Y1091D01*
X1948Y1089D01*
X1946Y1089D01*
X1946Y1087D01*
X1944Y1087D01*
X1944Y1085D01*
X1942Y1085D01*
X1942Y1083D01*
X1940Y1083D01*
X1940Y1081D01*
X1938Y1081D01*
X1938Y1079D01*
X1936Y1079D01*
X1936Y1077D01*
X1934Y1077D01*
X1934Y1075D01*
X1932Y1075D01*
X1932Y1073D01*
X1930Y1073D01*
X1930Y1071D01*
X1928Y1071D01*
X1928Y1069D01*
X1926Y1069D01*
X1926Y1067D01*
X1924Y1067D01*
X1924Y1065D01*
X1922Y1065D01*
X1922Y1063D01*
X1920Y1063D01*
X1920Y1061D01*
X1918Y1061D01*
X1918Y1059D01*
X1916Y1059D01*
X1916Y1057D01*
X1912Y1057D01*
X1912Y1055D01*
X1908Y1055D01*
X1908Y1053D01*
X1844Y1053D01*
X1844Y1049D01*
X1842Y1049D01*
X1842Y1047D01*
X1840Y1047D01*
X1840Y1045D01*
X1838Y1045D01*
X1838Y1023D01*
X1840Y1023D01*
X1840Y1021D01*
X1842Y1021D01*
X1842Y1019D01*
X1844Y1019D01*
X1844Y1017D01*
X1846Y1017D01*
X1846Y1013D01*
X1848Y1013D01*
X1848Y1009D01*
X1850Y1009D01*
X1850Y1005D01*
X1852Y1005D01*
X1852Y999D01*
X1854Y999D01*
X1854Y969D01*
X1852Y969D01*
X1852Y963D01*
X1850Y963D01*
X1850Y959D01*
X1848Y959D01*
X1848Y955D01*
X1846Y955D01*
X1846Y953D01*
X1844Y953D01*
X1844Y949D01*
X1842Y949D01*
X1842Y947D01*
X1840Y947D01*
X1840Y945D01*
X1838Y945D01*
X1838Y943D01*
X1836Y943D01*
X1836Y941D01*
X1834Y941D01*
X1834Y939D01*
X1832Y939D01*
X1832Y937D01*
X1830Y937D01*
X1830Y747D01*
X1832Y747D01*
X1832Y745D01*
X1834Y745D01*
X1834Y743D01*
X1836Y743D01*
X1836Y741D01*
X1838Y741D01*
X1838Y739D01*
X1840Y739D01*
X1840Y737D01*
X1842Y737D01*
X1842Y735D01*
X1844Y735D01*
X1844Y733D01*
X1846Y733D01*
X1846Y731D01*
X1848Y731D01*
X1848Y729D01*
X1850Y729D01*
X1850Y727D01*
X1852Y727D01*
X1852Y725D01*
X1854Y725D01*
X1854Y723D01*
X1856Y723D01*
X1856Y721D01*
X1858Y721D01*
X1858Y719D01*
X1860Y719D01*
X1860Y717D01*
X1902Y717D01*
X1902Y719D01*
X1904Y719D01*
X1904Y721D01*
X1906Y721D01*
X1906Y725D01*
X1910Y725D01*
X1910Y727D01*
X1912Y727D01*
X1912Y729D01*
X1914Y729D01*
X1914Y731D01*
X1916Y731D01*
X1916Y733D01*
X1920Y733D01*
X1920Y735D01*
X1924Y735D01*
X1924Y737D01*
X1930Y737D01*
X1930Y739D01*
X1938Y739D01*
X1938Y741D01*
X1940Y741D01*
X1940Y765D01*
X1942Y765D01*
X1942Y775D01*
X1944Y775D01*
X1944Y781D01*
X1946Y781D01*
X1946Y785D01*
X1948Y785D01*
X1948Y789D01*
X1950Y789D01*
X1950Y791D01*
X1952Y791D01*
X1952Y795D01*
X1954Y795D01*
X1954Y797D01*
X1956Y797D01*
X1956Y799D01*
X1958Y799D01*
X1958Y801D01*
X1960Y801D01*
X1960Y803D01*
X1962Y803D01*
X1962Y805D01*
X1966Y805D01*
X1966Y943D01*
X1968Y943D01*
X1968Y949D01*
X1970Y949D01*
X1970Y951D01*
X1972Y951D01*
X1972Y955D01*
X1974Y955D01*
X1974Y957D01*
X1976Y957D01*
X1976Y959D01*
X1978Y959D01*
X1978Y961D01*
X1980Y961D01*
X1980Y963D01*
X1982Y963D01*
X1982Y965D01*
X1984Y965D01*
X1984Y967D01*
X1986Y967D01*
X1986Y969D01*
X1988Y969D01*
X1988Y971D01*
X1990Y971D01*
X1990Y973D01*
X1992Y973D01*
X1992Y975D01*
X1994Y975D01*
X1994Y977D01*
X1996Y977D01*
X1996Y979D01*
X1998Y979D01*
X1998Y981D01*
X2000Y981D01*
X2000Y983D01*
X2002Y983D01*
X2002Y985D01*
X2004Y985D01*
X2004Y987D01*
X2006Y987D01*
X2006Y989D01*
X2008Y989D01*
X2008Y991D01*
X2010Y991D01*
X2010Y993D01*
X2012Y993D01*
X2012Y995D01*
X2014Y995D01*
X2014Y997D01*
X2016Y997D01*
X2016Y999D01*
X2018Y999D01*
X2018Y1001D01*
X2020Y1001D01*
X2020Y1003D01*
X2022Y1003D01*
X2022Y1005D01*
X2024Y1005D01*
X2024Y1007D01*
X2026Y1007D01*
X2026Y1009D01*
X2030Y1009D01*
X2030Y1011D01*
X2032Y1011D01*
X2032Y1013D01*
X2038Y1013D01*
X2038Y1015D01*
X2150Y1015D01*
X2150Y1017D01*
X2152Y1017D01*
X2152Y1021D01*
X2154Y1021D01*
X2154Y1023D01*
X2156Y1023D01*
X2156Y1045D01*
X2154Y1045D01*
X2154Y1049D01*
X2152Y1049D01*
X2152Y1051D01*
X2150Y1051D01*
X2150Y1053D01*
X2148Y1053D01*
X2148Y1057D01*
X2146Y1057D01*
X2146Y1061D01*
X2144Y1061D01*
X2144Y1067D01*
X2142Y1067D01*
X2142Y1075D01*
X2140Y1075D01*
X2140Y1093D01*
X2142Y1093D01*
X2142Y1103D01*
X2144Y1103D01*
X2144Y1107D01*
X2146Y1107D01*
X2146Y1111D01*
X2148Y1111D01*
X2148Y1115D01*
X2150Y1115D01*
X2150Y1117D01*
X2152Y1117D01*
X2152Y1121D01*
X2154Y1121D01*
X2154Y1123D01*
X2156Y1123D01*
X2156Y1125D01*
X2158Y1125D01*
X2158Y1127D01*
X2160Y1127D01*
X2160Y1129D01*
X2164Y1129D01*
X2164Y1131D01*
X2166Y1131D01*
X2166Y1133D01*
X2170Y1133D01*
X2170Y1135D01*
X2172Y1135D01*
X2172Y1137D01*
X2178Y1137D01*
X2178Y1139D01*
X2184Y1139D01*
X2184Y1141D01*
X1980Y1141D01*
G37*
D02*
G36*
X142Y1117D02*
X142Y1115D01*
X404Y1115D01*
X404Y1117D01*
X142Y1117D01*
G37*
D02*
G36*
X142Y1117D02*
X142Y1115D01*
X404Y1115D01*
X404Y1117D01*
X142Y1117D01*
G37*
D02*
G36*
X142Y1115D02*
X142Y1059D01*
X318Y1059D01*
X318Y921D01*
X404Y921D01*
X404Y1115D01*
X142Y1115D01*
G37*
D02*
G36*
X142Y1059D02*
X142Y921D01*
X178Y921D01*
X178Y1059D01*
X142Y1059D01*
G37*
D02*
G36*
X1602Y1003D02*
X1602Y1001D01*
X1600Y1001D01*
X1600Y999D01*
X1598Y999D01*
X1598Y995D01*
X1596Y995D01*
X1596Y993D01*
X1594Y993D01*
X1594Y989D01*
X1592Y989D01*
X1592Y987D01*
X1590Y987D01*
X1590Y985D01*
X1588Y985D01*
X1588Y983D01*
X1584Y983D01*
X1584Y981D01*
X1582Y981D01*
X1582Y979D01*
X1580Y979D01*
X1580Y977D01*
X1576Y977D01*
X1576Y975D01*
X1572Y975D01*
X1572Y973D01*
X1568Y973D01*
X1568Y971D01*
X1560Y971D01*
X1560Y969D01*
X1666Y969D01*
X1666Y971D01*
X1664Y971D01*
X1664Y973D01*
X1662Y973D01*
X1662Y975D01*
X1660Y975D01*
X1660Y977D01*
X1658Y977D01*
X1658Y979D01*
X1656Y979D01*
X1656Y981D01*
X1654Y981D01*
X1654Y983D01*
X1652Y983D01*
X1652Y985D01*
X1650Y985D01*
X1650Y987D01*
X1648Y987D01*
X1648Y989D01*
X1646Y989D01*
X1646Y991D01*
X1644Y991D01*
X1644Y993D01*
X1642Y993D01*
X1642Y995D01*
X1640Y995D01*
X1640Y997D01*
X1638Y997D01*
X1638Y999D01*
X1636Y999D01*
X1636Y1001D01*
X1634Y1001D01*
X1634Y1003D01*
X1602Y1003D01*
G37*
D02*
G36*
X492Y969D02*
X492Y967D01*
X1666Y967D01*
X1666Y969D01*
X492Y969D01*
G37*
D02*
G36*
X492Y969D02*
X492Y967D01*
X1666Y967D01*
X1666Y969D01*
X492Y969D01*
G37*
D02*
G36*
X492Y967D02*
X492Y851D01*
X494Y851D01*
X494Y849D01*
X496Y849D01*
X496Y847D01*
X498Y847D01*
X498Y845D01*
X500Y845D01*
X500Y843D01*
X502Y843D01*
X502Y841D01*
X504Y841D01*
X504Y839D01*
X506Y839D01*
X506Y837D01*
X508Y837D01*
X508Y835D01*
X510Y835D01*
X510Y833D01*
X512Y833D01*
X512Y831D01*
X514Y831D01*
X514Y829D01*
X878Y829D01*
X878Y827D01*
X1506Y827D01*
X1506Y825D01*
X1514Y825D01*
X1514Y823D01*
X1518Y823D01*
X1518Y821D01*
X1522Y821D01*
X1522Y819D01*
X1524Y819D01*
X1524Y817D01*
X1526Y817D01*
X1526Y815D01*
X1530Y815D01*
X1530Y813D01*
X1532Y813D01*
X1532Y811D01*
X1534Y811D01*
X1534Y809D01*
X1536Y809D01*
X1536Y807D01*
X1538Y807D01*
X1538Y805D01*
X1540Y805D01*
X1540Y803D01*
X1542Y803D01*
X1542Y801D01*
X1544Y801D01*
X1544Y799D01*
X1546Y799D01*
X1546Y797D01*
X1548Y797D01*
X1548Y795D01*
X1550Y795D01*
X1550Y793D01*
X1552Y793D01*
X1552Y791D01*
X1554Y791D01*
X1554Y789D01*
X1556Y789D01*
X1556Y787D01*
X1558Y787D01*
X1558Y785D01*
X1560Y785D01*
X1560Y783D01*
X1562Y783D01*
X1562Y781D01*
X1564Y781D01*
X1564Y779D01*
X1566Y779D01*
X1566Y777D01*
X1568Y777D01*
X1568Y775D01*
X1570Y775D01*
X1570Y773D01*
X1572Y773D01*
X1572Y771D01*
X1574Y771D01*
X1574Y769D01*
X1576Y769D01*
X1576Y767D01*
X1578Y767D01*
X1578Y765D01*
X1580Y765D01*
X1580Y761D01*
X1582Y761D01*
X1582Y759D01*
X1584Y759D01*
X1584Y757D01*
X1586Y757D01*
X1586Y753D01*
X1588Y753D01*
X1588Y749D01*
X1590Y749D01*
X1590Y743D01*
X1592Y743D01*
X1592Y657D01*
X1594Y657D01*
X1594Y653D01*
X1596Y653D01*
X1596Y651D01*
X1598Y651D01*
X1598Y647D01*
X1600Y647D01*
X1600Y645D01*
X1602Y645D01*
X1602Y641D01*
X1604Y641D01*
X1604Y633D01*
X1606Y633D01*
X1606Y625D01*
X1608Y625D01*
X1608Y611D01*
X1606Y611D01*
X1606Y601D01*
X1604Y601D01*
X1604Y595D01*
X1602Y595D01*
X1602Y591D01*
X1600Y591D01*
X1600Y587D01*
X1598Y587D01*
X1598Y583D01*
X1596Y583D01*
X1596Y581D01*
X1594Y581D01*
X1594Y579D01*
X1592Y579D01*
X1592Y577D01*
X1590Y577D01*
X1590Y575D01*
X1588Y575D01*
X1588Y573D01*
X1586Y573D01*
X1586Y571D01*
X1584Y571D01*
X1584Y569D01*
X1582Y569D01*
X1582Y567D01*
X1578Y567D01*
X1578Y565D01*
X1574Y565D01*
X1574Y563D01*
X1570Y563D01*
X1570Y561D01*
X1564Y561D01*
X1564Y559D01*
X1554Y559D01*
X1554Y557D01*
X1716Y557D01*
X1716Y621D01*
X1714Y621D01*
X1714Y623D01*
X1712Y623D01*
X1712Y625D01*
X1710Y625D01*
X1710Y627D01*
X1708Y627D01*
X1708Y629D01*
X1706Y629D01*
X1706Y631D01*
X1704Y631D01*
X1704Y633D01*
X1702Y633D01*
X1702Y635D01*
X1700Y635D01*
X1700Y637D01*
X1698Y637D01*
X1698Y639D01*
X1696Y639D01*
X1696Y641D01*
X1694Y641D01*
X1694Y643D01*
X1692Y643D01*
X1692Y645D01*
X1690Y645D01*
X1690Y647D01*
X1688Y647D01*
X1688Y649D01*
X1686Y649D01*
X1686Y651D01*
X1684Y651D01*
X1684Y653D01*
X1682Y653D01*
X1682Y655D01*
X1680Y655D01*
X1680Y657D01*
X1678Y657D01*
X1678Y659D01*
X1676Y659D01*
X1676Y661D01*
X1674Y661D01*
X1674Y663D01*
X1672Y663D01*
X1672Y665D01*
X1670Y665D01*
X1670Y669D01*
X1668Y669D01*
X1668Y673D01*
X1666Y673D01*
X1666Y683D01*
X1664Y683D01*
X1664Y775D01*
X1666Y775D01*
X1666Y967D01*
X492Y967D01*
G37*
D02*
G36*
X2058Y951D02*
X2058Y949D01*
X2056Y949D01*
X2056Y947D01*
X2054Y947D01*
X2054Y945D01*
X2052Y945D01*
X2052Y943D01*
X2050Y943D01*
X2050Y941D01*
X2048Y941D01*
X2048Y939D01*
X2046Y939D01*
X2046Y937D01*
X2044Y937D01*
X2044Y935D01*
X2042Y935D01*
X2042Y933D01*
X2040Y933D01*
X2040Y931D01*
X2038Y931D01*
X2038Y929D01*
X2036Y929D01*
X2036Y927D01*
X2186Y927D01*
X2186Y929D01*
X2178Y929D01*
X2178Y931D01*
X2174Y931D01*
X2174Y933D01*
X2170Y933D01*
X2170Y935D01*
X2166Y935D01*
X2166Y937D01*
X2164Y937D01*
X2164Y939D01*
X2162Y939D01*
X2162Y941D01*
X2158Y941D01*
X2158Y943D01*
X2156Y943D01*
X2156Y945D01*
X2154Y945D01*
X2154Y949D01*
X2152Y949D01*
X2152Y951D01*
X2058Y951D01*
G37*
D02*
G36*
X2034Y927D02*
X2034Y925D01*
X2322Y925D01*
X2322Y927D01*
X2034Y927D01*
G37*
D02*
G36*
X2034Y927D02*
X2034Y925D01*
X2322Y925D01*
X2322Y927D01*
X2034Y927D01*
G37*
D02*
G36*
X2032Y925D02*
X2032Y923D01*
X2030Y923D01*
X2030Y805D01*
X2032Y805D01*
X2032Y803D01*
X2034Y803D01*
X2034Y801D01*
X2038Y801D01*
X2038Y797D01*
X2040Y797D01*
X2040Y795D01*
X2042Y795D01*
X2042Y793D01*
X2044Y793D01*
X2044Y791D01*
X2046Y791D01*
X2046Y787D01*
X2048Y787D01*
X2048Y783D01*
X2050Y783D01*
X2050Y779D01*
X2052Y779D01*
X2052Y771D01*
X2054Y771D01*
X2054Y741D01*
X2058Y741D01*
X2058Y739D01*
X2066Y739D01*
X2066Y737D01*
X2070Y737D01*
X2070Y735D01*
X2074Y735D01*
X2074Y733D01*
X2078Y733D01*
X2078Y731D01*
X2080Y731D01*
X2080Y729D01*
X2084Y729D01*
X2084Y727D01*
X2086Y727D01*
X2086Y725D01*
X2088Y725D01*
X2088Y723D01*
X2090Y723D01*
X2090Y721D01*
X2092Y721D01*
X2092Y717D01*
X2094Y717D01*
X2094Y715D01*
X2096Y715D01*
X2096Y713D01*
X2098Y713D01*
X2098Y709D01*
X2100Y709D01*
X2100Y703D01*
X2102Y703D01*
X2102Y697D01*
X2104Y697D01*
X2104Y671D01*
X2102Y671D01*
X2102Y665D01*
X2100Y665D01*
X2100Y659D01*
X2098Y659D01*
X2098Y657D01*
X2096Y657D01*
X2096Y653D01*
X2094Y653D01*
X2094Y651D01*
X2092Y651D01*
X2092Y647D01*
X2090Y647D01*
X2090Y645D01*
X2088Y645D01*
X2088Y643D01*
X2086Y643D01*
X2086Y641D01*
X2084Y641D01*
X2084Y639D01*
X2080Y639D01*
X2080Y637D01*
X2078Y637D01*
X2078Y635D01*
X2074Y635D01*
X2074Y633D01*
X2070Y633D01*
X2070Y631D01*
X2066Y631D01*
X2066Y629D01*
X2056Y629D01*
X2056Y627D01*
X2034Y627D01*
X2034Y625D01*
X2032Y625D01*
X2032Y623D01*
X2030Y623D01*
X2030Y291D01*
X2154Y291D01*
X2154Y177D01*
X2028Y177D01*
X2028Y171D01*
X2026Y171D01*
X2026Y167D01*
X2024Y167D01*
X2024Y165D01*
X2022Y165D01*
X2022Y163D01*
X2020Y163D01*
X2020Y161D01*
X2018Y161D01*
X2018Y159D01*
X2016Y159D01*
X2016Y157D01*
X2014Y157D01*
X2014Y155D01*
X2012Y155D01*
X2012Y153D01*
X2010Y153D01*
X2010Y151D01*
X2008Y151D01*
X2008Y149D01*
X2006Y149D01*
X2006Y147D01*
X2004Y147D01*
X2004Y145D01*
X2002Y145D01*
X2002Y143D01*
X2000Y143D01*
X2000Y141D01*
X1998Y141D01*
X1998Y139D01*
X1996Y139D01*
X1996Y137D01*
X1994Y137D01*
X1994Y135D01*
X1992Y135D01*
X1992Y133D01*
X1990Y133D01*
X1990Y131D01*
X1988Y131D01*
X1988Y129D01*
X1986Y129D01*
X1986Y127D01*
X1984Y127D01*
X1984Y125D01*
X1982Y125D01*
X1982Y123D01*
X1980Y123D01*
X1980Y121D01*
X1978Y121D01*
X1978Y119D01*
X1976Y119D01*
X1976Y117D01*
X1974Y117D01*
X1974Y115D01*
X1972Y115D01*
X1972Y113D01*
X1970Y113D01*
X1970Y111D01*
X1968Y111D01*
X1968Y109D01*
X1966Y109D01*
X1966Y107D01*
X1962Y107D01*
X1962Y105D01*
X1958Y105D01*
X1958Y103D01*
X1848Y103D01*
X1848Y101D01*
X2322Y101D01*
X2322Y925D01*
X2032Y925D01*
G37*
D02*
G36*
X142Y921D02*
X142Y919D01*
X404Y919D01*
X404Y921D01*
X142Y921D01*
G37*
D02*
G36*
X142Y921D02*
X142Y919D01*
X404Y919D01*
X404Y921D01*
X142Y921D01*
G37*
D02*
G36*
X142Y919D02*
X142Y653D01*
X262Y653D01*
X262Y651D01*
X270Y651D01*
X270Y649D01*
X274Y649D01*
X274Y647D01*
X278Y647D01*
X278Y645D01*
X282Y645D01*
X282Y643D01*
X286Y643D01*
X286Y641D01*
X1358Y641D01*
X1358Y639D01*
X1366Y639D01*
X1366Y637D01*
X1370Y637D01*
X1370Y635D01*
X1374Y635D01*
X1374Y633D01*
X1378Y633D01*
X1378Y631D01*
X1380Y631D01*
X1380Y629D01*
X1384Y629D01*
X1384Y627D01*
X1386Y627D01*
X1386Y625D01*
X1388Y625D01*
X1388Y623D01*
X1390Y623D01*
X1390Y621D01*
X1392Y621D01*
X1392Y617D01*
X1394Y617D01*
X1394Y615D01*
X1396Y615D01*
X1396Y613D01*
X1398Y613D01*
X1398Y609D01*
X1400Y609D01*
X1400Y603D01*
X1402Y603D01*
X1402Y597D01*
X1404Y597D01*
X1404Y571D01*
X1402Y571D01*
X1402Y565D01*
X1400Y565D01*
X1400Y559D01*
X1398Y559D01*
X1398Y557D01*
X1540Y557D01*
X1540Y559D01*
X1530Y559D01*
X1530Y561D01*
X1524Y561D01*
X1524Y563D01*
X1520Y563D01*
X1520Y565D01*
X1516Y565D01*
X1516Y567D01*
X1514Y567D01*
X1514Y569D01*
X1512Y569D01*
X1512Y571D01*
X1508Y571D01*
X1508Y573D01*
X1506Y573D01*
X1506Y575D01*
X1504Y575D01*
X1504Y577D01*
X1502Y577D01*
X1502Y581D01*
X1500Y581D01*
X1500Y583D01*
X1498Y583D01*
X1498Y585D01*
X1496Y585D01*
X1496Y589D01*
X1494Y589D01*
X1494Y593D01*
X1492Y593D01*
X1492Y597D01*
X1490Y597D01*
X1490Y605D01*
X1488Y605D01*
X1488Y631D01*
X1490Y631D01*
X1490Y637D01*
X1492Y637D01*
X1492Y643D01*
X1494Y643D01*
X1494Y647D01*
X1496Y647D01*
X1496Y649D01*
X1498Y649D01*
X1498Y653D01*
X1500Y653D01*
X1500Y655D01*
X1502Y655D01*
X1502Y657D01*
X1504Y657D01*
X1504Y715D01*
X1502Y715D01*
X1502Y717D01*
X1500Y717D01*
X1500Y719D01*
X1498Y719D01*
X1498Y721D01*
X1496Y721D01*
X1496Y723D01*
X1494Y723D01*
X1494Y725D01*
X1492Y725D01*
X1492Y727D01*
X1490Y727D01*
X1490Y729D01*
X1488Y729D01*
X1488Y731D01*
X1486Y731D01*
X1486Y733D01*
X1484Y733D01*
X1484Y735D01*
X1482Y735D01*
X1482Y737D01*
X1480Y737D01*
X1480Y739D01*
X872Y739D01*
X872Y741D01*
X488Y741D01*
X488Y743D01*
X480Y743D01*
X480Y745D01*
X478Y745D01*
X478Y747D01*
X474Y747D01*
X474Y749D01*
X470Y749D01*
X470Y751D01*
X468Y751D01*
X468Y753D01*
X466Y753D01*
X466Y755D01*
X464Y755D01*
X464Y757D01*
X462Y757D01*
X462Y759D01*
X460Y759D01*
X460Y761D01*
X458Y761D01*
X458Y763D01*
X456Y763D01*
X456Y765D01*
X454Y765D01*
X454Y767D01*
X452Y767D01*
X452Y769D01*
X450Y769D01*
X450Y771D01*
X448Y771D01*
X448Y773D01*
X446Y773D01*
X446Y775D01*
X444Y775D01*
X444Y777D01*
X442Y777D01*
X442Y779D01*
X440Y779D01*
X440Y781D01*
X438Y781D01*
X438Y783D01*
X436Y783D01*
X436Y785D01*
X434Y785D01*
X434Y787D01*
X432Y787D01*
X432Y789D01*
X430Y789D01*
X430Y791D01*
X428Y791D01*
X428Y793D01*
X426Y793D01*
X426Y795D01*
X424Y795D01*
X424Y797D01*
X422Y797D01*
X422Y799D01*
X420Y799D01*
X420Y801D01*
X418Y801D01*
X418Y803D01*
X416Y803D01*
X416Y805D01*
X414Y805D01*
X414Y807D01*
X412Y807D01*
X412Y811D01*
X410Y811D01*
X410Y815D01*
X408Y815D01*
X408Y819D01*
X406Y819D01*
X406Y827D01*
X404Y827D01*
X404Y919D01*
X142Y919D01*
G37*
D02*
G36*
X142Y653D02*
X142Y515D01*
X234Y515D01*
X234Y517D01*
X226Y517D01*
X226Y519D01*
X220Y519D01*
X220Y521D01*
X216Y521D01*
X216Y523D01*
X212Y523D01*
X212Y525D01*
X210Y525D01*
X210Y527D01*
X206Y527D01*
X206Y529D01*
X204Y529D01*
X204Y531D01*
X202Y531D01*
X202Y533D01*
X200Y533D01*
X200Y535D01*
X198Y535D01*
X198Y537D01*
X196Y537D01*
X196Y539D01*
X194Y539D01*
X194Y541D01*
X192Y541D01*
X192Y543D01*
X190Y543D01*
X190Y547D01*
X188Y547D01*
X188Y551D01*
X186Y551D01*
X186Y553D01*
X184Y553D01*
X184Y559D01*
X182Y559D01*
X182Y565D01*
X180Y565D01*
X180Y573D01*
X178Y573D01*
X178Y595D01*
X180Y595D01*
X180Y605D01*
X182Y605D01*
X182Y609D01*
X184Y609D01*
X184Y615D01*
X186Y615D01*
X186Y619D01*
X188Y619D01*
X188Y621D01*
X190Y621D01*
X190Y625D01*
X192Y625D01*
X192Y627D01*
X194Y627D01*
X194Y629D01*
X196Y629D01*
X196Y631D01*
X198Y631D01*
X198Y633D01*
X200Y633D01*
X200Y635D01*
X202Y635D01*
X202Y637D01*
X204Y637D01*
X204Y639D01*
X206Y639D01*
X206Y641D01*
X210Y641D01*
X210Y643D01*
X212Y643D01*
X212Y645D01*
X216Y645D01*
X216Y647D01*
X220Y647D01*
X220Y649D01*
X226Y649D01*
X226Y651D01*
X234Y651D01*
X234Y653D01*
X142Y653D01*
G37*
D02*
G36*
X288Y641D02*
X288Y639D01*
X292Y639D01*
X292Y637D01*
X294Y637D01*
X294Y635D01*
X296Y635D01*
X296Y633D01*
X298Y633D01*
X298Y631D01*
X300Y631D01*
X300Y629D01*
X1314Y629D01*
X1314Y631D01*
X1316Y631D01*
X1316Y633D01*
X1320Y633D01*
X1320Y635D01*
X1324Y635D01*
X1324Y637D01*
X1330Y637D01*
X1330Y639D01*
X1338Y639D01*
X1338Y641D01*
X288Y641D01*
G37*
D02*
G36*
X1396Y557D02*
X1396Y555D01*
X1716Y555D01*
X1716Y557D01*
X1396Y557D01*
G37*
D02*
G36*
X1396Y557D02*
X1396Y555D01*
X1716Y555D01*
X1716Y557D01*
X1396Y557D01*
G37*
D02*
G36*
X1396Y555D02*
X1396Y553D01*
X1394Y553D01*
X1394Y551D01*
X1392Y551D01*
X1392Y547D01*
X1390Y547D01*
X1390Y545D01*
X1388Y545D01*
X1388Y543D01*
X1386Y543D01*
X1386Y541D01*
X1384Y541D01*
X1384Y539D01*
X1380Y539D01*
X1380Y537D01*
X1378Y537D01*
X1378Y535D01*
X1374Y535D01*
X1374Y533D01*
X1370Y533D01*
X1370Y531D01*
X1366Y531D01*
X1366Y529D01*
X1356Y529D01*
X1356Y527D01*
X1716Y527D01*
X1716Y555D01*
X1396Y555D01*
G37*
D02*
G36*
X302Y541D02*
X302Y539D01*
X300Y539D01*
X300Y537D01*
X298Y537D01*
X298Y535D01*
X296Y535D01*
X296Y533D01*
X294Y533D01*
X294Y531D01*
X290Y531D01*
X290Y529D01*
X288Y529D01*
X288Y527D01*
X286Y527D01*
X286Y525D01*
X282Y525D01*
X282Y523D01*
X278Y523D01*
X278Y521D01*
X274Y521D01*
X274Y519D01*
X268Y519D01*
X268Y517D01*
X260Y517D01*
X260Y515D01*
X1004Y515D01*
X1004Y541D01*
X302Y541D01*
G37*
D02*
G36*
X1092Y541D02*
X1092Y527D01*
X1338Y527D01*
X1338Y529D01*
X1330Y529D01*
X1330Y531D01*
X1324Y531D01*
X1324Y533D01*
X1320Y533D01*
X1320Y535D01*
X1318Y535D01*
X1318Y537D01*
X1314Y537D01*
X1314Y539D01*
X1312Y539D01*
X1312Y541D01*
X1092Y541D01*
G37*
D02*
G36*
X1092Y527D02*
X1092Y525D01*
X1716Y525D01*
X1716Y527D01*
X1092Y527D01*
G37*
D02*
G36*
X1092Y527D02*
X1092Y525D01*
X1716Y525D01*
X1716Y527D01*
X1092Y527D01*
G37*
D02*
G36*
X1092Y525D02*
X1092Y441D01*
X1358Y441D01*
X1358Y439D01*
X1366Y439D01*
X1366Y437D01*
X1370Y437D01*
X1370Y435D01*
X1374Y435D01*
X1374Y433D01*
X1378Y433D01*
X1378Y431D01*
X1380Y431D01*
X1380Y429D01*
X1388Y429D01*
X1388Y427D01*
X1510Y427D01*
X1510Y425D01*
X1516Y425D01*
X1516Y423D01*
X1520Y423D01*
X1520Y421D01*
X1522Y421D01*
X1522Y419D01*
X1526Y419D01*
X1526Y417D01*
X1528Y417D01*
X1528Y415D01*
X1530Y415D01*
X1530Y413D01*
X1532Y413D01*
X1532Y411D01*
X1534Y411D01*
X1534Y409D01*
X1536Y409D01*
X1536Y407D01*
X1538Y407D01*
X1538Y405D01*
X1540Y405D01*
X1540Y403D01*
X1542Y403D01*
X1542Y401D01*
X1544Y401D01*
X1544Y399D01*
X1546Y399D01*
X1546Y397D01*
X1548Y397D01*
X1548Y395D01*
X1550Y395D01*
X1550Y393D01*
X1562Y393D01*
X1562Y391D01*
X1570Y391D01*
X1570Y389D01*
X1574Y389D01*
X1574Y387D01*
X1578Y387D01*
X1578Y385D01*
X1580Y385D01*
X1580Y383D01*
X1584Y383D01*
X1584Y381D01*
X1586Y381D01*
X1586Y379D01*
X1588Y379D01*
X1588Y377D01*
X1590Y377D01*
X1590Y375D01*
X1592Y375D01*
X1592Y373D01*
X1594Y373D01*
X1594Y371D01*
X1596Y371D01*
X1596Y367D01*
X1598Y367D01*
X1598Y365D01*
X1600Y365D01*
X1600Y361D01*
X1602Y361D01*
X1602Y357D01*
X1604Y357D01*
X1604Y351D01*
X1606Y351D01*
X1606Y341D01*
X1608Y341D01*
X1608Y327D01*
X1606Y327D01*
X1606Y317D01*
X1604Y317D01*
X1604Y311D01*
X1602Y311D01*
X1602Y307D01*
X1600Y307D01*
X1600Y303D01*
X1598Y303D01*
X1598Y301D01*
X1596Y301D01*
X1596Y299D01*
X1594Y299D01*
X1594Y295D01*
X1592Y295D01*
X1592Y293D01*
X1590Y293D01*
X1590Y291D01*
X1588Y291D01*
X1588Y289D01*
X1586Y289D01*
X1586Y287D01*
X1582Y287D01*
X1582Y285D01*
X1580Y285D01*
X1580Y283D01*
X1576Y283D01*
X1576Y281D01*
X1574Y281D01*
X1574Y279D01*
X1568Y279D01*
X1568Y277D01*
X1562Y277D01*
X1562Y275D01*
X1716Y275D01*
X1716Y525D01*
X1092Y525D01*
G37*
D02*
G36*
X142Y515D02*
X142Y513D01*
X1004Y513D01*
X1004Y515D01*
X142Y515D01*
G37*
D02*
G36*
X142Y515D02*
X142Y513D01*
X1004Y513D01*
X1004Y515D01*
X142Y515D01*
G37*
D02*
G36*
X142Y513D02*
X142Y457D01*
X256Y457D01*
X256Y455D01*
X266Y455D01*
X266Y453D01*
X272Y453D01*
X272Y451D01*
X278Y451D01*
X278Y449D01*
X282Y449D01*
X282Y447D01*
X284Y447D01*
X284Y445D01*
X288Y445D01*
X288Y443D01*
X290Y443D01*
X290Y441D01*
X292Y441D01*
X292Y439D01*
X294Y439D01*
X294Y437D01*
X298Y437D01*
X298Y433D01*
X300Y433D01*
X300Y431D01*
X460Y431D01*
X460Y429D01*
X788Y429D01*
X788Y427D01*
X858Y427D01*
X858Y425D01*
X864Y425D01*
X864Y423D01*
X868Y423D01*
X868Y421D01*
X872Y421D01*
X872Y419D01*
X874Y419D01*
X874Y417D01*
X878Y417D01*
X878Y415D01*
X880Y415D01*
X880Y413D01*
X882Y413D01*
X882Y411D01*
X884Y411D01*
X884Y409D01*
X886Y409D01*
X886Y407D01*
X888Y407D01*
X888Y405D01*
X890Y405D01*
X890Y403D01*
X892Y403D01*
X892Y401D01*
X894Y401D01*
X894Y399D01*
X896Y399D01*
X896Y397D01*
X898Y397D01*
X898Y395D01*
X900Y395D01*
X900Y393D01*
X902Y393D01*
X902Y391D01*
X904Y391D01*
X904Y389D01*
X906Y389D01*
X906Y387D01*
X908Y387D01*
X908Y385D01*
X910Y385D01*
X910Y383D01*
X912Y383D01*
X912Y381D01*
X914Y381D01*
X914Y379D01*
X916Y379D01*
X916Y377D01*
X918Y377D01*
X918Y375D01*
X920Y375D01*
X920Y373D01*
X922Y373D01*
X922Y371D01*
X924Y371D01*
X924Y369D01*
X926Y369D01*
X926Y367D01*
X928Y367D01*
X928Y363D01*
X930Y363D01*
X930Y361D01*
X932Y361D01*
X932Y359D01*
X934Y359D01*
X934Y355D01*
X936Y355D01*
X936Y351D01*
X938Y351D01*
X938Y345D01*
X940Y345D01*
X940Y263D01*
X942Y263D01*
X942Y237D01*
X944Y237D01*
X944Y235D01*
X946Y235D01*
X946Y233D01*
X948Y233D01*
X948Y231D01*
X950Y231D01*
X950Y229D01*
X952Y229D01*
X952Y225D01*
X954Y225D01*
X954Y223D01*
X956Y223D01*
X956Y219D01*
X958Y219D01*
X958Y217D01*
X960Y217D01*
X960Y213D01*
X962Y213D01*
X962Y207D01*
X982Y207D01*
X982Y209D01*
X984Y209D01*
X984Y215D01*
X986Y215D01*
X986Y219D01*
X988Y219D01*
X988Y221D01*
X990Y221D01*
X990Y225D01*
X992Y225D01*
X992Y227D01*
X994Y227D01*
X994Y229D01*
X996Y229D01*
X996Y231D01*
X998Y231D01*
X998Y233D01*
X1000Y233D01*
X1000Y235D01*
X1002Y235D01*
X1002Y237D01*
X1004Y237D01*
X1004Y513D01*
X142Y513D01*
G37*
D02*
G36*
X142Y457D02*
X142Y451D01*
X144Y451D01*
X144Y449D01*
X146Y449D01*
X146Y447D01*
X148Y447D01*
X148Y445D01*
X150Y445D01*
X150Y443D01*
X152Y443D01*
X152Y441D01*
X154Y441D01*
X154Y439D01*
X156Y439D01*
X156Y437D01*
X158Y437D01*
X158Y435D01*
X160Y435D01*
X160Y433D01*
X162Y433D01*
X162Y431D01*
X164Y431D01*
X164Y429D01*
X192Y429D01*
X192Y431D01*
X194Y431D01*
X194Y433D01*
X196Y433D01*
X196Y435D01*
X198Y435D01*
X198Y437D01*
X200Y437D01*
X200Y439D01*
X202Y439D01*
X202Y441D01*
X204Y441D01*
X204Y443D01*
X208Y443D01*
X208Y445D01*
X210Y445D01*
X210Y447D01*
X214Y447D01*
X214Y449D01*
X218Y449D01*
X218Y451D01*
X222Y451D01*
X222Y453D01*
X228Y453D01*
X228Y455D01*
X238Y455D01*
X238Y457D01*
X142Y457D01*
G37*
D02*
G36*
X1092Y441D02*
X1092Y327D01*
X1338Y327D01*
X1338Y329D01*
X1330Y329D01*
X1330Y331D01*
X1324Y331D01*
X1324Y333D01*
X1320Y333D01*
X1320Y335D01*
X1318Y335D01*
X1318Y337D01*
X1314Y337D01*
X1314Y339D01*
X1312Y339D01*
X1312Y341D01*
X1310Y341D01*
X1310Y343D01*
X1308Y343D01*
X1308Y345D01*
X1306Y345D01*
X1306Y347D01*
X1304Y347D01*
X1304Y349D01*
X1302Y349D01*
X1302Y351D01*
X1300Y351D01*
X1300Y355D01*
X1298Y355D01*
X1298Y357D01*
X1296Y357D01*
X1296Y361D01*
X1294Y361D01*
X1294Y367D01*
X1292Y367D01*
X1292Y377D01*
X1290Y377D01*
X1290Y391D01*
X1292Y391D01*
X1292Y401D01*
X1294Y401D01*
X1294Y407D01*
X1296Y407D01*
X1296Y411D01*
X1298Y411D01*
X1298Y413D01*
X1300Y413D01*
X1300Y417D01*
X1302Y417D01*
X1302Y419D01*
X1304Y419D01*
X1304Y421D01*
X1306Y421D01*
X1306Y425D01*
X1310Y425D01*
X1310Y427D01*
X1312Y427D01*
X1312Y429D01*
X1314Y429D01*
X1314Y431D01*
X1316Y431D01*
X1316Y433D01*
X1320Y433D01*
X1320Y435D01*
X1324Y435D01*
X1324Y437D01*
X1330Y437D01*
X1330Y439D01*
X1338Y439D01*
X1338Y441D01*
X1092Y441D01*
G37*
D02*
G36*
X40Y415D02*
X40Y339D01*
X142Y339D01*
X142Y341D01*
X134Y341D01*
X134Y343D01*
X128Y343D01*
X128Y345D01*
X124Y345D01*
X124Y347D01*
X122Y347D01*
X122Y349D01*
X120Y349D01*
X120Y351D01*
X116Y351D01*
X116Y353D01*
X114Y353D01*
X114Y357D01*
X112Y357D01*
X112Y359D01*
X110Y359D01*
X110Y361D01*
X108Y361D01*
X108Y363D01*
X106Y363D01*
X106Y365D01*
X104Y365D01*
X104Y367D01*
X102Y367D01*
X102Y369D01*
X100Y369D01*
X100Y371D01*
X98Y371D01*
X98Y373D01*
X96Y373D01*
X96Y375D01*
X94Y375D01*
X94Y377D01*
X92Y377D01*
X92Y379D01*
X90Y379D01*
X90Y381D01*
X88Y381D01*
X88Y383D01*
X86Y383D01*
X86Y385D01*
X84Y385D01*
X84Y387D01*
X82Y387D01*
X82Y389D01*
X80Y389D01*
X80Y391D01*
X78Y391D01*
X78Y393D01*
X76Y393D01*
X76Y395D01*
X74Y395D01*
X74Y397D01*
X72Y397D01*
X72Y399D01*
X70Y399D01*
X70Y401D01*
X68Y401D01*
X68Y403D01*
X66Y403D01*
X66Y407D01*
X64Y407D01*
X64Y409D01*
X62Y409D01*
X62Y411D01*
X60Y411D01*
X60Y415D01*
X40Y415D01*
G37*
D02*
G36*
X300Y343D02*
X300Y341D01*
X298Y341D01*
X298Y339D01*
X296Y339D01*
X296Y337D01*
X294Y337D01*
X294Y335D01*
X292Y335D01*
X292Y333D01*
X290Y333D01*
X290Y331D01*
X286Y331D01*
X286Y329D01*
X284Y329D01*
X284Y327D01*
X280Y327D01*
X280Y325D01*
X276Y325D01*
X276Y323D01*
X272Y323D01*
X272Y321D01*
X264Y321D01*
X264Y319D01*
X252Y319D01*
X252Y317D01*
X850Y317D01*
X850Y319D01*
X848Y319D01*
X848Y321D01*
X846Y321D01*
X846Y323D01*
X844Y323D01*
X844Y325D01*
X842Y325D01*
X842Y327D01*
X840Y327D01*
X840Y329D01*
X838Y329D01*
X838Y331D01*
X836Y331D01*
X836Y333D01*
X834Y333D01*
X834Y335D01*
X832Y335D01*
X832Y337D01*
X830Y337D01*
X830Y339D01*
X786Y339D01*
X786Y341D01*
X458Y341D01*
X458Y343D01*
X300Y343D01*
G37*
D02*
G36*
X158Y341D02*
X158Y339D01*
X196Y339D01*
X196Y341D01*
X158Y341D01*
G37*
D02*
G36*
X40Y339D02*
X40Y337D01*
X198Y337D01*
X198Y339D01*
X40Y339D01*
G37*
D02*
G36*
X40Y339D02*
X40Y337D01*
X198Y337D01*
X198Y339D01*
X40Y339D01*
G37*
D02*
G36*
X1380Y339D02*
X1380Y337D01*
X1378Y337D01*
X1378Y335D01*
X1374Y335D01*
X1374Y333D01*
X1370Y333D01*
X1370Y331D01*
X1366Y331D01*
X1366Y329D01*
X1356Y329D01*
X1356Y327D01*
X1488Y327D01*
X1488Y333D01*
X1486Y333D01*
X1486Y335D01*
X1484Y335D01*
X1484Y337D01*
X1482Y337D01*
X1482Y339D01*
X1380Y339D01*
G37*
D02*
G36*
X40Y337D02*
X40Y317D01*
X244Y317D01*
X244Y319D01*
X230Y319D01*
X230Y321D01*
X224Y321D01*
X224Y323D01*
X218Y323D01*
X218Y325D01*
X214Y325D01*
X214Y327D01*
X212Y327D01*
X212Y329D01*
X208Y329D01*
X208Y331D01*
X206Y331D01*
X206Y333D01*
X202Y333D01*
X202Y335D01*
X200Y335D01*
X200Y337D01*
X40Y337D01*
G37*
D02*
G36*
X1092Y327D02*
X1092Y325D01*
X1488Y325D01*
X1488Y327D01*
X1092Y327D01*
G37*
D02*
G36*
X1092Y327D02*
X1092Y325D01*
X1488Y325D01*
X1488Y327D01*
X1092Y327D01*
G37*
D02*
G36*
X1092Y325D02*
X1092Y275D01*
X1534Y275D01*
X1534Y277D01*
X1526Y277D01*
X1526Y279D01*
X1522Y279D01*
X1522Y281D01*
X1518Y281D01*
X1518Y283D01*
X1514Y283D01*
X1514Y285D01*
X1512Y285D01*
X1512Y287D01*
X1510Y287D01*
X1510Y289D01*
X1508Y289D01*
X1508Y291D01*
X1504Y291D01*
X1504Y295D01*
X1502Y295D01*
X1502Y297D01*
X1500Y297D01*
X1500Y299D01*
X1498Y299D01*
X1498Y301D01*
X1496Y301D01*
X1496Y305D01*
X1494Y305D01*
X1494Y309D01*
X1492Y309D01*
X1492Y315D01*
X1490Y315D01*
X1490Y321D01*
X1488Y321D01*
X1488Y325D01*
X1092Y325D01*
G37*
D02*
G36*
X40Y317D02*
X40Y315D01*
X852Y315D01*
X852Y317D01*
X40Y317D01*
G37*
D02*
G36*
X40Y317D02*
X40Y315D01*
X852Y315D01*
X852Y317D01*
X40Y317D01*
G37*
D02*
G36*
X40Y315D02*
X40Y259D01*
X318Y259D01*
X318Y121D01*
X866Y121D01*
X866Y123D01*
X862Y123D01*
X862Y125D01*
X860Y125D01*
X860Y127D01*
X856Y127D01*
X856Y129D01*
X854Y129D01*
X854Y131D01*
X852Y131D01*
X852Y133D01*
X850Y133D01*
X850Y135D01*
X848Y135D01*
X848Y137D01*
X846Y137D01*
X846Y139D01*
X844Y139D01*
X844Y141D01*
X842Y141D01*
X842Y143D01*
X840Y143D01*
X840Y147D01*
X838Y147D01*
X838Y151D01*
X836Y151D01*
X836Y153D01*
X834Y153D01*
X834Y159D01*
X832Y159D01*
X832Y165D01*
X830Y165D01*
X830Y173D01*
X828Y173D01*
X828Y195D01*
X830Y195D01*
X830Y205D01*
X832Y205D01*
X832Y209D01*
X834Y209D01*
X834Y215D01*
X836Y215D01*
X836Y219D01*
X838Y219D01*
X838Y221D01*
X840Y221D01*
X840Y225D01*
X842Y225D01*
X842Y227D01*
X844Y227D01*
X844Y229D01*
X846Y229D01*
X846Y231D01*
X848Y231D01*
X848Y233D01*
X850Y233D01*
X850Y235D01*
X852Y235D01*
X852Y237D01*
X854Y237D01*
X854Y259D01*
X852Y259D01*
X852Y315D01*
X40Y315D01*
G37*
D02*
G36*
X1092Y275D02*
X1092Y273D01*
X1716Y273D01*
X1716Y275D01*
X1092Y275D01*
G37*
D02*
G36*
X1092Y275D02*
X1092Y273D01*
X1716Y273D01*
X1716Y275D01*
X1092Y275D01*
G37*
D02*
G36*
X1092Y273D02*
X1092Y237D01*
X1094Y237D01*
X1094Y235D01*
X1096Y235D01*
X1096Y233D01*
X1098Y233D01*
X1098Y231D01*
X1100Y231D01*
X1100Y229D01*
X1102Y229D01*
X1102Y225D01*
X1104Y225D01*
X1104Y223D01*
X1106Y223D01*
X1106Y219D01*
X1108Y219D01*
X1108Y217D01*
X1110Y217D01*
X1110Y213D01*
X1112Y213D01*
X1112Y207D01*
X1114Y207D01*
X1114Y199D01*
X1116Y199D01*
X1116Y169D01*
X1114Y169D01*
X1114Y161D01*
X1112Y161D01*
X1112Y155D01*
X1110Y155D01*
X1110Y151D01*
X1108Y151D01*
X1108Y149D01*
X1106Y149D01*
X1106Y145D01*
X1104Y145D01*
X1104Y143D01*
X1102Y143D01*
X1102Y139D01*
X1100Y139D01*
X1100Y137D01*
X1098Y137D01*
X1098Y135D01*
X1096Y135D01*
X1096Y133D01*
X1094Y133D01*
X1094Y131D01*
X1090Y131D01*
X1090Y129D01*
X1088Y129D01*
X1088Y127D01*
X1086Y127D01*
X1086Y125D01*
X1082Y125D01*
X1082Y123D01*
X1078Y123D01*
X1078Y121D01*
X1074Y121D01*
X1074Y119D01*
X1068Y119D01*
X1068Y117D01*
X1060Y117D01*
X1060Y115D01*
X1770Y115D01*
X1770Y117D01*
X1768Y117D01*
X1768Y119D01*
X1766Y119D01*
X1766Y121D01*
X1764Y121D01*
X1764Y123D01*
X1762Y123D01*
X1762Y125D01*
X1760Y125D01*
X1760Y127D01*
X1758Y127D01*
X1758Y129D01*
X1756Y129D01*
X1756Y131D01*
X1754Y131D01*
X1754Y133D01*
X1752Y133D01*
X1752Y135D01*
X1750Y135D01*
X1750Y137D01*
X1748Y137D01*
X1748Y139D01*
X1746Y139D01*
X1746Y141D01*
X1744Y141D01*
X1744Y145D01*
X1742Y145D01*
X1742Y147D01*
X1740Y147D01*
X1740Y149D01*
X1738Y149D01*
X1738Y151D01*
X1736Y151D01*
X1736Y153D01*
X1734Y153D01*
X1734Y155D01*
X1732Y155D01*
X1732Y157D01*
X1730Y157D01*
X1730Y159D01*
X1728Y159D01*
X1728Y161D01*
X1726Y161D01*
X1726Y163D01*
X1724Y163D01*
X1724Y165D01*
X1722Y165D01*
X1722Y167D01*
X1720Y167D01*
X1720Y171D01*
X1718Y171D01*
X1718Y177D01*
X1716Y177D01*
X1716Y273D01*
X1092Y273D01*
G37*
D02*
G36*
X40Y259D02*
X40Y121D01*
X178Y121D01*
X178Y259D01*
X40Y259D01*
G37*
D02*
G36*
X962Y161D02*
X962Y155D01*
X960Y155D01*
X960Y151D01*
X958Y151D01*
X958Y149D01*
X956Y149D01*
X956Y145D01*
X954Y145D01*
X954Y143D01*
X952Y143D01*
X952Y139D01*
X950Y139D01*
X950Y137D01*
X948Y137D01*
X948Y135D01*
X946Y135D01*
X946Y133D01*
X944Y133D01*
X944Y131D01*
X940Y131D01*
X940Y129D01*
X938Y129D01*
X938Y127D01*
X936Y127D01*
X936Y125D01*
X932Y125D01*
X932Y123D01*
X928Y123D01*
X928Y121D01*
X924Y121D01*
X924Y119D01*
X918Y119D01*
X918Y117D01*
X910Y117D01*
X910Y115D01*
X1034Y115D01*
X1034Y117D01*
X1026Y117D01*
X1026Y119D01*
X1020Y119D01*
X1020Y121D01*
X1016Y121D01*
X1016Y123D01*
X1012Y123D01*
X1012Y125D01*
X1010Y125D01*
X1010Y127D01*
X1006Y127D01*
X1006Y129D01*
X1004Y129D01*
X1004Y131D01*
X1002Y131D01*
X1002Y133D01*
X1000Y133D01*
X1000Y135D01*
X998Y135D01*
X998Y137D01*
X996Y137D01*
X996Y139D01*
X994Y139D01*
X994Y141D01*
X992Y141D01*
X992Y143D01*
X990Y143D01*
X990Y147D01*
X988Y147D01*
X988Y151D01*
X986Y151D01*
X986Y153D01*
X984Y153D01*
X984Y159D01*
X982Y159D01*
X982Y161D01*
X962Y161D01*
G37*
D02*
G36*
X40Y121D02*
X40Y119D01*
X870Y119D01*
X870Y121D01*
X40Y121D01*
G37*
D02*
G36*
X40Y121D02*
X40Y119D01*
X870Y119D01*
X870Y121D01*
X40Y121D01*
G37*
D02*
G36*
X40Y119D02*
X40Y115D01*
X884Y115D01*
X884Y117D01*
X876Y117D01*
X876Y119D01*
X40Y119D01*
G37*
D02*
G36*
X40Y115D02*
X40Y113D01*
X1772Y113D01*
X1772Y115D01*
X40Y115D01*
G37*
D02*
G36*
X40Y115D02*
X40Y113D01*
X1772Y113D01*
X1772Y115D01*
X40Y115D01*
G37*
D02*
G36*
X40Y115D02*
X40Y113D01*
X1772Y113D01*
X1772Y115D01*
X40Y115D01*
G37*
D02*
G36*
X40Y113D02*
X40Y101D01*
X1796Y101D01*
X1796Y103D01*
X1786Y103D01*
X1786Y105D01*
X1782Y105D01*
X1782Y107D01*
X1778Y107D01*
X1778Y109D01*
X1776Y109D01*
X1776Y111D01*
X1774Y111D01*
X1774Y113D01*
X40Y113D01*
G37*
D02*
G36*
X40Y101D02*
X40Y99D01*
X2322Y99D01*
X2322Y101D01*
X40Y101D01*
G37*
D02*
G36*
X40Y101D02*
X40Y99D01*
X2322Y99D01*
X2322Y101D01*
X40Y101D01*
G37*
D02*
G36*
X40Y99D02*
X40Y41D01*
X2322Y41D01*
X2322Y99D01*
X40Y99D01*
G37*
D02*
G36*
X2124Y1265D02*
X2167Y1265D01*
X2167Y1227D01*
X2124Y1227D01*
X2124Y1265D01*
G37*
D02*
G36*
X2074Y295D02*
X2117Y295D01*
X2117Y253D01*
X2074Y253D01*
X2074Y295D01*
G37*
D02*
G36*
X2074Y219D02*
X2117Y219D01*
X2117Y177D01*
X2074Y177D01*
X2074Y219D01*
G37*
D02*
G36*
X1523Y1193D02*
X1568Y1193D01*
X1568Y1151D01*
X1523Y1151D01*
X1523Y1193D01*
G37*
D02*
G36*
X1566Y1152D02*
X1608Y1152D01*
X1608Y1107D01*
X1566Y1107D01*
X1566Y1152D01*
G37*
D02*
G36*
X723Y1447D02*
X768Y1447D01*
X768Y1405D01*
X723Y1405D01*
X723Y1447D01*
G37*
D02*
G36*
X684Y1408D02*
X726Y1408D01*
X726Y1363D01*
X684Y1363D01*
X684Y1408D01*
G37*
D02*
G36*
X764Y1408D02*
X806Y1408D01*
X806Y1363D01*
X764Y1363D01*
X764Y1408D01*
G37*
D02*
G36*
X174Y221D02*
X216Y221D01*
X216Y166D01*
X174Y166D01*
X174Y221D01*
G37*
D02*
G36*
X274Y221D02*
X318Y221D01*
X318Y166D01*
X274Y166D01*
X274Y221D01*
G37*
D02*
G36*
X274Y1019D02*
X318Y1019D01*
X318Y964D01*
X274Y964D01*
X274Y1019D01*
G37*
D02*
G04 End of Copper0*
M02*