; NON-PLATED HOLES START AT T1
; THROUGH (PLATED) HOLES START AT T100
M48
INCH
T100C0.038000
T101C0.035000
T102C0.040255
T103C0.059055
T104C0.031496
T105C0.043307
T106C0.032000
%
T100
X009474Y013839
X007474Y013839
T101
X018974Y002339
X012474Y013839
X021974Y010839
X017974Y010839
X021974Y009839
X020974Y002339
X017974Y009839
X016474Y013839
T102
X019462Y012839
X020468Y013839
X021474Y013839
X018455Y013839
X020468Y012839
X019462Y013839
X021474Y012839
X018455Y012839
T103
X002474Y013839
X002474Y001902
X002474Y003870
X008974Y001839
X010474Y001839
X002474Y009902
X002474Y005839
X002474Y011870
T104
X013474Y005839
X013474Y003839
T105
X015474Y010283
X015474Y006172
X015474Y003339
X015474Y011283
T106
X020474Y006839
X019474Y006839
X019974Y007589
T00
M30
