G04 MADE WITH FRITZING*
G04 WWW.FRITZING.ORG*
G04 DOUBLE SIDED*
G04 HOLES PLATED*
G04 CONTOUR ON CENTER OF CONTOUR VECTOR*
%ASAXBY*%
%FSLAX23Y23*%
%MOIN*%
%OFA0B0*%
%SFA1.0B1.0*%
%ADD10C,0.075000*%
%ADD11C,0.074472*%
%ADD12C,0.070925*%
%ADD13C,0.070866*%
%ADD14C,0.070000*%
%ADD15C,0.082000*%
%ADD16C,0.078000*%
%ADD17C,0.083307*%
%ADD18R,0.074472X0.074108*%
%ADD19R,0.075000X0.075000*%
%ADD20R,0.082000X0.082000*%
%ADD21R,0.083307X0.083307*%
%ADD22C,0.024000*%
%LNCOPPER0*%
G90*
G70*
G54D10*
X1802Y1242D03*
X122Y1644D03*
X1018Y1146D03*
X2052Y539D03*
X1009Y547D03*
X1612Y386D03*
X544Y247D03*
G54D11*
X2007Y1475D03*
X2007Y1575D03*
X1906Y1475D03*
X1906Y1575D03*
X1805Y1475D03*
X1805Y1575D03*
X1705Y1475D03*
X1705Y1575D03*
G54D10*
X1505Y675D03*
X1505Y375D03*
X1405Y675D03*
X1405Y375D03*
X1305Y675D03*
X1305Y375D03*
X1205Y675D03*
X1205Y375D03*
X1105Y675D03*
X1105Y375D03*
X1005Y675D03*
X1005Y375D03*
X905Y675D03*
X905Y375D03*
X805Y675D03*
X805Y375D03*
X705Y675D03*
X705Y375D03*
X605Y675D03*
X605Y375D03*
X505Y675D03*
X505Y375D03*
X405Y675D03*
X405Y375D03*
X305Y675D03*
X305Y375D03*
X205Y675D03*
X205Y375D03*
G54D12*
X562Y875D03*
G54D13*
X755Y875D03*
G54D14*
X755Y1125D03*
X755Y1025D03*
X555Y1125D03*
X555Y1025D03*
G54D10*
X1105Y825D03*
X1505Y825D03*
X1183Y1281D03*
X1183Y1025D03*
X1005Y1281D03*
X1005Y1025D03*
G54D14*
X805Y225D03*
X905Y225D03*
G54D15*
X1005Y1525D03*
X1105Y1525D03*
X1205Y1525D03*
G54D10*
X655Y1525D03*
X655Y1325D03*
X1405Y1575D03*
X1505Y1575D03*
X1505Y1375D03*
X1105Y1375D03*
X1328Y1019D03*
X1328Y1275D03*
X1505Y1019D03*
X1505Y1275D03*
G54D16*
X255Y175D03*
X355Y175D03*
X455Y175D03*
X1705Y175D03*
X1805Y175D03*
X1905Y175D03*
X2005Y175D03*
X1705Y675D03*
X1805Y675D03*
X1905Y675D03*
X2005Y675D03*
G54D17*
X155Y1525D03*
X155Y1328D03*
G54D18*
X2007Y1475D03*
X1705Y1475D03*
G54D19*
X1505Y675D03*
G54D20*
X1005Y1525D03*
G54D19*
X655Y1525D03*
X1405Y1575D03*
G54D21*
X155Y1525D03*
G54D22*
X906Y575D02*
X905Y646D01*
D02*
X855Y524D02*
X906Y575D01*
D02*
X705Y524D02*
X855Y524D01*
D02*
X705Y404D02*
X705Y524D01*
D02*
X156Y524D02*
X705Y524D01*
D02*
X255Y225D02*
X105Y325D01*
D02*
X105Y475D02*
X156Y524D01*
D02*
X105Y325D02*
X105Y475D01*
D02*
X255Y205D02*
X255Y225D01*
D02*
X1855Y774D02*
X2056Y774D01*
D02*
X2105Y1526D02*
X2056Y1575D01*
D02*
X2105Y825D02*
X2105Y1526D01*
D02*
X2056Y774D02*
X2105Y825D01*
D02*
X2056Y1575D02*
X2038Y1575D01*
D02*
X1806Y725D02*
X1855Y774D01*
D02*
X1806Y705D02*
X1806Y725D01*
D02*
X1705Y1444D02*
X1705Y705D01*
D02*
X1406Y575D02*
X1405Y646D01*
D02*
X1456Y524D02*
X1406Y575D01*
D02*
X1806Y475D02*
X1755Y524D01*
D02*
X1755Y524D02*
X1456Y524D01*
D02*
X1805Y205D02*
X1806Y475D01*
D02*
X1306Y524D02*
X1306Y646D01*
D02*
X1355Y475D02*
X1306Y524D01*
D02*
X1706Y424D02*
X1656Y475D01*
D02*
X1656Y475D02*
X1355Y475D01*
D02*
X1706Y205D02*
X1706Y424D01*
D02*
X704Y126D02*
X705Y346D01*
D02*
X755Y75D02*
X704Y126D01*
D02*
X2005Y126D02*
X1956Y75D01*
D02*
X1956Y75D02*
X755Y75D01*
D02*
X2005Y145D02*
X2005Y126D01*
D02*
X1605Y626D02*
X1656Y575D01*
D02*
X1605Y725D02*
X1605Y626D01*
D02*
X1656Y774D02*
X1605Y725D01*
D02*
X2005Y626D02*
X2005Y645D01*
D02*
X1956Y575D02*
X2005Y626D01*
D02*
X1605Y1424D02*
X1656Y1376D01*
D02*
X1656Y1376D02*
X1656Y774D01*
D02*
X1656Y575D02*
X1956Y575D01*
D02*
X1605Y1674D02*
X1605Y1424D01*
D02*
X906Y774D02*
X906Y825D01*
D02*
X905Y704D02*
X906Y774D01*
D02*
X1605Y1674D02*
X1707Y1675D01*
D02*
X1557Y1675D02*
X1605Y1674D01*
D02*
X1707Y1675D02*
X1705Y1606D01*
D02*
X1505Y1626D02*
X1557Y1675D01*
D02*
X1855Y1675D02*
X1707Y1675D01*
D02*
X1505Y1604D02*
X1505Y1626D01*
D02*
X1907Y1624D02*
X1855Y1675D01*
D02*
X1906Y1606D02*
X1907Y1624D01*
D02*
X1204Y1424D02*
X1205Y1493D01*
D02*
X1156Y1376D02*
X1204Y1424D01*
D02*
X1134Y1375D02*
X1156Y1376D01*
D02*
X906Y1475D02*
X977Y1511D01*
D02*
X906Y1325D02*
X906Y1475D01*
D02*
X906Y825D02*
X906Y1325D01*
D02*
X906Y1325D02*
X684Y1325D01*
D02*
X1256Y975D02*
X1206Y1009D01*
D02*
X1256Y875D02*
X1256Y975D01*
D02*
X1305Y826D02*
X1256Y875D01*
D02*
X1477Y825D02*
X1305Y826D01*
D02*
X1406Y1376D02*
X1477Y1375D01*
D02*
X1355Y1325D02*
X1406Y1376D01*
D02*
X1342Y1300D02*
X1355Y1325D01*
D02*
X1505Y1526D02*
X1505Y1546D01*
D02*
X1456Y1475D02*
X1505Y1526D01*
D02*
X1356Y1475D02*
X1305Y1526D01*
D02*
X1305Y1526D02*
X1238Y1525D01*
D02*
X1456Y1475D02*
X1356Y1475D01*
D02*
X805Y251D02*
X805Y346D01*
D02*
X355Y225D02*
X205Y325D01*
D02*
X205Y325D02*
X205Y346D01*
D02*
X355Y205D02*
X355Y225D01*
D02*
X704Y825D02*
X736Y856D01*
D02*
X705Y704D02*
X704Y825D01*
D02*
X605Y825D02*
X580Y855D01*
D02*
X605Y704D02*
X605Y825D01*
D02*
X906Y825D02*
X1077Y825D01*
D02*
X1505Y796D02*
X1505Y704D01*
D02*
X557Y999D02*
X561Y902D01*
D02*
X755Y999D02*
X755Y902D01*
D02*
X627Y1325D02*
X188Y1328D01*
D02*
X1875Y1475D02*
X1837Y1475D01*
D02*
X1906Y1544D02*
X1906Y1506D01*
G36*
X1846Y1436D02*
X1846Y1434D01*
X1844Y1434D01*
X1844Y1432D01*
X1842Y1432D01*
X1842Y1430D01*
X1838Y1430D01*
X1838Y1428D01*
X1836Y1428D01*
X1836Y1426D01*
X1832Y1426D01*
X1832Y1424D01*
X1828Y1424D01*
X1828Y1422D01*
X1822Y1422D01*
X1822Y1420D01*
X1814Y1420D01*
X1814Y1418D01*
X1898Y1418D01*
X1898Y1420D01*
X1888Y1420D01*
X1888Y1422D01*
X1884Y1422D01*
X1884Y1424D01*
X1880Y1424D01*
X1880Y1426D01*
X1876Y1426D01*
X1876Y1428D01*
X1872Y1428D01*
X1872Y1430D01*
X1870Y1430D01*
X1870Y1432D01*
X1868Y1432D01*
X1868Y1434D01*
X1866Y1434D01*
X1866Y1436D01*
X1846Y1436D01*
G37*
D02*
G36*
X1762Y1424D02*
X1762Y1418D01*
X1796Y1418D01*
X1796Y1420D01*
X1788Y1420D01*
X1788Y1422D01*
X1782Y1422D01*
X1782Y1424D01*
X1762Y1424D01*
G37*
D02*
G36*
X1928Y1424D02*
X1928Y1422D01*
X1924Y1422D01*
X1924Y1420D01*
X1914Y1420D01*
X1914Y1418D01*
X1950Y1418D01*
X1950Y1424D01*
X1928Y1424D01*
G37*
D02*
G36*
X1736Y1418D02*
X1736Y1416D01*
X2072Y1416D01*
X2072Y1418D01*
X1736Y1418D01*
G37*
D02*
G36*
X1736Y1418D02*
X1736Y1416D01*
X2072Y1416D01*
X2072Y1418D01*
X1736Y1418D01*
G37*
D02*
G36*
X1736Y1418D02*
X1736Y1416D01*
X2072Y1416D01*
X2072Y1418D01*
X1736Y1418D01*
G37*
D02*
G36*
X1736Y1416D02*
X1736Y1308D01*
X1970Y1308D01*
X1970Y1306D01*
X1978Y1306D01*
X1978Y1304D01*
X1984Y1304D01*
X1984Y1302D01*
X1990Y1302D01*
X1990Y1300D01*
X1994Y1300D01*
X1994Y1298D01*
X1998Y1298D01*
X1998Y1296D01*
X2000Y1296D01*
X2000Y1294D01*
X2004Y1294D01*
X2004Y1292D01*
X2006Y1292D01*
X2006Y1290D01*
X2008Y1290D01*
X2008Y1288D01*
X2010Y1288D01*
X2010Y1286D01*
X2014Y1286D01*
X2014Y1284D01*
X2016Y1284D01*
X2016Y1280D01*
X2018Y1280D01*
X2018Y1278D01*
X2020Y1278D01*
X2020Y1276D01*
X2022Y1276D01*
X2022Y1274D01*
X2024Y1274D01*
X2024Y1270D01*
X2026Y1270D01*
X2026Y1268D01*
X2028Y1268D01*
X2028Y1264D01*
X2030Y1264D01*
X2030Y1260D01*
X2032Y1260D01*
X2032Y1254D01*
X2034Y1254D01*
X2034Y1248D01*
X2036Y1248D01*
X2036Y1240D01*
X2038Y1240D01*
X2038Y1212D01*
X2036Y1212D01*
X2036Y1202D01*
X2034Y1202D01*
X2034Y1196D01*
X2032Y1196D01*
X2032Y1192D01*
X2030Y1192D01*
X2030Y1188D01*
X2028Y1188D01*
X2028Y1184D01*
X2026Y1184D01*
X2026Y1180D01*
X2024Y1180D01*
X2024Y1178D01*
X2022Y1178D01*
X2022Y1174D01*
X2020Y1174D01*
X2020Y1172D01*
X2018Y1172D01*
X2018Y1170D01*
X2016Y1170D01*
X2016Y1168D01*
X2014Y1168D01*
X2014Y1166D01*
X2012Y1166D01*
X2012Y1164D01*
X2010Y1164D01*
X2010Y1162D01*
X2008Y1162D01*
X2008Y1160D01*
X2004Y1160D01*
X2004Y1158D01*
X2002Y1158D01*
X2002Y1156D01*
X2000Y1156D01*
X2000Y1154D01*
X1996Y1154D01*
X1996Y1152D01*
X1992Y1152D01*
X1992Y1150D01*
X1988Y1150D01*
X1988Y1148D01*
X1982Y1148D01*
X1982Y1146D01*
X1976Y1146D01*
X1976Y1144D01*
X1964Y1144D01*
X1964Y1142D01*
X2072Y1142D01*
X2072Y1416D01*
X1736Y1416D01*
G37*
D02*
G36*
X1736Y1308D02*
X1736Y1212D01*
X1738Y1212D01*
X1738Y1142D01*
X1946Y1142D01*
X1946Y1144D01*
X1936Y1144D01*
X1936Y1146D01*
X1928Y1146D01*
X1928Y1148D01*
X1924Y1148D01*
X1924Y1150D01*
X1918Y1150D01*
X1918Y1152D01*
X1916Y1152D01*
X1916Y1154D01*
X1912Y1154D01*
X1912Y1156D01*
X1908Y1156D01*
X1908Y1158D01*
X1906Y1158D01*
X1906Y1160D01*
X1904Y1160D01*
X1904Y1162D01*
X1900Y1162D01*
X1900Y1164D01*
X1898Y1164D01*
X1898Y1166D01*
X1896Y1166D01*
X1896Y1168D01*
X1894Y1168D01*
X1894Y1170D01*
X1892Y1170D01*
X1892Y1174D01*
X1890Y1174D01*
X1890Y1176D01*
X1888Y1176D01*
X1888Y1178D01*
X1886Y1178D01*
X1886Y1182D01*
X1884Y1182D01*
X1884Y1186D01*
X1882Y1186D01*
X1882Y1188D01*
X1880Y1188D01*
X1880Y1194D01*
X1878Y1194D01*
X1878Y1198D01*
X1876Y1198D01*
X1876Y1206D01*
X1874Y1206D01*
X1874Y1216D01*
X1872Y1216D01*
X1872Y1234D01*
X1874Y1234D01*
X1874Y1246D01*
X1876Y1246D01*
X1876Y1252D01*
X1878Y1252D01*
X1878Y1258D01*
X1880Y1258D01*
X1880Y1262D01*
X1882Y1262D01*
X1882Y1266D01*
X1884Y1266D01*
X1884Y1270D01*
X1886Y1270D01*
X1886Y1272D01*
X1888Y1272D01*
X1888Y1274D01*
X1890Y1274D01*
X1890Y1278D01*
X1892Y1278D01*
X1892Y1280D01*
X1894Y1280D01*
X1894Y1282D01*
X1896Y1282D01*
X1896Y1284D01*
X1898Y1284D01*
X1898Y1286D01*
X1900Y1286D01*
X1900Y1288D01*
X1902Y1288D01*
X1902Y1290D01*
X1904Y1290D01*
X1904Y1292D01*
X1908Y1292D01*
X1908Y1294D01*
X1910Y1294D01*
X1910Y1296D01*
X1914Y1296D01*
X1914Y1298D01*
X1918Y1298D01*
X1918Y1300D01*
X1922Y1300D01*
X1922Y1302D01*
X1926Y1302D01*
X1926Y1304D01*
X1932Y1304D01*
X1932Y1306D01*
X1942Y1306D01*
X1942Y1308D01*
X1736Y1308D01*
G37*
D02*
G36*
X1738Y1142D02*
X1738Y1140D01*
X2072Y1140D01*
X2072Y1142D01*
X1738Y1142D01*
G37*
D02*
G36*
X1738Y1142D02*
X1738Y1140D01*
X2072Y1140D01*
X2072Y1142D01*
X1738Y1142D01*
G37*
D02*
G36*
X1738Y1140D02*
X1738Y724D01*
X1740Y724D01*
X1740Y722D01*
X1742Y722D01*
X1742Y720D01*
X1744Y720D01*
X1744Y718D01*
X1766Y718D01*
X1766Y720D01*
X1768Y720D01*
X1768Y722D01*
X1770Y722D01*
X1770Y724D01*
X1774Y724D01*
X1774Y734D01*
X1776Y734D01*
X1776Y740D01*
X1778Y740D01*
X1778Y742D01*
X1780Y742D01*
X1780Y746D01*
X1782Y746D01*
X1782Y748D01*
X1784Y748D01*
X1784Y750D01*
X1786Y750D01*
X1786Y752D01*
X1788Y752D01*
X1788Y754D01*
X1790Y754D01*
X1790Y756D01*
X1792Y756D01*
X1792Y758D01*
X1794Y758D01*
X1794Y760D01*
X1796Y760D01*
X1796Y762D01*
X1798Y762D01*
X1798Y764D01*
X1800Y764D01*
X1800Y766D01*
X1802Y766D01*
X1802Y768D01*
X1804Y768D01*
X1804Y770D01*
X1806Y770D01*
X1806Y772D01*
X1808Y772D01*
X1808Y774D01*
X1810Y774D01*
X1810Y776D01*
X1812Y776D01*
X1812Y778D01*
X1814Y778D01*
X1814Y780D01*
X1816Y780D01*
X1816Y782D01*
X1818Y782D01*
X1818Y784D01*
X1820Y784D01*
X1820Y786D01*
X1822Y786D01*
X1822Y788D01*
X1824Y788D01*
X1824Y790D01*
X1826Y790D01*
X1826Y792D01*
X1828Y792D01*
X1828Y794D01*
X1830Y794D01*
X1830Y796D01*
X1832Y796D01*
X1832Y798D01*
X1834Y798D01*
X1834Y800D01*
X1838Y800D01*
X1838Y802D01*
X1840Y802D01*
X1840Y804D01*
X1846Y804D01*
X1846Y806D01*
X2042Y806D01*
X2042Y808D01*
X2044Y808D01*
X2044Y810D01*
X2046Y810D01*
X2046Y812D01*
X2048Y812D01*
X2048Y814D01*
X2050Y814D01*
X2050Y816D01*
X2052Y816D01*
X2052Y818D01*
X2054Y818D01*
X2054Y820D01*
X2056Y820D01*
X2056Y822D01*
X2058Y822D01*
X2058Y824D01*
X2060Y824D01*
X2060Y826D01*
X2062Y826D01*
X2062Y828D01*
X2064Y828D01*
X2064Y830D01*
X2066Y830D01*
X2066Y832D01*
X2068Y832D01*
X2068Y834D01*
X2070Y834D01*
X2070Y836D01*
X2072Y836D01*
X2072Y1140D01*
X1738Y1140D01*
G37*
D02*
G36*
X40Y1732D02*
X40Y1708D01*
X1860Y1708D01*
X1860Y1706D01*
X1868Y1706D01*
X1868Y1704D01*
X1872Y1704D01*
X1872Y1702D01*
X1874Y1702D01*
X1874Y1700D01*
X1876Y1700D01*
X1876Y1698D01*
X1880Y1698D01*
X1880Y1696D01*
X1882Y1696D01*
X1882Y1694D01*
X1884Y1694D01*
X1884Y1692D01*
X1886Y1692D01*
X1886Y1690D01*
X1888Y1690D01*
X1888Y1688D01*
X1890Y1688D01*
X1890Y1686D01*
X1892Y1686D01*
X1892Y1684D01*
X1894Y1684D01*
X1894Y1682D01*
X1896Y1682D01*
X1896Y1680D01*
X1898Y1680D01*
X1898Y1678D01*
X1900Y1678D01*
X1900Y1676D01*
X1902Y1676D01*
X1902Y1674D01*
X1904Y1674D01*
X1904Y1672D01*
X1906Y1672D01*
X1906Y1670D01*
X1908Y1670D01*
X1908Y1668D01*
X1910Y1668D01*
X1910Y1666D01*
X1912Y1666D01*
X1912Y1664D01*
X1914Y1664D01*
X1914Y1662D01*
X1916Y1662D01*
X1916Y1660D01*
X1918Y1660D01*
X1918Y1658D01*
X1920Y1658D01*
X1920Y1656D01*
X1922Y1656D01*
X1922Y1654D01*
X1924Y1654D01*
X1924Y1652D01*
X1926Y1652D01*
X1926Y1650D01*
X1928Y1650D01*
X1928Y1648D01*
X1930Y1648D01*
X1930Y1644D01*
X1932Y1644D01*
X1932Y1642D01*
X1934Y1642D01*
X1934Y1638D01*
X1936Y1638D01*
X1936Y1634D01*
X1938Y1634D01*
X1938Y1632D01*
X2020Y1632D01*
X2020Y1630D01*
X2026Y1630D01*
X2026Y1628D01*
X2032Y1628D01*
X2032Y1626D01*
X2036Y1626D01*
X2036Y1624D01*
X2038Y1624D01*
X2038Y1622D01*
X2040Y1622D01*
X2040Y1620D01*
X2044Y1620D01*
X2044Y1618D01*
X2046Y1618D01*
X2046Y1616D01*
X2048Y1616D01*
X2048Y1614D01*
X2050Y1614D01*
X2050Y1612D01*
X2052Y1612D01*
X2052Y1608D01*
X2056Y1608D01*
X2056Y1606D01*
X2066Y1606D01*
X2066Y1604D01*
X2072Y1604D01*
X2072Y1602D01*
X2074Y1602D01*
X2074Y1600D01*
X2076Y1600D01*
X2076Y1598D01*
X2080Y1598D01*
X2080Y1596D01*
X2082Y1596D01*
X2082Y1594D01*
X2084Y1594D01*
X2084Y1592D01*
X2086Y1592D01*
X2086Y1590D01*
X2088Y1590D01*
X2088Y1588D01*
X2090Y1588D01*
X2090Y1586D01*
X2092Y1586D01*
X2092Y1584D01*
X2094Y1584D01*
X2094Y1582D01*
X2096Y1582D01*
X2096Y1580D01*
X2098Y1580D01*
X2098Y1578D01*
X2100Y1578D01*
X2100Y1576D01*
X2102Y1576D01*
X2102Y1574D01*
X2104Y1574D01*
X2104Y1572D01*
X2124Y1572D01*
X2124Y1732D01*
X40Y1732D01*
G37*
D02*
G36*
X40Y1708D02*
X40Y1588D01*
X216Y1588D01*
X216Y1586D01*
X1218Y1586D01*
X1218Y1584D01*
X1226Y1584D01*
X1226Y1582D01*
X1230Y1582D01*
X1230Y1580D01*
X1234Y1580D01*
X1234Y1578D01*
X1238Y1578D01*
X1238Y1576D01*
X1240Y1576D01*
X1240Y1574D01*
X1244Y1574D01*
X1244Y1572D01*
X1246Y1572D01*
X1246Y1570D01*
X1248Y1570D01*
X1248Y1568D01*
X1250Y1568D01*
X1250Y1566D01*
X1252Y1566D01*
X1252Y1564D01*
X1254Y1564D01*
X1254Y1560D01*
X1256Y1560D01*
X1256Y1558D01*
X1314Y1558D01*
X1314Y1556D01*
X1320Y1556D01*
X1320Y1554D01*
X1324Y1554D01*
X1324Y1552D01*
X1326Y1552D01*
X1326Y1550D01*
X1328Y1550D01*
X1328Y1548D01*
X1348Y1548D01*
X1348Y1632D01*
X1474Y1632D01*
X1474Y1638D01*
X1476Y1638D01*
X1476Y1642D01*
X1478Y1642D01*
X1478Y1646D01*
X1480Y1646D01*
X1480Y1648D01*
X1482Y1648D01*
X1482Y1650D01*
X1484Y1650D01*
X1484Y1652D01*
X1486Y1652D01*
X1486Y1654D01*
X1488Y1654D01*
X1488Y1656D01*
X1490Y1656D01*
X1490Y1658D01*
X1492Y1658D01*
X1492Y1660D01*
X1494Y1660D01*
X1494Y1662D01*
X1496Y1662D01*
X1496Y1664D01*
X1500Y1664D01*
X1500Y1666D01*
X1502Y1666D01*
X1502Y1668D01*
X1504Y1668D01*
X1504Y1670D01*
X1506Y1670D01*
X1506Y1672D01*
X1508Y1672D01*
X1508Y1674D01*
X1510Y1674D01*
X1510Y1676D01*
X1512Y1676D01*
X1512Y1678D01*
X1514Y1678D01*
X1514Y1680D01*
X1516Y1680D01*
X1516Y1682D01*
X1518Y1682D01*
X1518Y1684D01*
X1520Y1684D01*
X1520Y1686D01*
X1522Y1686D01*
X1522Y1688D01*
X1524Y1688D01*
X1524Y1690D01*
X1526Y1690D01*
X1526Y1692D01*
X1528Y1692D01*
X1528Y1694D01*
X1530Y1694D01*
X1530Y1696D01*
X1532Y1696D01*
X1532Y1698D01*
X1536Y1698D01*
X1536Y1700D01*
X1538Y1700D01*
X1538Y1702D01*
X1540Y1702D01*
X1540Y1704D01*
X1544Y1704D01*
X1544Y1706D01*
X1552Y1706D01*
X1552Y1708D01*
X40Y1708D01*
G37*
D02*
G36*
X1578Y1708D02*
X1578Y1706D01*
X1654Y1706D01*
X1654Y1708D01*
X1578Y1708D01*
G37*
D02*
G36*
X1938Y1632D02*
X1938Y1622D01*
X1940Y1622D01*
X1940Y1620D01*
X1942Y1620D01*
X1942Y1618D01*
X1946Y1618D01*
X1946Y1616D01*
X1968Y1616D01*
X1968Y1618D01*
X1970Y1618D01*
X1970Y1620D01*
X1972Y1620D01*
X1972Y1622D01*
X1976Y1622D01*
X1976Y1624D01*
X1978Y1624D01*
X1978Y1626D01*
X1982Y1626D01*
X1982Y1628D01*
X1986Y1628D01*
X1986Y1630D01*
X1994Y1630D01*
X1994Y1632D01*
X1938Y1632D01*
G37*
D02*
G36*
X40Y1588D02*
X40Y1464D01*
X94Y1464D01*
X94Y1588D01*
X40Y1588D01*
G37*
D02*
G36*
X218Y1586D02*
X218Y1582D01*
X712Y1582D01*
X712Y1468D01*
X874Y1468D01*
X874Y1484D01*
X876Y1484D01*
X876Y1490D01*
X878Y1490D01*
X878Y1494D01*
X880Y1494D01*
X880Y1496D01*
X882Y1496D01*
X882Y1498D01*
X884Y1498D01*
X884Y1500D01*
X886Y1500D01*
X886Y1502D01*
X890Y1502D01*
X890Y1504D01*
X894Y1504D01*
X894Y1506D01*
X898Y1506D01*
X898Y1508D01*
X902Y1508D01*
X902Y1510D01*
X906Y1510D01*
X906Y1512D01*
X910Y1512D01*
X910Y1514D01*
X914Y1514D01*
X914Y1516D01*
X918Y1516D01*
X918Y1518D01*
X922Y1518D01*
X922Y1520D01*
X926Y1520D01*
X926Y1522D01*
X930Y1522D01*
X930Y1524D01*
X934Y1524D01*
X934Y1526D01*
X938Y1526D01*
X938Y1528D01*
X942Y1528D01*
X942Y1530D01*
X944Y1530D01*
X944Y1586D01*
X218Y1586D01*
G37*
D02*
G36*
X1066Y1586D02*
X1066Y1582D01*
X1086Y1582D01*
X1086Y1584D01*
X1094Y1584D01*
X1094Y1586D01*
X1066Y1586D01*
G37*
D02*
G36*
X1118Y1586D02*
X1118Y1584D01*
X1126Y1584D01*
X1126Y1582D01*
X1130Y1582D01*
X1130Y1580D01*
X1134Y1580D01*
X1134Y1578D01*
X1138Y1578D01*
X1138Y1576D01*
X1140Y1576D01*
X1140Y1574D01*
X1144Y1574D01*
X1144Y1572D01*
X1146Y1572D01*
X1146Y1570D01*
X1166Y1570D01*
X1166Y1572D01*
X1168Y1572D01*
X1168Y1574D01*
X1170Y1574D01*
X1170Y1576D01*
X1174Y1576D01*
X1174Y1578D01*
X1176Y1578D01*
X1176Y1580D01*
X1180Y1580D01*
X1180Y1582D01*
X1186Y1582D01*
X1186Y1584D01*
X1194Y1584D01*
X1194Y1586D01*
X1118Y1586D01*
G37*
D02*
G36*
X218Y1582D02*
X218Y1468D01*
X598Y1468D01*
X598Y1582D01*
X218Y1582D01*
G37*
D02*
G36*
X218Y1468D02*
X218Y1466D01*
X874Y1466D01*
X874Y1468D01*
X218Y1468D01*
G37*
D02*
G36*
X218Y1468D02*
X218Y1466D01*
X874Y1466D01*
X874Y1468D01*
X218Y1468D01*
G37*
D02*
G36*
X218Y1466D02*
X218Y1464D01*
X874Y1464D01*
X874Y1466D01*
X218Y1466D01*
G37*
D02*
G36*
X40Y1464D02*
X40Y1462D01*
X874Y1462D01*
X874Y1464D01*
X40Y1464D01*
G37*
D02*
G36*
X40Y1464D02*
X40Y1462D01*
X874Y1462D01*
X874Y1464D01*
X40Y1464D01*
G37*
D02*
G36*
X40Y1462D02*
X40Y1390D01*
X166Y1390D01*
X166Y1388D01*
X174Y1388D01*
X174Y1386D01*
X180Y1386D01*
X180Y1384D01*
X184Y1384D01*
X184Y1382D01*
X670Y1382D01*
X670Y1380D01*
X676Y1380D01*
X676Y1378D01*
X680Y1378D01*
X680Y1376D01*
X684Y1376D01*
X684Y1374D01*
X688Y1374D01*
X688Y1372D01*
X690Y1372D01*
X690Y1370D01*
X692Y1370D01*
X692Y1368D01*
X694Y1368D01*
X694Y1366D01*
X696Y1366D01*
X696Y1364D01*
X698Y1364D01*
X698Y1362D01*
X700Y1362D01*
X700Y1360D01*
X702Y1360D01*
X702Y1358D01*
X874Y1358D01*
X874Y1462D01*
X40Y1462D01*
G37*
D02*
G36*
X40Y1390D02*
X40Y1266D01*
X154Y1266D01*
X154Y1268D01*
X140Y1268D01*
X140Y1270D01*
X134Y1270D01*
X134Y1272D01*
X128Y1272D01*
X128Y1274D01*
X126Y1274D01*
X126Y1276D01*
X122Y1276D01*
X122Y1278D01*
X120Y1278D01*
X120Y1280D01*
X116Y1280D01*
X116Y1282D01*
X114Y1282D01*
X114Y1284D01*
X112Y1284D01*
X112Y1286D01*
X110Y1286D01*
X110Y1288D01*
X108Y1288D01*
X108Y1290D01*
X106Y1290D01*
X106Y1294D01*
X104Y1294D01*
X104Y1296D01*
X102Y1296D01*
X102Y1300D01*
X100Y1300D01*
X100Y1304D01*
X98Y1304D01*
X98Y1310D01*
X96Y1310D01*
X96Y1318D01*
X94Y1318D01*
X94Y1340D01*
X96Y1340D01*
X96Y1348D01*
X98Y1348D01*
X98Y1354D01*
X100Y1354D01*
X100Y1358D01*
X102Y1358D01*
X102Y1360D01*
X104Y1360D01*
X104Y1364D01*
X106Y1364D01*
X106Y1366D01*
X108Y1366D01*
X108Y1368D01*
X110Y1368D01*
X110Y1372D01*
X112Y1372D01*
X112Y1374D01*
X116Y1374D01*
X116Y1376D01*
X118Y1376D01*
X118Y1378D01*
X120Y1378D01*
X120Y1380D01*
X124Y1380D01*
X124Y1382D01*
X126Y1382D01*
X126Y1384D01*
X130Y1384D01*
X130Y1386D01*
X136Y1386D01*
X136Y1388D01*
X144Y1388D01*
X144Y1390D01*
X40Y1390D01*
G37*
D02*
G36*
X188Y1382D02*
X188Y1380D01*
X190Y1380D01*
X190Y1378D01*
X194Y1378D01*
X194Y1376D01*
X196Y1376D01*
X196Y1374D01*
X198Y1374D01*
X198Y1372D01*
X200Y1372D01*
X200Y1370D01*
X202Y1370D01*
X202Y1368D01*
X204Y1368D01*
X204Y1364D01*
X206Y1364D01*
X206Y1362D01*
X208Y1362D01*
X208Y1360D01*
X404Y1360D01*
X404Y1358D01*
X610Y1358D01*
X610Y1362D01*
X612Y1362D01*
X612Y1364D01*
X614Y1364D01*
X614Y1366D01*
X616Y1366D01*
X616Y1368D01*
X618Y1368D01*
X618Y1370D01*
X620Y1370D01*
X620Y1372D01*
X624Y1372D01*
X624Y1374D01*
X626Y1374D01*
X626Y1376D01*
X630Y1376D01*
X630Y1378D01*
X634Y1378D01*
X634Y1380D01*
X642Y1380D01*
X642Y1382D01*
X188Y1382D01*
G37*
D02*
G36*
X206Y1296D02*
X206Y1292D01*
X204Y1292D01*
X204Y1290D01*
X202Y1290D01*
X202Y1288D01*
X200Y1288D01*
X200Y1286D01*
X198Y1286D01*
X198Y1284D01*
X196Y1284D01*
X196Y1282D01*
X194Y1282D01*
X194Y1280D01*
X192Y1280D01*
X192Y1278D01*
X188Y1278D01*
X188Y1276D01*
X186Y1276D01*
X186Y1274D01*
X182Y1274D01*
X182Y1272D01*
X178Y1272D01*
X178Y1270D01*
X170Y1270D01*
X170Y1268D01*
X646Y1268D01*
X646Y1270D01*
X638Y1270D01*
X638Y1272D01*
X632Y1272D01*
X632Y1274D01*
X628Y1274D01*
X628Y1276D01*
X624Y1276D01*
X624Y1278D01*
X622Y1278D01*
X622Y1280D01*
X620Y1280D01*
X620Y1282D01*
X616Y1282D01*
X616Y1284D01*
X614Y1284D01*
X614Y1286D01*
X612Y1286D01*
X612Y1290D01*
X610Y1290D01*
X610Y1292D01*
X608Y1292D01*
X608Y1294D01*
X402Y1294D01*
X402Y1296D01*
X206Y1296D01*
G37*
D02*
G36*
X702Y1294D02*
X702Y1290D01*
X700Y1290D01*
X700Y1288D01*
X698Y1288D01*
X698Y1286D01*
X696Y1286D01*
X696Y1284D01*
X694Y1284D01*
X694Y1282D01*
X692Y1282D01*
X692Y1280D01*
X688Y1280D01*
X688Y1278D01*
X686Y1278D01*
X686Y1276D01*
X682Y1276D01*
X682Y1274D01*
X678Y1274D01*
X678Y1272D01*
X674Y1272D01*
X674Y1270D01*
X666Y1270D01*
X666Y1268D01*
X874Y1268D01*
X874Y1294D01*
X702Y1294D01*
G37*
D02*
G36*
X156Y1268D02*
X156Y1266D01*
X874Y1266D01*
X874Y1268D01*
X156Y1268D01*
G37*
D02*
G36*
X156Y1268D02*
X156Y1266D01*
X874Y1266D01*
X874Y1268D01*
X156Y1268D01*
G37*
D02*
G36*
X40Y1266D02*
X40Y1264D01*
X874Y1264D01*
X874Y1266D01*
X40Y1266D01*
G37*
D02*
G36*
X40Y1266D02*
X40Y1264D01*
X874Y1264D01*
X874Y1266D01*
X40Y1266D01*
G37*
D02*
G36*
X40Y1264D02*
X40Y1180D01*
X768Y1180D01*
X768Y1178D01*
X774Y1178D01*
X774Y1176D01*
X778Y1176D01*
X778Y1174D01*
X782Y1174D01*
X782Y1172D01*
X786Y1172D01*
X786Y1170D01*
X788Y1170D01*
X788Y1168D01*
X790Y1168D01*
X790Y1166D01*
X794Y1166D01*
X794Y1164D01*
X796Y1164D01*
X796Y1160D01*
X798Y1160D01*
X798Y1158D01*
X800Y1158D01*
X800Y1156D01*
X802Y1156D01*
X802Y1152D01*
X804Y1152D01*
X804Y1148D01*
X806Y1148D01*
X806Y1144D01*
X808Y1144D01*
X808Y1136D01*
X810Y1136D01*
X810Y1114D01*
X808Y1114D01*
X808Y1106D01*
X806Y1106D01*
X806Y1102D01*
X804Y1102D01*
X804Y1098D01*
X802Y1098D01*
X802Y1094D01*
X800Y1094D01*
X800Y1092D01*
X798Y1092D01*
X798Y1090D01*
X796Y1090D01*
X796Y1088D01*
X794Y1088D01*
X794Y1086D01*
X792Y1086D01*
X792Y1066D01*
X794Y1066D01*
X794Y1064D01*
X796Y1064D01*
X796Y1060D01*
X798Y1060D01*
X798Y1058D01*
X800Y1058D01*
X800Y1056D01*
X802Y1056D01*
X802Y1052D01*
X804Y1052D01*
X804Y1048D01*
X806Y1048D01*
X806Y1044D01*
X808Y1044D01*
X808Y1036D01*
X810Y1036D01*
X810Y1014D01*
X808Y1014D01*
X808Y1006D01*
X806Y1006D01*
X806Y1002D01*
X804Y1002D01*
X804Y998D01*
X802Y998D01*
X802Y994D01*
X800Y994D01*
X800Y992D01*
X798Y992D01*
X798Y990D01*
X796Y990D01*
X796Y988D01*
X794Y988D01*
X794Y986D01*
X792Y986D01*
X792Y984D01*
X790Y984D01*
X790Y982D01*
X788Y982D01*
X788Y920D01*
X790Y920D01*
X790Y918D01*
X792Y918D01*
X792Y916D01*
X794Y916D01*
X794Y914D01*
X796Y914D01*
X796Y912D01*
X798Y912D01*
X798Y910D01*
X800Y910D01*
X800Y906D01*
X802Y906D01*
X802Y904D01*
X804Y904D01*
X804Y900D01*
X806Y900D01*
X806Y896D01*
X808Y896D01*
X808Y888D01*
X810Y888D01*
X810Y862D01*
X808Y862D01*
X808Y856D01*
X806Y856D01*
X806Y852D01*
X804Y852D01*
X804Y848D01*
X802Y848D01*
X802Y844D01*
X800Y844D01*
X800Y842D01*
X798Y842D01*
X798Y840D01*
X796Y840D01*
X796Y836D01*
X794Y836D01*
X794Y834D01*
X790Y834D01*
X790Y832D01*
X788Y832D01*
X788Y830D01*
X786Y830D01*
X786Y828D01*
X782Y828D01*
X782Y826D01*
X778Y826D01*
X778Y824D01*
X774Y824D01*
X774Y822D01*
X766Y822D01*
X766Y820D01*
X744Y820D01*
X744Y818D01*
X742Y818D01*
X742Y816D01*
X740Y816D01*
X740Y814D01*
X738Y814D01*
X738Y812D01*
X736Y812D01*
X736Y738D01*
X738Y738D01*
X738Y732D01*
X820Y732D01*
X820Y730D01*
X826Y730D01*
X826Y728D01*
X830Y728D01*
X830Y726D01*
X834Y726D01*
X834Y724D01*
X838Y724D01*
X838Y722D01*
X840Y722D01*
X840Y720D01*
X842Y720D01*
X842Y718D01*
X844Y718D01*
X844Y716D01*
X866Y716D01*
X866Y718D01*
X868Y718D01*
X868Y720D01*
X870Y720D01*
X870Y722D01*
X874Y722D01*
X874Y1264D01*
X40Y1264D01*
G37*
D02*
G36*
X40Y1180D02*
X40Y1158D01*
X120Y1158D01*
X120Y1156D01*
X128Y1156D01*
X128Y1154D01*
X134Y1154D01*
X134Y1152D01*
X140Y1152D01*
X140Y1150D01*
X144Y1150D01*
X144Y1148D01*
X148Y1148D01*
X148Y1146D01*
X150Y1146D01*
X150Y1144D01*
X154Y1144D01*
X154Y1142D01*
X156Y1142D01*
X156Y1140D01*
X158Y1140D01*
X158Y1138D01*
X160Y1138D01*
X160Y1136D01*
X164Y1136D01*
X164Y1134D01*
X166Y1134D01*
X166Y1130D01*
X168Y1130D01*
X168Y1128D01*
X170Y1128D01*
X170Y1126D01*
X172Y1126D01*
X172Y1124D01*
X174Y1124D01*
X174Y1120D01*
X176Y1120D01*
X176Y1118D01*
X178Y1118D01*
X178Y1114D01*
X180Y1114D01*
X180Y1110D01*
X182Y1110D01*
X182Y1104D01*
X184Y1104D01*
X184Y1098D01*
X186Y1098D01*
X186Y1090D01*
X188Y1090D01*
X188Y1062D01*
X186Y1062D01*
X186Y1052D01*
X184Y1052D01*
X184Y1046D01*
X182Y1046D01*
X182Y1042D01*
X180Y1042D01*
X180Y1038D01*
X178Y1038D01*
X178Y1034D01*
X176Y1034D01*
X176Y1030D01*
X174Y1030D01*
X174Y1028D01*
X172Y1028D01*
X172Y1024D01*
X170Y1024D01*
X170Y1022D01*
X168Y1022D01*
X168Y1020D01*
X166Y1020D01*
X166Y1018D01*
X164Y1018D01*
X164Y1016D01*
X162Y1016D01*
X162Y1014D01*
X160Y1014D01*
X160Y1012D01*
X158Y1012D01*
X158Y1010D01*
X154Y1010D01*
X154Y1008D01*
X152Y1008D01*
X152Y1006D01*
X150Y1006D01*
X150Y1004D01*
X146Y1004D01*
X146Y1002D01*
X142Y1002D01*
X142Y1000D01*
X138Y1000D01*
X138Y998D01*
X132Y998D01*
X132Y996D01*
X126Y996D01*
X126Y994D01*
X114Y994D01*
X114Y992D01*
X512Y992D01*
X512Y994D01*
X510Y994D01*
X510Y996D01*
X508Y996D01*
X508Y1000D01*
X506Y1000D01*
X506Y1004D01*
X504Y1004D01*
X504Y1008D01*
X502Y1008D01*
X502Y1018D01*
X500Y1018D01*
X500Y1032D01*
X502Y1032D01*
X502Y1042D01*
X504Y1042D01*
X504Y1048D01*
X506Y1048D01*
X506Y1050D01*
X508Y1050D01*
X508Y1054D01*
X510Y1054D01*
X510Y1058D01*
X512Y1058D01*
X512Y1060D01*
X514Y1060D01*
X514Y1062D01*
X516Y1062D01*
X516Y1064D01*
X518Y1064D01*
X518Y1086D01*
X516Y1086D01*
X516Y1088D01*
X514Y1088D01*
X514Y1090D01*
X512Y1090D01*
X512Y1094D01*
X510Y1094D01*
X510Y1096D01*
X508Y1096D01*
X508Y1100D01*
X506Y1100D01*
X506Y1104D01*
X504Y1104D01*
X504Y1110D01*
X502Y1110D01*
X502Y1118D01*
X500Y1118D01*
X500Y1132D01*
X502Y1132D01*
X502Y1142D01*
X504Y1142D01*
X504Y1148D01*
X506Y1148D01*
X506Y1150D01*
X508Y1150D01*
X508Y1154D01*
X510Y1154D01*
X510Y1158D01*
X512Y1158D01*
X512Y1160D01*
X514Y1160D01*
X514Y1162D01*
X516Y1162D01*
X516Y1164D01*
X518Y1164D01*
X518Y1166D01*
X520Y1166D01*
X520Y1168D01*
X522Y1168D01*
X522Y1170D01*
X524Y1170D01*
X524Y1172D01*
X528Y1172D01*
X528Y1174D01*
X532Y1174D01*
X532Y1176D01*
X536Y1176D01*
X536Y1178D01*
X544Y1178D01*
X544Y1180D01*
X40Y1180D01*
G37*
D02*
G36*
X568Y1180D02*
X568Y1178D01*
X574Y1178D01*
X574Y1176D01*
X578Y1176D01*
X578Y1174D01*
X582Y1174D01*
X582Y1172D01*
X586Y1172D01*
X586Y1170D01*
X588Y1170D01*
X588Y1168D01*
X590Y1168D01*
X590Y1166D01*
X594Y1166D01*
X594Y1164D01*
X596Y1164D01*
X596Y1160D01*
X598Y1160D01*
X598Y1158D01*
X600Y1158D01*
X600Y1156D01*
X602Y1156D01*
X602Y1152D01*
X604Y1152D01*
X604Y1148D01*
X606Y1148D01*
X606Y1144D01*
X608Y1144D01*
X608Y1136D01*
X610Y1136D01*
X610Y1114D01*
X608Y1114D01*
X608Y1106D01*
X606Y1106D01*
X606Y1102D01*
X604Y1102D01*
X604Y1098D01*
X602Y1098D01*
X602Y1094D01*
X600Y1094D01*
X600Y1092D01*
X598Y1092D01*
X598Y1090D01*
X596Y1090D01*
X596Y1088D01*
X594Y1088D01*
X594Y1086D01*
X592Y1086D01*
X592Y1066D01*
X594Y1066D01*
X594Y1064D01*
X596Y1064D01*
X596Y1060D01*
X598Y1060D01*
X598Y1058D01*
X600Y1058D01*
X600Y1056D01*
X602Y1056D01*
X602Y1052D01*
X604Y1052D01*
X604Y1048D01*
X606Y1048D01*
X606Y1044D01*
X608Y1044D01*
X608Y1036D01*
X610Y1036D01*
X610Y1014D01*
X608Y1014D01*
X608Y1006D01*
X606Y1006D01*
X606Y1002D01*
X604Y1002D01*
X604Y998D01*
X602Y998D01*
X602Y994D01*
X600Y994D01*
X600Y992D01*
X598Y992D01*
X598Y990D01*
X596Y990D01*
X596Y988D01*
X594Y988D01*
X594Y986D01*
X592Y986D01*
X592Y984D01*
X590Y984D01*
X590Y948D01*
X592Y948D01*
X592Y922D01*
X594Y922D01*
X594Y920D01*
X596Y920D01*
X596Y918D01*
X598Y918D01*
X598Y916D01*
X602Y916D01*
X602Y912D01*
X604Y912D01*
X604Y910D01*
X606Y910D01*
X606Y908D01*
X608Y908D01*
X608Y904D01*
X610Y904D01*
X610Y902D01*
X612Y902D01*
X612Y898D01*
X614Y898D01*
X614Y892D01*
X616Y892D01*
X616Y884D01*
X618Y884D01*
X618Y858D01*
X620Y858D01*
X620Y856D01*
X622Y856D01*
X622Y854D01*
X624Y854D01*
X624Y850D01*
X626Y850D01*
X626Y848D01*
X628Y848D01*
X628Y846D01*
X630Y846D01*
X630Y844D01*
X632Y844D01*
X632Y840D01*
X634Y840D01*
X634Y836D01*
X636Y836D01*
X636Y792D01*
X638Y792D01*
X638Y722D01*
X640Y722D01*
X640Y720D01*
X642Y720D01*
X642Y718D01*
X644Y718D01*
X644Y716D01*
X666Y716D01*
X666Y718D01*
X668Y718D01*
X668Y720D01*
X670Y720D01*
X670Y722D01*
X672Y722D01*
X672Y832D01*
X674Y832D01*
X674Y838D01*
X676Y838D01*
X676Y842D01*
X678Y842D01*
X678Y844D01*
X680Y844D01*
X680Y846D01*
X682Y846D01*
X682Y848D01*
X684Y848D01*
X684Y850D01*
X686Y850D01*
X686Y852D01*
X688Y852D01*
X688Y854D01*
X690Y854D01*
X690Y856D01*
X692Y856D01*
X692Y858D01*
X694Y858D01*
X694Y860D01*
X696Y860D01*
X696Y862D01*
X698Y862D01*
X698Y864D01*
X700Y864D01*
X700Y886D01*
X702Y886D01*
X702Y894D01*
X704Y894D01*
X704Y898D01*
X706Y898D01*
X706Y902D01*
X708Y902D01*
X708Y906D01*
X710Y906D01*
X710Y908D01*
X712Y908D01*
X712Y910D01*
X714Y910D01*
X714Y914D01*
X716Y914D01*
X716Y916D01*
X720Y916D01*
X720Y918D01*
X722Y918D01*
X722Y920D01*
X724Y920D01*
X724Y982D01*
X720Y982D01*
X720Y984D01*
X718Y984D01*
X718Y986D01*
X716Y986D01*
X716Y988D01*
X714Y988D01*
X714Y990D01*
X712Y990D01*
X712Y994D01*
X710Y994D01*
X710Y996D01*
X708Y996D01*
X708Y1000D01*
X706Y1000D01*
X706Y1004D01*
X704Y1004D01*
X704Y1008D01*
X702Y1008D01*
X702Y1018D01*
X700Y1018D01*
X700Y1032D01*
X702Y1032D01*
X702Y1042D01*
X704Y1042D01*
X704Y1048D01*
X706Y1048D01*
X706Y1050D01*
X708Y1050D01*
X708Y1054D01*
X710Y1054D01*
X710Y1058D01*
X712Y1058D01*
X712Y1060D01*
X714Y1060D01*
X714Y1062D01*
X716Y1062D01*
X716Y1064D01*
X718Y1064D01*
X718Y1086D01*
X716Y1086D01*
X716Y1088D01*
X714Y1088D01*
X714Y1090D01*
X712Y1090D01*
X712Y1094D01*
X710Y1094D01*
X710Y1096D01*
X708Y1096D01*
X708Y1100D01*
X706Y1100D01*
X706Y1104D01*
X704Y1104D01*
X704Y1110D01*
X702Y1110D01*
X702Y1118D01*
X700Y1118D01*
X700Y1132D01*
X702Y1132D01*
X702Y1142D01*
X704Y1142D01*
X704Y1148D01*
X706Y1148D01*
X706Y1150D01*
X708Y1150D01*
X708Y1154D01*
X710Y1154D01*
X710Y1158D01*
X712Y1158D01*
X712Y1160D01*
X714Y1160D01*
X714Y1162D01*
X716Y1162D01*
X716Y1164D01*
X718Y1164D01*
X718Y1166D01*
X720Y1166D01*
X720Y1168D01*
X722Y1168D01*
X722Y1170D01*
X724Y1170D01*
X724Y1172D01*
X728Y1172D01*
X728Y1174D01*
X732Y1174D01*
X732Y1176D01*
X736Y1176D01*
X736Y1178D01*
X744Y1178D01*
X744Y1180D01*
X568Y1180D01*
G37*
D02*
G36*
X40Y1158D02*
X40Y1144D01*
X60Y1144D01*
X60Y1146D01*
X64Y1146D01*
X64Y1148D01*
X68Y1148D01*
X68Y1150D01*
X72Y1150D01*
X72Y1152D01*
X76Y1152D01*
X76Y1154D01*
X82Y1154D01*
X82Y1156D01*
X92Y1156D01*
X92Y1158D01*
X40Y1158D01*
G37*
D02*
G36*
X40Y1006D02*
X40Y992D01*
X96Y992D01*
X96Y994D01*
X86Y994D01*
X86Y996D01*
X78Y996D01*
X78Y998D01*
X74Y998D01*
X74Y1000D01*
X68Y1000D01*
X68Y1002D01*
X66Y1002D01*
X66Y1004D01*
X62Y1004D01*
X62Y1006D01*
X40Y1006D01*
G37*
D02*
G36*
X40Y992D02*
X40Y990D01*
X512Y990D01*
X512Y992D01*
X40Y992D01*
G37*
D02*
G36*
X40Y992D02*
X40Y990D01*
X512Y990D01*
X512Y992D01*
X40Y992D01*
G37*
D02*
G36*
X40Y990D02*
X40Y732D01*
X520Y732D01*
X520Y730D01*
X526Y730D01*
X526Y728D01*
X530Y728D01*
X530Y726D01*
X534Y726D01*
X534Y724D01*
X538Y724D01*
X538Y722D01*
X540Y722D01*
X540Y720D01*
X542Y720D01*
X542Y718D01*
X544Y718D01*
X544Y716D01*
X566Y716D01*
X566Y718D01*
X568Y718D01*
X568Y720D01*
X570Y720D01*
X570Y722D01*
X574Y722D01*
X574Y788D01*
X572Y788D01*
X572Y816D01*
X570Y816D01*
X570Y818D01*
X568Y818D01*
X568Y820D01*
X552Y820D01*
X552Y822D01*
X544Y822D01*
X544Y824D01*
X540Y824D01*
X540Y826D01*
X536Y826D01*
X536Y828D01*
X532Y828D01*
X532Y830D01*
X530Y830D01*
X530Y832D01*
X528Y832D01*
X528Y834D01*
X524Y834D01*
X524Y836D01*
X522Y836D01*
X522Y838D01*
X520Y838D01*
X520Y842D01*
X518Y842D01*
X518Y844D01*
X516Y844D01*
X516Y848D01*
X514Y848D01*
X514Y850D01*
X512Y850D01*
X512Y854D01*
X510Y854D01*
X510Y860D01*
X508Y860D01*
X508Y874D01*
X506Y874D01*
X506Y878D01*
X508Y878D01*
X508Y890D01*
X510Y890D01*
X510Y896D01*
X512Y896D01*
X512Y900D01*
X514Y900D01*
X514Y904D01*
X516Y904D01*
X516Y908D01*
X518Y908D01*
X518Y910D01*
X520Y910D01*
X520Y912D01*
X522Y912D01*
X522Y914D01*
X524Y914D01*
X524Y916D01*
X526Y916D01*
X526Y918D01*
X528Y918D01*
X528Y946D01*
X526Y946D01*
X526Y980D01*
X524Y980D01*
X524Y982D01*
X520Y982D01*
X520Y984D01*
X518Y984D01*
X518Y986D01*
X516Y986D01*
X516Y988D01*
X514Y988D01*
X514Y990D01*
X40Y990D01*
G37*
D02*
G36*
X40Y732D02*
X40Y618D01*
X196Y618D01*
X196Y620D01*
X188Y620D01*
X188Y622D01*
X182Y622D01*
X182Y624D01*
X178Y624D01*
X178Y626D01*
X174Y626D01*
X174Y628D01*
X172Y628D01*
X172Y630D01*
X170Y630D01*
X170Y632D01*
X166Y632D01*
X166Y634D01*
X164Y634D01*
X164Y636D01*
X162Y636D01*
X162Y640D01*
X160Y640D01*
X160Y642D01*
X158Y642D01*
X158Y644D01*
X156Y644D01*
X156Y648D01*
X154Y648D01*
X154Y652D01*
X152Y652D01*
X152Y658D01*
X150Y658D01*
X150Y666D01*
X148Y666D01*
X148Y686D01*
X150Y686D01*
X150Y694D01*
X152Y694D01*
X152Y698D01*
X154Y698D01*
X154Y702D01*
X156Y702D01*
X156Y706D01*
X158Y706D01*
X158Y708D01*
X160Y708D01*
X160Y712D01*
X162Y712D01*
X162Y714D01*
X164Y714D01*
X164Y716D01*
X166Y716D01*
X166Y718D01*
X168Y718D01*
X168Y720D01*
X170Y720D01*
X170Y722D01*
X174Y722D01*
X174Y724D01*
X176Y724D01*
X176Y726D01*
X180Y726D01*
X180Y728D01*
X184Y728D01*
X184Y730D01*
X192Y730D01*
X192Y732D01*
X40Y732D01*
G37*
D02*
G36*
X220Y732D02*
X220Y730D01*
X226Y730D01*
X226Y728D01*
X230Y728D01*
X230Y726D01*
X234Y726D01*
X234Y724D01*
X238Y724D01*
X238Y722D01*
X240Y722D01*
X240Y720D01*
X242Y720D01*
X242Y718D01*
X244Y718D01*
X244Y716D01*
X266Y716D01*
X266Y718D01*
X268Y718D01*
X268Y720D01*
X270Y720D01*
X270Y722D01*
X274Y722D01*
X274Y724D01*
X276Y724D01*
X276Y726D01*
X280Y726D01*
X280Y728D01*
X284Y728D01*
X284Y730D01*
X292Y730D01*
X292Y732D01*
X220Y732D01*
G37*
D02*
G36*
X320Y732D02*
X320Y730D01*
X326Y730D01*
X326Y728D01*
X330Y728D01*
X330Y726D01*
X334Y726D01*
X334Y724D01*
X338Y724D01*
X338Y722D01*
X340Y722D01*
X340Y720D01*
X342Y720D01*
X342Y718D01*
X344Y718D01*
X344Y716D01*
X366Y716D01*
X366Y718D01*
X368Y718D01*
X368Y720D01*
X370Y720D01*
X370Y722D01*
X374Y722D01*
X374Y724D01*
X376Y724D01*
X376Y726D01*
X380Y726D01*
X380Y728D01*
X384Y728D01*
X384Y730D01*
X392Y730D01*
X392Y732D01*
X320Y732D01*
G37*
D02*
G36*
X420Y732D02*
X420Y730D01*
X426Y730D01*
X426Y728D01*
X430Y728D01*
X430Y726D01*
X434Y726D01*
X434Y724D01*
X438Y724D01*
X438Y722D01*
X440Y722D01*
X440Y720D01*
X442Y720D01*
X442Y718D01*
X444Y718D01*
X444Y716D01*
X466Y716D01*
X466Y718D01*
X468Y718D01*
X468Y720D01*
X470Y720D01*
X470Y722D01*
X474Y722D01*
X474Y724D01*
X476Y724D01*
X476Y726D01*
X480Y726D01*
X480Y728D01*
X484Y728D01*
X484Y730D01*
X492Y730D01*
X492Y732D01*
X420Y732D01*
G37*
D02*
G36*
X738Y732D02*
X738Y722D01*
X740Y722D01*
X740Y720D01*
X742Y720D01*
X742Y718D01*
X744Y718D01*
X744Y716D01*
X766Y716D01*
X766Y718D01*
X768Y718D01*
X768Y720D01*
X770Y720D01*
X770Y722D01*
X774Y722D01*
X774Y724D01*
X776Y724D01*
X776Y726D01*
X780Y726D01*
X780Y728D01*
X784Y728D01*
X784Y730D01*
X792Y730D01*
X792Y732D01*
X738Y732D01*
G37*
D02*
G36*
X244Y634D02*
X244Y632D01*
X242Y632D01*
X242Y630D01*
X238Y630D01*
X238Y628D01*
X236Y628D01*
X236Y626D01*
X232Y626D01*
X232Y624D01*
X228Y624D01*
X228Y622D01*
X224Y622D01*
X224Y620D01*
X216Y620D01*
X216Y618D01*
X296Y618D01*
X296Y620D01*
X288Y620D01*
X288Y622D01*
X282Y622D01*
X282Y624D01*
X278Y624D01*
X278Y626D01*
X274Y626D01*
X274Y628D01*
X272Y628D01*
X272Y630D01*
X270Y630D01*
X270Y632D01*
X266Y632D01*
X266Y634D01*
X244Y634D01*
G37*
D02*
G36*
X344Y634D02*
X344Y632D01*
X342Y632D01*
X342Y630D01*
X338Y630D01*
X338Y628D01*
X336Y628D01*
X336Y626D01*
X332Y626D01*
X332Y624D01*
X328Y624D01*
X328Y622D01*
X324Y622D01*
X324Y620D01*
X316Y620D01*
X316Y618D01*
X396Y618D01*
X396Y620D01*
X388Y620D01*
X388Y622D01*
X382Y622D01*
X382Y624D01*
X378Y624D01*
X378Y626D01*
X374Y626D01*
X374Y628D01*
X372Y628D01*
X372Y630D01*
X370Y630D01*
X370Y632D01*
X366Y632D01*
X366Y634D01*
X344Y634D01*
G37*
D02*
G36*
X444Y634D02*
X444Y632D01*
X442Y632D01*
X442Y630D01*
X438Y630D01*
X438Y628D01*
X436Y628D01*
X436Y626D01*
X432Y626D01*
X432Y624D01*
X428Y624D01*
X428Y622D01*
X424Y622D01*
X424Y620D01*
X416Y620D01*
X416Y618D01*
X496Y618D01*
X496Y620D01*
X488Y620D01*
X488Y622D01*
X482Y622D01*
X482Y624D01*
X478Y624D01*
X478Y626D01*
X474Y626D01*
X474Y628D01*
X472Y628D01*
X472Y630D01*
X470Y630D01*
X470Y632D01*
X466Y632D01*
X466Y634D01*
X444Y634D01*
G37*
D02*
G36*
X544Y634D02*
X544Y632D01*
X542Y632D01*
X542Y630D01*
X538Y630D01*
X538Y628D01*
X536Y628D01*
X536Y626D01*
X532Y626D01*
X532Y624D01*
X528Y624D01*
X528Y622D01*
X524Y622D01*
X524Y620D01*
X516Y620D01*
X516Y618D01*
X596Y618D01*
X596Y620D01*
X588Y620D01*
X588Y622D01*
X582Y622D01*
X582Y624D01*
X578Y624D01*
X578Y626D01*
X574Y626D01*
X574Y628D01*
X572Y628D01*
X572Y630D01*
X570Y630D01*
X570Y632D01*
X566Y632D01*
X566Y634D01*
X544Y634D01*
G37*
D02*
G36*
X644Y634D02*
X644Y632D01*
X642Y632D01*
X642Y630D01*
X638Y630D01*
X638Y628D01*
X636Y628D01*
X636Y626D01*
X632Y626D01*
X632Y624D01*
X628Y624D01*
X628Y622D01*
X624Y622D01*
X624Y620D01*
X616Y620D01*
X616Y618D01*
X696Y618D01*
X696Y620D01*
X688Y620D01*
X688Y622D01*
X682Y622D01*
X682Y624D01*
X678Y624D01*
X678Y626D01*
X674Y626D01*
X674Y628D01*
X672Y628D01*
X672Y630D01*
X670Y630D01*
X670Y632D01*
X666Y632D01*
X666Y634D01*
X644Y634D01*
G37*
D02*
G36*
X744Y634D02*
X744Y632D01*
X742Y632D01*
X742Y630D01*
X738Y630D01*
X738Y628D01*
X736Y628D01*
X736Y626D01*
X732Y626D01*
X732Y624D01*
X728Y624D01*
X728Y622D01*
X724Y622D01*
X724Y620D01*
X716Y620D01*
X716Y618D01*
X796Y618D01*
X796Y620D01*
X788Y620D01*
X788Y622D01*
X782Y622D01*
X782Y624D01*
X778Y624D01*
X778Y626D01*
X774Y626D01*
X774Y628D01*
X772Y628D01*
X772Y630D01*
X770Y630D01*
X770Y632D01*
X766Y632D01*
X766Y634D01*
X744Y634D01*
G37*
D02*
G36*
X844Y634D02*
X844Y632D01*
X842Y632D01*
X842Y630D01*
X838Y630D01*
X838Y628D01*
X836Y628D01*
X836Y626D01*
X832Y626D01*
X832Y624D01*
X828Y624D01*
X828Y622D01*
X824Y622D01*
X824Y620D01*
X816Y620D01*
X816Y618D01*
X874Y618D01*
X874Y628D01*
X872Y628D01*
X872Y630D01*
X870Y630D01*
X870Y632D01*
X866Y632D01*
X866Y634D01*
X844Y634D01*
G37*
D02*
G36*
X40Y618D02*
X40Y616D01*
X874Y616D01*
X874Y618D01*
X40Y618D01*
G37*
D02*
G36*
X40Y618D02*
X40Y616D01*
X874Y616D01*
X874Y618D01*
X40Y618D01*
G37*
D02*
G36*
X40Y618D02*
X40Y616D01*
X874Y616D01*
X874Y618D01*
X40Y618D01*
G37*
D02*
G36*
X40Y618D02*
X40Y616D01*
X874Y616D01*
X874Y618D01*
X40Y618D01*
G37*
D02*
G36*
X40Y618D02*
X40Y616D01*
X874Y616D01*
X874Y618D01*
X40Y618D01*
G37*
D02*
G36*
X40Y618D02*
X40Y616D01*
X874Y616D01*
X874Y618D01*
X40Y618D01*
G37*
D02*
G36*
X40Y618D02*
X40Y616D01*
X874Y616D01*
X874Y618D01*
X40Y618D01*
G37*
D02*
G36*
X40Y618D02*
X40Y616D01*
X874Y616D01*
X874Y618D01*
X40Y618D01*
G37*
D02*
G36*
X40Y616D02*
X40Y244D01*
X60Y244D01*
X60Y246D01*
X64Y246D01*
X64Y248D01*
X68Y248D01*
X68Y250D01*
X72Y250D01*
X72Y252D01*
X76Y252D01*
X76Y254D01*
X82Y254D01*
X82Y256D01*
X92Y256D01*
X92Y258D01*
X122Y258D01*
X122Y276D01*
X120Y276D01*
X120Y278D01*
X116Y278D01*
X116Y280D01*
X114Y280D01*
X114Y282D01*
X110Y282D01*
X110Y284D01*
X108Y284D01*
X108Y286D01*
X104Y286D01*
X104Y288D01*
X102Y288D01*
X102Y290D01*
X98Y290D01*
X98Y292D01*
X96Y292D01*
X96Y294D01*
X92Y294D01*
X92Y296D01*
X90Y296D01*
X90Y298D01*
X86Y298D01*
X86Y300D01*
X84Y300D01*
X84Y302D01*
X82Y302D01*
X82Y304D01*
X80Y304D01*
X80Y306D01*
X78Y306D01*
X78Y310D01*
X76Y310D01*
X76Y314D01*
X74Y314D01*
X74Y326D01*
X72Y326D01*
X72Y476D01*
X74Y476D01*
X74Y486D01*
X76Y486D01*
X76Y490D01*
X78Y490D01*
X78Y494D01*
X80Y494D01*
X80Y496D01*
X82Y496D01*
X82Y498D01*
X84Y498D01*
X84Y500D01*
X86Y500D01*
X86Y502D01*
X88Y502D01*
X88Y504D01*
X90Y504D01*
X90Y506D01*
X92Y506D01*
X92Y508D01*
X94Y508D01*
X94Y510D01*
X96Y510D01*
X96Y512D01*
X98Y512D01*
X98Y514D01*
X100Y514D01*
X100Y516D01*
X102Y516D01*
X102Y518D01*
X104Y518D01*
X104Y520D01*
X106Y520D01*
X106Y522D01*
X108Y522D01*
X108Y524D01*
X110Y524D01*
X110Y526D01*
X112Y526D01*
X112Y528D01*
X114Y528D01*
X114Y530D01*
X116Y530D01*
X116Y532D01*
X118Y532D01*
X118Y534D01*
X120Y534D01*
X120Y536D01*
X122Y536D01*
X122Y538D01*
X124Y538D01*
X124Y540D01*
X126Y540D01*
X126Y542D01*
X130Y542D01*
X130Y544D01*
X132Y544D01*
X132Y546D01*
X134Y546D01*
X134Y548D01*
X136Y548D01*
X136Y550D01*
X138Y550D01*
X138Y552D01*
X142Y552D01*
X142Y554D01*
X148Y554D01*
X148Y556D01*
X842Y556D01*
X842Y558D01*
X844Y558D01*
X844Y560D01*
X846Y560D01*
X846Y562D01*
X848Y562D01*
X848Y564D01*
X850Y564D01*
X850Y566D01*
X852Y566D01*
X852Y568D01*
X854Y568D01*
X854Y570D01*
X856Y570D01*
X856Y572D01*
X858Y572D01*
X858Y574D01*
X860Y574D01*
X860Y576D01*
X862Y576D01*
X862Y578D01*
X864Y578D01*
X864Y580D01*
X866Y580D01*
X866Y582D01*
X868Y582D01*
X868Y584D01*
X870Y584D01*
X870Y586D01*
X872Y586D01*
X872Y588D01*
X874Y588D01*
X874Y616D01*
X40Y616D01*
G37*
D02*
G36*
X1552Y1544D02*
X1552Y1540D01*
X1550Y1540D01*
X1550Y1538D01*
X1548Y1538D01*
X1548Y1536D01*
X1546Y1536D01*
X1546Y1534D01*
X1544Y1534D01*
X1544Y1532D01*
X1542Y1532D01*
X1542Y1530D01*
X1538Y1530D01*
X1538Y1524D01*
X1536Y1524D01*
X1536Y1516D01*
X1534Y1516D01*
X1534Y1512D01*
X1532Y1512D01*
X1532Y1508D01*
X1530Y1508D01*
X1530Y1506D01*
X1528Y1506D01*
X1528Y1504D01*
X1526Y1504D01*
X1526Y1502D01*
X1524Y1502D01*
X1524Y1498D01*
X1522Y1498D01*
X1522Y1496D01*
X1520Y1496D01*
X1520Y1494D01*
X1518Y1494D01*
X1518Y1492D01*
X1516Y1492D01*
X1516Y1490D01*
X1514Y1490D01*
X1514Y1488D01*
X1512Y1488D01*
X1512Y1486D01*
X1510Y1486D01*
X1510Y1484D01*
X1508Y1484D01*
X1508Y1482D01*
X1506Y1482D01*
X1506Y1480D01*
X1504Y1480D01*
X1504Y1478D01*
X1502Y1478D01*
X1502Y1476D01*
X1500Y1476D01*
X1500Y1474D01*
X1498Y1474D01*
X1498Y1472D01*
X1496Y1472D01*
X1496Y1470D01*
X1494Y1470D01*
X1494Y1468D01*
X1492Y1468D01*
X1492Y1466D01*
X1490Y1466D01*
X1490Y1464D01*
X1488Y1464D01*
X1488Y1460D01*
X1486Y1460D01*
X1486Y1458D01*
X1484Y1458D01*
X1484Y1456D01*
X1482Y1456D01*
X1482Y1454D01*
X1480Y1454D01*
X1480Y1452D01*
X1478Y1452D01*
X1478Y1450D01*
X1474Y1450D01*
X1474Y1448D01*
X1472Y1448D01*
X1472Y1446D01*
X1466Y1446D01*
X1466Y1444D01*
X1572Y1444D01*
X1572Y1544D01*
X1552Y1544D01*
G37*
D02*
G36*
X1256Y1494D02*
X1256Y1490D01*
X1254Y1490D01*
X1254Y1488D01*
X1252Y1488D01*
X1252Y1486D01*
X1250Y1486D01*
X1250Y1482D01*
X1248Y1482D01*
X1248Y1480D01*
X1244Y1480D01*
X1244Y1478D01*
X1242Y1478D01*
X1242Y1476D01*
X1240Y1476D01*
X1240Y1474D01*
X1236Y1474D01*
X1236Y1444D01*
X1346Y1444D01*
X1346Y1446D01*
X1342Y1446D01*
X1342Y1448D01*
X1338Y1448D01*
X1338Y1450D01*
X1336Y1450D01*
X1336Y1452D01*
X1334Y1452D01*
X1334Y1454D01*
X1332Y1454D01*
X1332Y1456D01*
X1330Y1456D01*
X1330Y1458D01*
X1328Y1458D01*
X1328Y1460D01*
X1326Y1460D01*
X1326Y1462D01*
X1324Y1462D01*
X1324Y1464D01*
X1322Y1464D01*
X1322Y1466D01*
X1320Y1466D01*
X1320Y1468D01*
X1318Y1468D01*
X1318Y1470D01*
X1316Y1470D01*
X1316Y1472D01*
X1314Y1472D01*
X1314Y1474D01*
X1312Y1474D01*
X1312Y1476D01*
X1310Y1476D01*
X1310Y1478D01*
X1308Y1478D01*
X1308Y1480D01*
X1306Y1480D01*
X1306Y1482D01*
X1304Y1482D01*
X1304Y1484D01*
X1302Y1484D01*
X1302Y1486D01*
X1300Y1486D01*
X1300Y1488D01*
X1298Y1488D01*
X1298Y1490D01*
X1296Y1490D01*
X1296Y1492D01*
X1294Y1492D01*
X1294Y1494D01*
X1256Y1494D01*
G37*
D02*
G36*
X1144Y1480D02*
X1144Y1478D01*
X1142Y1478D01*
X1142Y1476D01*
X1140Y1476D01*
X1140Y1474D01*
X1136Y1474D01*
X1136Y1472D01*
X1132Y1472D01*
X1132Y1470D01*
X1128Y1470D01*
X1128Y1468D01*
X1122Y1468D01*
X1122Y1466D01*
X1112Y1466D01*
X1112Y1464D01*
X1172Y1464D01*
X1172Y1476D01*
X1168Y1476D01*
X1168Y1478D01*
X1166Y1478D01*
X1166Y1480D01*
X1144Y1480D01*
G37*
D02*
G36*
X1066Y1468D02*
X1066Y1464D01*
X1098Y1464D01*
X1098Y1466D01*
X1088Y1466D01*
X1088Y1468D01*
X1066Y1468D01*
G37*
D02*
G36*
X952Y1464D02*
X952Y1462D01*
X1172Y1462D01*
X1172Y1464D01*
X952Y1464D01*
G37*
D02*
G36*
X952Y1464D02*
X952Y1462D01*
X1172Y1462D01*
X1172Y1464D01*
X952Y1464D01*
G37*
D02*
G36*
X948Y1462D02*
X948Y1460D01*
X944Y1460D01*
X944Y1458D01*
X940Y1458D01*
X940Y1456D01*
X938Y1456D01*
X938Y1432D01*
X1120Y1432D01*
X1120Y1430D01*
X1126Y1430D01*
X1126Y1428D01*
X1130Y1428D01*
X1130Y1426D01*
X1134Y1426D01*
X1134Y1424D01*
X1138Y1424D01*
X1138Y1422D01*
X1158Y1422D01*
X1158Y1424D01*
X1160Y1424D01*
X1160Y1426D01*
X1162Y1426D01*
X1162Y1428D01*
X1164Y1428D01*
X1164Y1430D01*
X1166Y1430D01*
X1166Y1432D01*
X1168Y1432D01*
X1168Y1434D01*
X1170Y1434D01*
X1170Y1436D01*
X1172Y1436D01*
X1172Y1462D01*
X948Y1462D01*
G37*
D02*
G36*
X1236Y1444D02*
X1236Y1442D01*
X1572Y1442D01*
X1572Y1444D01*
X1236Y1444D01*
G37*
D02*
G36*
X1236Y1444D02*
X1236Y1442D01*
X1572Y1442D01*
X1572Y1444D01*
X1236Y1444D01*
G37*
D02*
G36*
X1236Y1442D02*
X1236Y1432D01*
X1520Y1432D01*
X1520Y1430D01*
X1526Y1430D01*
X1526Y1428D01*
X1530Y1428D01*
X1530Y1426D01*
X1534Y1426D01*
X1534Y1424D01*
X1538Y1424D01*
X1538Y1422D01*
X1540Y1422D01*
X1540Y1420D01*
X1542Y1420D01*
X1542Y1418D01*
X1544Y1418D01*
X1544Y1416D01*
X1546Y1416D01*
X1546Y1414D01*
X1548Y1414D01*
X1548Y1412D01*
X1550Y1412D01*
X1550Y1410D01*
X1552Y1410D01*
X1552Y1408D01*
X1554Y1408D01*
X1554Y1404D01*
X1556Y1404D01*
X1556Y1400D01*
X1558Y1400D01*
X1558Y1396D01*
X1560Y1396D01*
X1560Y1390D01*
X1562Y1390D01*
X1562Y1362D01*
X1560Y1362D01*
X1560Y1354D01*
X1558Y1354D01*
X1558Y1350D01*
X1556Y1350D01*
X1556Y1346D01*
X1554Y1346D01*
X1554Y1344D01*
X1552Y1344D01*
X1552Y1340D01*
X1550Y1340D01*
X1550Y1338D01*
X1548Y1338D01*
X1548Y1336D01*
X1546Y1336D01*
X1546Y1314D01*
X1548Y1314D01*
X1548Y1312D01*
X1550Y1312D01*
X1550Y1310D01*
X1552Y1310D01*
X1552Y1308D01*
X1554Y1308D01*
X1554Y1304D01*
X1556Y1304D01*
X1556Y1300D01*
X1558Y1300D01*
X1558Y1296D01*
X1560Y1296D01*
X1560Y1290D01*
X1562Y1290D01*
X1562Y1262D01*
X1560Y1262D01*
X1560Y1254D01*
X1558Y1254D01*
X1558Y1250D01*
X1556Y1250D01*
X1556Y1246D01*
X1554Y1246D01*
X1554Y1244D01*
X1552Y1244D01*
X1552Y1240D01*
X1550Y1240D01*
X1550Y1238D01*
X1548Y1238D01*
X1548Y1236D01*
X1546Y1236D01*
X1546Y1234D01*
X1544Y1234D01*
X1544Y1232D01*
X1542Y1232D01*
X1542Y1230D01*
X1538Y1230D01*
X1538Y1228D01*
X1536Y1228D01*
X1536Y1226D01*
X1532Y1226D01*
X1532Y1224D01*
X1528Y1224D01*
X1528Y1222D01*
X1524Y1222D01*
X1524Y1220D01*
X1516Y1220D01*
X1516Y1218D01*
X1624Y1218D01*
X1624Y1362D01*
X1622Y1362D01*
X1622Y1364D01*
X1620Y1364D01*
X1620Y1366D01*
X1618Y1366D01*
X1618Y1368D01*
X1616Y1368D01*
X1616Y1370D01*
X1614Y1370D01*
X1614Y1372D01*
X1612Y1372D01*
X1612Y1374D01*
X1610Y1374D01*
X1610Y1376D01*
X1608Y1376D01*
X1608Y1378D01*
X1606Y1378D01*
X1606Y1380D01*
X1604Y1380D01*
X1604Y1382D01*
X1602Y1382D01*
X1602Y1384D01*
X1600Y1384D01*
X1600Y1386D01*
X1598Y1386D01*
X1598Y1388D01*
X1596Y1388D01*
X1596Y1390D01*
X1594Y1390D01*
X1594Y1392D01*
X1592Y1392D01*
X1592Y1394D01*
X1590Y1394D01*
X1590Y1396D01*
X1588Y1396D01*
X1588Y1398D01*
X1586Y1398D01*
X1586Y1400D01*
X1584Y1400D01*
X1584Y1402D01*
X1582Y1402D01*
X1582Y1404D01*
X1580Y1404D01*
X1580Y1406D01*
X1578Y1406D01*
X1578Y1408D01*
X1576Y1408D01*
X1576Y1412D01*
X1574Y1412D01*
X1574Y1422D01*
X1572Y1422D01*
X1572Y1442D01*
X1236Y1442D01*
G37*
D02*
G36*
X938Y1432D02*
X938Y1338D01*
X1020Y1338D01*
X1020Y1336D01*
X1026Y1336D01*
X1026Y1334D01*
X1030Y1334D01*
X1030Y1332D01*
X1034Y1332D01*
X1034Y1330D01*
X1038Y1330D01*
X1038Y1328D01*
X1040Y1328D01*
X1040Y1326D01*
X1042Y1326D01*
X1042Y1324D01*
X1044Y1324D01*
X1044Y1322D01*
X1046Y1322D01*
X1046Y1320D01*
X1048Y1320D01*
X1048Y1318D01*
X1050Y1318D01*
X1050Y1316D01*
X1052Y1316D01*
X1052Y1314D01*
X1054Y1314D01*
X1054Y1310D01*
X1056Y1310D01*
X1056Y1306D01*
X1058Y1306D01*
X1058Y1302D01*
X1060Y1302D01*
X1060Y1296D01*
X1062Y1296D01*
X1062Y1268D01*
X1060Y1268D01*
X1060Y1260D01*
X1058Y1260D01*
X1058Y1256D01*
X1056Y1256D01*
X1056Y1252D01*
X1054Y1252D01*
X1054Y1250D01*
X1052Y1250D01*
X1052Y1246D01*
X1050Y1246D01*
X1050Y1244D01*
X1048Y1244D01*
X1048Y1242D01*
X1046Y1242D01*
X1046Y1240D01*
X1044Y1240D01*
X1044Y1238D01*
X1042Y1238D01*
X1042Y1236D01*
X1040Y1236D01*
X1040Y1234D01*
X1036Y1234D01*
X1036Y1232D01*
X1034Y1232D01*
X1034Y1230D01*
X1030Y1230D01*
X1030Y1228D01*
X1024Y1228D01*
X1024Y1226D01*
X1016Y1226D01*
X1016Y1224D01*
X1172Y1224D01*
X1172Y1226D01*
X1164Y1226D01*
X1164Y1228D01*
X1158Y1228D01*
X1158Y1230D01*
X1154Y1230D01*
X1154Y1232D01*
X1152Y1232D01*
X1152Y1234D01*
X1148Y1234D01*
X1148Y1236D01*
X1146Y1236D01*
X1146Y1238D01*
X1144Y1238D01*
X1144Y1240D01*
X1142Y1240D01*
X1142Y1242D01*
X1140Y1242D01*
X1140Y1244D01*
X1138Y1244D01*
X1138Y1246D01*
X1136Y1246D01*
X1136Y1250D01*
X1134Y1250D01*
X1134Y1252D01*
X1132Y1252D01*
X1132Y1256D01*
X1130Y1256D01*
X1130Y1260D01*
X1128Y1260D01*
X1128Y1268D01*
X1126Y1268D01*
X1126Y1296D01*
X1128Y1296D01*
X1128Y1302D01*
X1130Y1302D01*
X1130Y1318D01*
X1096Y1318D01*
X1096Y1320D01*
X1088Y1320D01*
X1088Y1322D01*
X1082Y1322D01*
X1082Y1324D01*
X1078Y1324D01*
X1078Y1326D01*
X1074Y1326D01*
X1074Y1328D01*
X1072Y1328D01*
X1072Y1330D01*
X1070Y1330D01*
X1070Y1332D01*
X1066Y1332D01*
X1066Y1334D01*
X1064Y1334D01*
X1064Y1336D01*
X1062Y1336D01*
X1062Y1340D01*
X1060Y1340D01*
X1060Y1342D01*
X1058Y1342D01*
X1058Y1344D01*
X1056Y1344D01*
X1056Y1348D01*
X1054Y1348D01*
X1054Y1352D01*
X1052Y1352D01*
X1052Y1358D01*
X1050Y1358D01*
X1050Y1366D01*
X1048Y1366D01*
X1048Y1386D01*
X1050Y1386D01*
X1050Y1394D01*
X1052Y1394D01*
X1052Y1398D01*
X1054Y1398D01*
X1054Y1402D01*
X1056Y1402D01*
X1056Y1406D01*
X1058Y1406D01*
X1058Y1408D01*
X1060Y1408D01*
X1060Y1412D01*
X1062Y1412D01*
X1062Y1414D01*
X1064Y1414D01*
X1064Y1416D01*
X1066Y1416D01*
X1066Y1418D01*
X1068Y1418D01*
X1068Y1420D01*
X1070Y1420D01*
X1070Y1422D01*
X1074Y1422D01*
X1074Y1424D01*
X1076Y1424D01*
X1076Y1426D01*
X1080Y1426D01*
X1080Y1428D01*
X1084Y1428D01*
X1084Y1430D01*
X1092Y1430D01*
X1092Y1432D01*
X938Y1432D01*
G37*
D02*
G36*
X1236Y1432D02*
X1236Y1416D01*
X1234Y1416D01*
X1234Y1410D01*
X1232Y1410D01*
X1232Y1408D01*
X1230Y1408D01*
X1230Y1404D01*
X1228Y1404D01*
X1228Y1402D01*
X1226Y1402D01*
X1226Y1400D01*
X1224Y1400D01*
X1224Y1398D01*
X1222Y1398D01*
X1222Y1396D01*
X1220Y1396D01*
X1220Y1394D01*
X1218Y1394D01*
X1218Y1392D01*
X1216Y1392D01*
X1216Y1390D01*
X1214Y1390D01*
X1214Y1388D01*
X1212Y1388D01*
X1212Y1386D01*
X1210Y1386D01*
X1210Y1384D01*
X1208Y1384D01*
X1208Y1382D01*
X1206Y1382D01*
X1206Y1380D01*
X1204Y1380D01*
X1204Y1378D01*
X1202Y1378D01*
X1202Y1376D01*
X1200Y1376D01*
X1200Y1374D01*
X1198Y1374D01*
X1198Y1372D01*
X1196Y1372D01*
X1196Y1370D01*
X1194Y1370D01*
X1194Y1368D01*
X1192Y1368D01*
X1192Y1366D01*
X1190Y1366D01*
X1190Y1364D01*
X1188Y1364D01*
X1188Y1362D01*
X1186Y1362D01*
X1186Y1360D01*
X1184Y1360D01*
X1184Y1358D01*
X1182Y1358D01*
X1182Y1338D01*
X1196Y1338D01*
X1196Y1336D01*
X1202Y1336D01*
X1202Y1334D01*
X1208Y1334D01*
X1208Y1332D01*
X1212Y1332D01*
X1212Y1330D01*
X1214Y1330D01*
X1214Y1328D01*
X1218Y1328D01*
X1218Y1326D01*
X1220Y1326D01*
X1220Y1324D01*
X1222Y1324D01*
X1222Y1322D01*
X1224Y1322D01*
X1224Y1320D01*
X1226Y1320D01*
X1226Y1318D01*
X1228Y1318D01*
X1228Y1314D01*
X1230Y1314D01*
X1230Y1312D01*
X1232Y1312D01*
X1232Y1308D01*
X1234Y1308D01*
X1234Y1304D01*
X1236Y1304D01*
X1236Y1300D01*
X1238Y1300D01*
X1238Y1292D01*
X1240Y1292D01*
X1240Y1272D01*
X1238Y1272D01*
X1238Y1264D01*
X1236Y1264D01*
X1236Y1258D01*
X1234Y1258D01*
X1234Y1254D01*
X1232Y1254D01*
X1232Y1250D01*
X1230Y1250D01*
X1230Y1248D01*
X1228Y1248D01*
X1228Y1246D01*
X1226Y1246D01*
X1226Y1242D01*
X1224Y1242D01*
X1224Y1240D01*
X1222Y1240D01*
X1222Y1238D01*
X1218Y1238D01*
X1218Y1236D01*
X1216Y1236D01*
X1216Y1234D01*
X1214Y1234D01*
X1214Y1232D01*
X1210Y1232D01*
X1210Y1230D01*
X1206Y1230D01*
X1206Y1228D01*
X1202Y1228D01*
X1202Y1226D01*
X1194Y1226D01*
X1194Y1224D01*
X1300Y1224D01*
X1300Y1226D01*
X1298Y1226D01*
X1298Y1228D01*
X1294Y1228D01*
X1294Y1230D01*
X1292Y1230D01*
X1292Y1232D01*
X1290Y1232D01*
X1290Y1234D01*
X1288Y1234D01*
X1288Y1236D01*
X1286Y1236D01*
X1286Y1238D01*
X1284Y1238D01*
X1284Y1240D01*
X1282Y1240D01*
X1282Y1242D01*
X1280Y1242D01*
X1280Y1246D01*
X1278Y1246D01*
X1278Y1250D01*
X1276Y1250D01*
X1276Y1254D01*
X1274Y1254D01*
X1274Y1260D01*
X1272Y1260D01*
X1272Y1272D01*
X1270Y1272D01*
X1270Y1280D01*
X1272Y1280D01*
X1272Y1290D01*
X1274Y1290D01*
X1274Y1298D01*
X1276Y1298D01*
X1276Y1302D01*
X1278Y1302D01*
X1278Y1304D01*
X1280Y1304D01*
X1280Y1308D01*
X1282Y1308D01*
X1282Y1310D01*
X1284Y1310D01*
X1284Y1312D01*
X1286Y1312D01*
X1286Y1316D01*
X1288Y1316D01*
X1288Y1318D01*
X1292Y1318D01*
X1292Y1320D01*
X1294Y1320D01*
X1294Y1322D01*
X1296Y1322D01*
X1296Y1324D01*
X1300Y1324D01*
X1300Y1326D01*
X1304Y1326D01*
X1304Y1328D01*
X1308Y1328D01*
X1308Y1330D01*
X1314Y1330D01*
X1314Y1332D01*
X1322Y1332D01*
X1322Y1334D01*
X1324Y1334D01*
X1324Y1338D01*
X1326Y1338D01*
X1326Y1340D01*
X1328Y1340D01*
X1328Y1344D01*
X1330Y1344D01*
X1330Y1346D01*
X1332Y1346D01*
X1332Y1348D01*
X1334Y1348D01*
X1334Y1350D01*
X1336Y1350D01*
X1336Y1352D01*
X1338Y1352D01*
X1338Y1354D01*
X1340Y1354D01*
X1340Y1356D01*
X1342Y1356D01*
X1342Y1358D01*
X1344Y1358D01*
X1344Y1360D01*
X1346Y1360D01*
X1346Y1362D01*
X1348Y1362D01*
X1348Y1364D01*
X1350Y1364D01*
X1350Y1366D01*
X1352Y1366D01*
X1352Y1368D01*
X1354Y1368D01*
X1354Y1370D01*
X1356Y1370D01*
X1356Y1372D01*
X1358Y1372D01*
X1358Y1374D01*
X1360Y1374D01*
X1360Y1376D01*
X1362Y1376D01*
X1362Y1378D01*
X1364Y1378D01*
X1364Y1380D01*
X1366Y1380D01*
X1366Y1382D01*
X1368Y1382D01*
X1368Y1384D01*
X1370Y1384D01*
X1370Y1386D01*
X1372Y1386D01*
X1372Y1388D01*
X1374Y1388D01*
X1374Y1390D01*
X1376Y1390D01*
X1376Y1392D01*
X1378Y1392D01*
X1378Y1394D01*
X1380Y1394D01*
X1380Y1396D01*
X1382Y1396D01*
X1382Y1398D01*
X1384Y1398D01*
X1384Y1400D01*
X1386Y1400D01*
X1386Y1402D01*
X1388Y1402D01*
X1388Y1404D01*
X1392Y1404D01*
X1392Y1406D01*
X1398Y1406D01*
X1398Y1408D01*
X1460Y1408D01*
X1460Y1412D01*
X1462Y1412D01*
X1462Y1414D01*
X1464Y1414D01*
X1464Y1416D01*
X1466Y1416D01*
X1466Y1418D01*
X1468Y1418D01*
X1468Y1420D01*
X1470Y1420D01*
X1470Y1422D01*
X1474Y1422D01*
X1474Y1424D01*
X1476Y1424D01*
X1476Y1426D01*
X1480Y1426D01*
X1480Y1428D01*
X1484Y1428D01*
X1484Y1430D01*
X1492Y1430D01*
X1492Y1432D01*
X1236Y1432D01*
G37*
D02*
G36*
X1418Y1344D02*
X1418Y1342D01*
X1416Y1342D01*
X1416Y1340D01*
X1414Y1340D01*
X1414Y1338D01*
X1412Y1338D01*
X1412Y1336D01*
X1410Y1336D01*
X1410Y1334D01*
X1408Y1334D01*
X1408Y1332D01*
X1406Y1332D01*
X1406Y1330D01*
X1404Y1330D01*
X1404Y1328D01*
X1402Y1328D01*
X1402Y1326D01*
X1400Y1326D01*
X1400Y1324D01*
X1398Y1324D01*
X1398Y1322D01*
X1396Y1322D01*
X1396Y1320D01*
X1394Y1320D01*
X1394Y1318D01*
X1392Y1318D01*
X1392Y1316D01*
X1390Y1316D01*
X1390Y1314D01*
X1388Y1314D01*
X1388Y1312D01*
X1386Y1312D01*
X1386Y1310D01*
X1384Y1310D01*
X1384Y1284D01*
X1386Y1284D01*
X1386Y1268D01*
X1384Y1268D01*
X1384Y1258D01*
X1382Y1258D01*
X1382Y1252D01*
X1380Y1252D01*
X1380Y1248D01*
X1378Y1248D01*
X1378Y1246D01*
X1376Y1246D01*
X1376Y1242D01*
X1374Y1242D01*
X1374Y1240D01*
X1372Y1240D01*
X1372Y1238D01*
X1370Y1238D01*
X1370Y1234D01*
X1366Y1234D01*
X1366Y1232D01*
X1364Y1232D01*
X1364Y1230D01*
X1362Y1230D01*
X1362Y1228D01*
X1358Y1228D01*
X1358Y1226D01*
X1356Y1226D01*
X1356Y1224D01*
X1352Y1224D01*
X1352Y1222D01*
X1346Y1222D01*
X1346Y1220D01*
X1338Y1220D01*
X1338Y1218D01*
X1496Y1218D01*
X1496Y1220D01*
X1488Y1220D01*
X1488Y1222D01*
X1482Y1222D01*
X1482Y1224D01*
X1478Y1224D01*
X1478Y1226D01*
X1474Y1226D01*
X1474Y1228D01*
X1472Y1228D01*
X1472Y1230D01*
X1470Y1230D01*
X1470Y1232D01*
X1466Y1232D01*
X1466Y1234D01*
X1464Y1234D01*
X1464Y1236D01*
X1462Y1236D01*
X1462Y1240D01*
X1460Y1240D01*
X1460Y1242D01*
X1458Y1242D01*
X1458Y1244D01*
X1456Y1244D01*
X1456Y1248D01*
X1454Y1248D01*
X1454Y1252D01*
X1452Y1252D01*
X1452Y1258D01*
X1450Y1258D01*
X1450Y1266D01*
X1448Y1266D01*
X1448Y1286D01*
X1450Y1286D01*
X1450Y1294D01*
X1452Y1294D01*
X1452Y1298D01*
X1454Y1298D01*
X1454Y1302D01*
X1456Y1302D01*
X1456Y1306D01*
X1458Y1306D01*
X1458Y1308D01*
X1460Y1308D01*
X1460Y1312D01*
X1462Y1312D01*
X1462Y1314D01*
X1464Y1314D01*
X1464Y1336D01*
X1462Y1336D01*
X1462Y1340D01*
X1460Y1340D01*
X1460Y1342D01*
X1458Y1342D01*
X1458Y1344D01*
X1418Y1344D01*
G37*
D02*
G36*
X938Y1338D02*
X938Y1312D01*
X958Y1312D01*
X958Y1314D01*
X960Y1314D01*
X960Y1318D01*
X962Y1318D01*
X962Y1320D01*
X964Y1320D01*
X964Y1322D01*
X966Y1322D01*
X966Y1324D01*
X968Y1324D01*
X968Y1326D01*
X970Y1326D01*
X970Y1328D01*
X974Y1328D01*
X974Y1330D01*
X976Y1330D01*
X976Y1332D01*
X980Y1332D01*
X980Y1334D01*
X986Y1334D01*
X986Y1336D01*
X992Y1336D01*
X992Y1338D01*
X938Y1338D01*
G37*
D02*
G36*
X938Y1250D02*
X938Y1224D01*
X994Y1224D01*
X994Y1226D01*
X986Y1226D01*
X986Y1228D01*
X982Y1228D01*
X982Y1230D01*
X978Y1230D01*
X978Y1232D01*
X974Y1232D01*
X974Y1234D01*
X972Y1234D01*
X972Y1236D01*
X970Y1236D01*
X970Y1238D01*
X966Y1238D01*
X966Y1240D01*
X964Y1240D01*
X964Y1242D01*
X962Y1242D01*
X962Y1246D01*
X960Y1246D01*
X960Y1248D01*
X958Y1248D01*
X958Y1250D01*
X938Y1250D01*
G37*
D02*
G36*
X938Y1224D02*
X938Y1222D01*
X1304Y1222D01*
X1304Y1224D01*
X938Y1224D01*
G37*
D02*
G36*
X938Y1224D02*
X938Y1222D01*
X1304Y1222D01*
X1304Y1224D01*
X938Y1224D01*
G37*
D02*
G36*
X938Y1224D02*
X938Y1222D01*
X1304Y1222D01*
X1304Y1224D01*
X938Y1224D01*
G37*
D02*
G36*
X938Y1222D02*
X938Y1218D01*
X1318Y1218D01*
X1318Y1220D01*
X1310Y1220D01*
X1310Y1222D01*
X938Y1222D01*
G37*
D02*
G36*
X938Y1218D02*
X938Y1216D01*
X1624Y1216D01*
X1624Y1218D01*
X938Y1218D01*
G37*
D02*
G36*
X938Y1218D02*
X938Y1216D01*
X1624Y1216D01*
X1624Y1218D01*
X938Y1218D01*
G37*
D02*
G36*
X938Y1218D02*
X938Y1216D01*
X1624Y1216D01*
X1624Y1218D01*
X938Y1218D01*
G37*
D02*
G36*
X938Y1216D02*
X938Y1082D01*
X1196Y1082D01*
X1196Y1080D01*
X1204Y1080D01*
X1204Y1078D01*
X1208Y1078D01*
X1208Y1076D01*
X1520Y1076D01*
X1520Y1074D01*
X1526Y1074D01*
X1526Y1072D01*
X1530Y1072D01*
X1530Y1070D01*
X1534Y1070D01*
X1534Y1068D01*
X1538Y1068D01*
X1538Y1066D01*
X1540Y1066D01*
X1540Y1064D01*
X1542Y1064D01*
X1542Y1062D01*
X1546Y1062D01*
X1546Y1058D01*
X1548Y1058D01*
X1548Y1056D01*
X1550Y1056D01*
X1550Y1054D01*
X1552Y1054D01*
X1552Y1052D01*
X1554Y1052D01*
X1554Y1048D01*
X1556Y1048D01*
X1556Y1044D01*
X1558Y1044D01*
X1558Y1040D01*
X1560Y1040D01*
X1560Y1034D01*
X1562Y1034D01*
X1562Y1006D01*
X1560Y1006D01*
X1560Y998D01*
X1558Y998D01*
X1558Y994D01*
X1556Y994D01*
X1556Y990D01*
X1554Y990D01*
X1554Y988D01*
X1552Y988D01*
X1552Y984D01*
X1550Y984D01*
X1550Y982D01*
X1548Y982D01*
X1548Y980D01*
X1546Y980D01*
X1546Y978D01*
X1544Y978D01*
X1544Y976D01*
X1542Y976D01*
X1542Y974D01*
X1538Y974D01*
X1538Y972D01*
X1536Y972D01*
X1536Y970D01*
X1532Y970D01*
X1532Y968D01*
X1528Y968D01*
X1528Y966D01*
X1524Y966D01*
X1524Y964D01*
X1516Y964D01*
X1516Y962D01*
X1624Y962D01*
X1624Y1216D01*
X938Y1216D01*
G37*
D02*
G36*
X938Y1082D02*
X938Y1056D01*
X958Y1056D01*
X958Y1058D01*
X960Y1058D01*
X960Y1062D01*
X962Y1062D01*
X962Y1064D01*
X964Y1064D01*
X964Y1066D01*
X966Y1066D01*
X966Y1068D01*
X968Y1068D01*
X968Y1070D01*
X970Y1070D01*
X970Y1072D01*
X974Y1072D01*
X974Y1074D01*
X976Y1074D01*
X976Y1076D01*
X980Y1076D01*
X980Y1078D01*
X984Y1078D01*
X984Y1080D01*
X992Y1080D01*
X992Y1082D01*
X938Y1082D01*
G37*
D02*
G36*
X1020Y1082D02*
X1020Y1080D01*
X1026Y1080D01*
X1026Y1078D01*
X1030Y1078D01*
X1030Y1076D01*
X1034Y1076D01*
X1034Y1074D01*
X1038Y1074D01*
X1038Y1072D01*
X1040Y1072D01*
X1040Y1070D01*
X1042Y1070D01*
X1042Y1068D01*
X1044Y1068D01*
X1044Y1066D01*
X1046Y1066D01*
X1046Y1064D01*
X1048Y1064D01*
X1048Y1062D01*
X1050Y1062D01*
X1050Y1060D01*
X1052Y1060D01*
X1052Y1058D01*
X1054Y1058D01*
X1054Y1054D01*
X1056Y1054D01*
X1056Y1050D01*
X1058Y1050D01*
X1058Y1046D01*
X1060Y1046D01*
X1060Y1040D01*
X1062Y1040D01*
X1062Y1012D01*
X1060Y1012D01*
X1060Y1004D01*
X1058Y1004D01*
X1058Y1000D01*
X1056Y1000D01*
X1056Y996D01*
X1054Y996D01*
X1054Y994D01*
X1052Y994D01*
X1052Y990D01*
X1050Y990D01*
X1050Y988D01*
X1048Y988D01*
X1048Y986D01*
X1046Y986D01*
X1046Y984D01*
X1044Y984D01*
X1044Y982D01*
X1042Y982D01*
X1042Y980D01*
X1038Y980D01*
X1038Y978D01*
X1036Y978D01*
X1036Y976D01*
X1032Y976D01*
X1032Y974D01*
X1028Y974D01*
X1028Y972D01*
X1024Y972D01*
X1024Y970D01*
X1016Y970D01*
X1016Y968D01*
X1172Y968D01*
X1172Y970D01*
X1164Y970D01*
X1164Y972D01*
X1160Y972D01*
X1160Y974D01*
X1156Y974D01*
X1156Y976D01*
X1152Y976D01*
X1152Y978D01*
X1150Y978D01*
X1150Y980D01*
X1146Y980D01*
X1146Y982D01*
X1144Y982D01*
X1144Y984D01*
X1142Y984D01*
X1142Y986D01*
X1140Y986D01*
X1140Y988D01*
X1138Y988D01*
X1138Y990D01*
X1136Y990D01*
X1136Y994D01*
X1134Y994D01*
X1134Y996D01*
X1132Y996D01*
X1132Y1000D01*
X1130Y1000D01*
X1130Y1004D01*
X1128Y1004D01*
X1128Y1012D01*
X1126Y1012D01*
X1126Y1040D01*
X1128Y1040D01*
X1128Y1046D01*
X1130Y1046D01*
X1130Y1050D01*
X1132Y1050D01*
X1132Y1054D01*
X1134Y1054D01*
X1134Y1058D01*
X1136Y1058D01*
X1136Y1060D01*
X1138Y1060D01*
X1138Y1062D01*
X1140Y1062D01*
X1140Y1064D01*
X1142Y1064D01*
X1142Y1066D01*
X1144Y1066D01*
X1144Y1068D01*
X1146Y1068D01*
X1146Y1070D01*
X1148Y1070D01*
X1148Y1072D01*
X1150Y1072D01*
X1150Y1074D01*
X1154Y1074D01*
X1154Y1076D01*
X1158Y1076D01*
X1158Y1078D01*
X1162Y1078D01*
X1162Y1080D01*
X1168Y1080D01*
X1168Y1082D01*
X1020Y1082D01*
G37*
D02*
G36*
X1212Y1076D02*
X1212Y1074D01*
X1214Y1074D01*
X1214Y1072D01*
X1218Y1072D01*
X1218Y1070D01*
X1220Y1070D01*
X1220Y1068D01*
X1222Y1068D01*
X1222Y1066D01*
X1224Y1066D01*
X1224Y1064D01*
X1226Y1064D01*
X1226Y1062D01*
X1228Y1062D01*
X1228Y1058D01*
X1230Y1058D01*
X1230Y1056D01*
X1232Y1056D01*
X1232Y1052D01*
X1234Y1052D01*
X1234Y1048D01*
X1236Y1048D01*
X1236Y1044D01*
X1238Y1044D01*
X1238Y1036D01*
X1240Y1036D01*
X1240Y1024D01*
X1242Y1024D01*
X1242Y1022D01*
X1246Y1022D01*
X1246Y1020D01*
X1248Y1020D01*
X1248Y1018D01*
X1270Y1018D01*
X1270Y1024D01*
X1272Y1024D01*
X1272Y1034D01*
X1274Y1034D01*
X1274Y1042D01*
X1276Y1042D01*
X1276Y1046D01*
X1278Y1046D01*
X1278Y1048D01*
X1280Y1048D01*
X1280Y1052D01*
X1282Y1052D01*
X1282Y1054D01*
X1284Y1054D01*
X1284Y1056D01*
X1286Y1056D01*
X1286Y1060D01*
X1288Y1060D01*
X1288Y1062D01*
X1292Y1062D01*
X1292Y1064D01*
X1294Y1064D01*
X1294Y1066D01*
X1296Y1066D01*
X1296Y1068D01*
X1300Y1068D01*
X1300Y1070D01*
X1302Y1070D01*
X1302Y1072D01*
X1308Y1072D01*
X1308Y1074D01*
X1314Y1074D01*
X1314Y1076D01*
X1212Y1076D01*
G37*
D02*
G36*
X1342Y1076D02*
X1342Y1074D01*
X1350Y1074D01*
X1350Y1072D01*
X1354Y1072D01*
X1354Y1070D01*
X1358Y1070D01*
X1358Y1068D01*
X1360Y1068D01*
X1360Y1066D01*
X1362Y1066D01*
X1362Y1064D01*
X1366Y1064D01*
X1366Y1062D01*
X1368Y1062D01*
X1368Y1060D01*
X1370Y1060D01*
X1370Y1058D01*
X1372Y1058D01*
X1372Y1056D01*
X1374Y1056D01*
X1374Y1052D01*
X1376Y1052D01*
X1376Y1050D01*
X1378Y1050D01*
X1378Y1046D01*
X1380Y1046D01*
X1380Y1042D01*
X1382Y1042D01*
X1382Y1036D01*
X1384Y1036D01*
X1384Y1028D01*
X1386Y1028D01*
X1386Y1012D01*
X1384Y1012D01*
X1384Y1002D01*
X1382Y1002D01*
X1382Y996D01*
X1380Y996D01*
X1380Y992D01*
X1378Y992D01*
X1378Y990D01*
X1376Y990D01*
X1376Y986D01*
X1374Y986D01*
X1374Y984D01*
X1372Y984D01*
X1372Y982D01*
X1370Y982D01*
X1370Y980D01*
X1368Y980D01*
X1368Y978D01*
X1366Y978D01*
X1366Y976D01*
X1364Y976D01*
X1364Y974D01*
X1362Y974D01*
X1362Y972D01*
X1358Y972D01*
X1358Y970D01*
X1356Y970D01*
X1356Y968D01*
X1352Y968D01*
X1352Y966D01*
X1346Y966D01*
X1346Y964D01*
X1338Y964D01*
X1338Y962D01*
X1496Y962D01*
X1496Y964D01*
X1488Y964D01*
X1488Y966D01*
X1482Y966D01*
X1482Y968D01*
X1478Y968D01*
X1478Y970D01*
X1474Y970D01*
X1474Y972D01*
X1472Y972D01*
X1472Y974D01*
X1470Y974D01*
X1470Y976D01*
X1468Y976D01*
X1468Y978D01*
X1464Y978D01*
X1464Y982D01*
X1462Y982D01*
X1462Y984D01*
X1460Y984D01*
X1460Y986D01*
X1458Y986D01*
X1458Y988D01*
X1456Y988D01*
X1456Y992D01*
X1454Y992D01*
X1454Y996D01*
X1452Y996D01*
X1452Y1002D01*
X1450Y1002D01*
X1450Y1010D01*
X1448Y1010D01*
X1448Y1030D01*
X1450Y1030D01*
X1450Y1038D01*
X1452Y1038D01*
X1452Y1044D01*
X1454Y1044D01*
X1454Y1046D01*
X1456Y1046D01*
X1456Y1050D01*
X1458Y1050D01*
X1458Y1054D01*
X1460Y1054D01*
X1460Y1056D01*
X1462Y1056D01*
X1462Y1058D01*
X1464Y1058D01*
X1464Y1060D01*
X1466Y1060D01*
X1466Y1062D01*
X1468Y1062D01*
X1468Y1064D01*
X1470Y1064D01*
X1470Y1066D01*
X1474Y1066D01*
X1474Y1068D01*
X1476Y1068D01*
X1476Y1070D01*
X1480Y1070D01*
X1480Y1072D01*
X1484Y1072D01*
X1484Y1074D01*
X1492Y1074D01*
X1492Y1076D01*
X1342Y1076D01*
G37*
D02*
G36*
X938Y994D02*
X938Y968D01*
X996Y968D01*
X996Y970D01*
X988Y970D01*
X988Y972D01*
X982Y972D01*
X982Y974D01*
X978Y974D01*
X978Y976D01*
X974Y976D01*
X974Y978D01*
X972Y978D01*
X972Y980D01*
X970Y980D01*
X970Y982D01*
X966Y982D01*
X966Y984D01*
X964Y984D01*
X964Y986D01*
X962Y986D01*
X962Y990D01*
X960Y990D01*
X960Y992D01*
X958Y992D01*
X958Y994D01*
X938Y994D01*
G37*
D02*
G36*
X938Y968D02*
X938Y966D01*
X1212Y966D01*
X1212Y968D01*
X938Y968D01*
G37*
D02*
G36*
X938Y968D02*
X938Y966D01*
X1212Y966D01*
X1212Y968D01*
X938Y968D01*
G37*
D02*
G36*
X938Y966D02*
X938Y882D01*
X1120Y882D01*
X1120Y880D01*
X1126Y880D01*
X1126Y878D01*
X1130Y878D01*
X1130Y876D01*
X1134Y876D01*
X1134Y874D01*
X1138Y874D01*
X1138Y872D01*
X1140Y872D01*
X1140Y870D01*
X1142Y870D01*
X1142Y868D01*
X1144Y868D01*
X1144Y866D01*
X1146Y866D01*
X1146Y864D01*
X1148Y864D01*
X1148Y862D01*
X1150Y862D01*
X1150Y860D01*
X1152Y860D01*
X1152Y858D01*
X1154Y858D01*
X1154Y854D01*
X1156Y854D01*
X1156Y850D01*
X1158Y850D01*
X1158Y846D01*
X1160Y846D01*
X1160Y840D01*
X1162Y840D01*
X1162Y812D01*
X1160Y812D01*
X1160Y804D01*
X1158Y804D01*
X1158Y800D01*
X1156Y800D01*
X1156Y796D01*
X1154Y796D01*
X1154Y794D01*
X1152Y794D01*
X1152Y790D01*
X1150Y790D01*
X1150Y788D01*
X1148Y788D01*
X1148Y786D01*
X1146Y786D01*
X1146Y784D01*
X1144Y784D01*
X1144Y782D01*
X1142Y782D01*
X1142Y780D01*
X1138Y780D01*
X1138Y778D01*
X1136Y778D01*
X1136Y776D01*
X1132Y776D01*
X1132Y774D01*
X1128Y774D01*
X1128Y772D01*
X1124Y772D01*
X1124Y770D01*
X1116Y770D01*
X1116Y768D01*
X1474Y768D01*
X1474Y778D01*
X1472Y778D01*
X1472Y780D01*
X1470Y780D01*
X1470Y782D01*
X1466Y782D01*
X1466Y784D01*
X1464Y784D01*
X1464Y786D01*
X1462Y786D01*
X1462Y790D01*
X1460Y790D01*
X1460Y792D01*
X1458Y792D01*
X1458Y794D01*
X1300Y794D01*
X1300Y796D01*
X1292Y796D01*
X1292Y798D01*
X1288Y798D01*
X1288Y800D01*
X1286Y800D01*
X1286Y802D01*
X1284Y802D01*
X1284Y804D01*
X1282Y804D01*
X1282Y806D01*
X1280Y806D01*
X1280Y808D01*
X1278Y808D01*
X1278Y810D01*
X1276Y810D01*
X1276Y812D01*
X1274Y812D01*
X1274Y814D01*
X1272Y814D01*
X1272Y816D01*
X1270Y816D01*
X1270Y818D01*
X1268Y818D01*
X1268Y820D01*
X1266Y820D01*
X1266Y822D01*
X1264Y822D01*
X1264Y824D01*
X1262Y824D01*
X1262Y826D01*
X1260Y826D01*
X1260Y828D01*
X1258Y828D01*
X1258Y830D01*
X1256Y830D01*
X1256Y832D01*
X1254Y832D01*
X1254Y834D01*
X1252Y834D01*
X1252Y836D01*
X1250Y836D01*
X1250Y838D01*
X1248Y838D01*
X1248Y840D01*
X1246Y840D01*
X1246Y842D01*
X1244Y842D01*
X1244Y844D01*
X1242Y844D01*
X1242Y846D01*
X1240Y846D01*
X1240Y848D01*
X1238Y848D01*
X1238Y850D01*
X1236Y850D01*
X1236Y852D01*
X1234Y852D01*
X1234Y854D01*
X1232Y854D01*
X1232Y856D01*
X1230Y856D01*
X1230Y858D01*
X1228Y858D01*
X1228Y862D01*
X1226Y862D01*
X1226Y870D01*
X1224Y870D01*
X1224Y960D01*
X1220Y960D01*
X1220Y962D01*
X1218Y962D01*
X1218Y964D01*
X1214Y964D01*
X1214Y966D01*
X938Y966D01*
G37*
D02*
G36*
X1288Y966D02*
X1288Y962D01*
X1318Y962D01*
X1318Y964D01*
X1310Y964D01*
X1310Y966D01*
X1288Y966D01*
G37*
D02*
G36*
X1288Y962D02*
X1288Y960D01*
X1624Y960D01*
X1624Y962D01*
X1288Y962D01*
G37*
D02*
G36*
X1288Y962D02*
X1288Y960D01*
X1624Y960D01*
X1624Y962D01*
X1288Y962D01*
G37*
D02*
G36*
X1288Y962D02*
X1288Y960D01*
X1624Y960D01*
X1624Y962D01*
X1288Y962D01*
G37*
D02*
G36*
X1288Y960D02*
X1288Y888D01*
X1290Y888D01*
X1290Y886D01*
X1292Y886D01*
X1292Y884D01*
X1294Y884D01*
X1294Y882D01*
X1520Y882D01*
X1520Y880D01*
X1526Y880D01*
X1526Y878D01*
X1530Y878D01*
X1530Y876D01*
X1534Y876D01*
X1534Y874D01*
X1538Y874D01*
X1538Y872D01*
X1540Y872D01*
X1540Y870D01*
X1542Y870D01*
X1542Y868D01*
X1544Y868D01*
X1544Y866D01*
X1546Y866D01*
X1546Y864D01*
X1548Y864D01*
X1548Y862D01*
X1550Y862D01*
X1550Y860D01*
X1552Y860D01*
X1552Y858D01*
X1554Y858D01*
X1554Y854D01*
X1556Y854D01*
X1556Y850D01*
X1558Y850D01*
X1558Y846D01*
X1560Y846D01*
X1560Y840D01*
X1562Y840D01*
X1562Y812D01*
X1560Y812D01*
X1560Y804D01*
X1558Y804D01*
X1558Y800D01*
X1556Y800D01*
X1556Y796D01*
X1554Y796D01*
X1554Y794D01*
X1552Y794D01*
X1552Y790D01*
X1550Y790D01*
X1550Y788D01*
X1548Y788D01*
X1548Y786D01*
X1546Y786D01*
X1546Y784D01*
X1544Y784D01*
X1544Y782D01*
X1542Y782D01*
X1542Y780D01*
X1538Y780D01*
X1538Y732D01*
X1574Y732D01*
X1574Y738D01*
X1576Y738D01*
X1576Y742D01*
X1578Y742D01*
X1578Y744D01*
X1580Y744D01*
X1580Y748D01*
X1582Y748D01*
X1582Y750D01*
X1584Y750D01*
X1584Y752D01*
X1586Y752D01*
X1586Y754D01*
X1590Y754D01*
X1590Y756D01*
X1592Y756D01*
X1592Y758D01*
X1594Y758D01*
X1594Y760D01*
X1596Y760D01*
X1596Y762D01*
X1598Y762D01*
X1598Y764D01*
X1600Y764D01*
X1600Y766D01*
X1602Y766D01*
X1602Y768D01*
X1604Y768D01*
X1604Y770D01*
X1606Y770D01*
X1606Y772D01*
X1608Y772D01*
X1608Y774D01*
X1610Y774D01*
X1610Y776D01*
X1612Y776D01*
X1612Y778D01*
X1614Y778D01*
X1614Y780D01*
X1616Y780D01*
X1616Y782D01*
X1618Y782D01*
X1618Y784D01*
X1620Y784D01*
X1620Y786D01*
X1622Y786D01*
X1622Y788D01*
X1624Y788D01*
X1624Y960D01*
X1288Y960D01*
G37*
D02*
G36*
X938Y882D02*
X938Y858D01*
X1060Y858D01*
X1060Y862D01*
X1062Y862D01*
X1062Y864D01*
X1064Y864D01*
X1064Y866D01*
X1066Y866D01*
X1066Y868D01*
X1068Y868D01*
X1068Y870D01*
X1070Y870D01*
X1070Y872D01*
X1074Y872D01*
X1074Y874D01*
X1076Y874D01*
X1076Y876D01*
X1080Y876D01*
X1080Y878D01*
X1084Y878D01*
X1084Y880D01*
X1092Y880D01*
X1092Y882D01*
X938Y882D01*
G37*
D02*
G36*
X1296Y882D02*
X1296Y880D01*
X1298Y880D01*
X1298Y878D01*
X1300Y878D01*
X1300Y876D01*
X1302Y876D01*
X1302Y874D01*
X1304Y874D01*
X1304Y872D01*
X1306Y872D01*
X1306Y870D01*
X1308Y870D01*
X1308Y868D01*
X1310Y868D01*
X1310Y866D01*
X1312Y866D01*
X1312Y864D01*
X1314Y864D01*
X1314Y862D01*
X1316Y862D01*
X1316Y860D01*
X1318Y860D01*
X1318Y858D01*
X1460Y858D01*
X1460Y862D01*
X1462Y862D01*
X1462Y864D01*
X1464Y864D01*
X1464Y866D01*
X1466Y866D01*
X1466Y868D01*
X1468Y868D01*
X1468Y870D01*
X1470Y870D01*
X1470Y872D01*
X1474Y872D01*
X1474Y874D01*
X1476Y874D01*
X1476Y876D01*
X1480Y876D01*
X1480Y878D01*
X1484Y878D01*
X1484Y880D01*
X1492Y880D01*
X1492Y882D01*
X1296Y882D01*
G37*
D02*
G36*
X938Y794D02*
X938Y768D01*
X1096Y768D01*
X1096Y770D01*
X1088Y770D01*
X1088Y772D01*
X1082Y772D01*
X1082Y774D01*
X1078Y774D01*
X1078Y776D01*
X1074Y776D01*
X1074Y778D01*
X1072Y778D01*
X1072Y780D01*
X1070Y780D01*
X1070Y782D01*
X1066Y782D01*
X1066Y784D01*
X1064Y784D01*
X1064Y786D01*
X1062Y786D01*
X1062Y790D01*
X1060Y790D01*
X1060Y792D01*
X1058Y792D01*
X1058Y794D01*
X938Y794D01*
G37*
D02*
G36*
X938Y768D02*
X938Y766D01*
X1474Y766D01*
X1474Y768D01*
X938Y768D01*
G37*
D02*
G36*
X938Y768D02*
X938Y766D01*
X1474Y766D01*
X1474Y768D01*
X938Y768D01*
G37*
D02*
G36*
X938Y766D02*
X938Y732D01*
X1420Y732D01*
X1420Y730D01*
X1426Y730D01*
X1426Y728D01*
X1448Y728D01*
X1448Y732D01*
X1474Y732D01*
X1474Y766D01*
X938Y766D01*
G37*
D02*
G36*
X938Y732D02*
X938Y722D01*
X940Y722D01*
X940Y720D01*
X942Y720D01*
X942Y718D01*
X944Y718D01*
X944Y716D01*
X966Y716D01*
X966Y718D01*
X968Y718D01*
X968Y720D01*
X970Y720D01*
X970Y722D01*
X974Y722D01*
X974Y724D01*
X976Y724D01*
X976Y726D01*
X980Y726D01*
X980Y728D01*
X984Y728D01*
X984Y730D01*
X992Y730D01*
X992Y732D01*
X938Y732D01*
G37*
D02*
G36*
X1020Y732D02*
X1020Y730D01*
X1026Y730D01*
X1026Y728D01*
X1030Y728D01*
X1030Y726D01*
X1034Y726D01*
X1034Y724D01*
X1038Y724D01*
X1038Y722D01*
X1040Y722D01*
X1040Y720D01*
X1042Y720D01*
X1042Y718D01*
X1044Y718D01*
X1044Y716D01*
X1066Y716D01*
X1066Y718D01*
X1068Y718D01*
X1068Y720D01*
X1070Y720D01*
X1070Y722D01*
X1074Y722D01*
X1074Y724D01*
X1076Y724D01*
X1076Y726D01*
X1080Y726D01*
X1080Y728D01*
X1084Y728D01*
X1084Y730D01*
X1092Y730D01*
X1092Y732D01*
X1020Y732D01*
G37*
D02*
G36*
X1120Y732D02*
X1120Y730D01*
X1126Y730D01*
X1126Y728D01*
X1130Y728D01*
X1130Y726D01*
X1134Y726D01*
X1134Y724D01*
X1138Y724D01*
X1138Y722D01*
X1140Y722D01*
X1140Y720D01*
X1142Y720D01*
X1142Y718D01*
X1144Y718D01*
X1144Y716D01*
X1166Y716D01*
X1166Y718D01*
X1168Y718D01*
X1168Y720D01*
X1170Y720D01*
X1170Y722D01*
X1174Y722D01*
X1174Y724D01*
X1176Y724D01*
X1176Y726D01*
X1180Y726D01*
X1180Y728D01*
X1184Y728D01*
X1184Y730D01*
X1192Y730D01*
X1192Y732D01*
X1120Y732D01*
G37*
D02*
G36*
X1220Y732D02*
X1220Y730D01*
X1226Y730D01*
X1226Y728D01*
X1230Y728D01*
X1230Y726D01*
X1234Y726D01*
X1234Y724D01*
X1238Y724D01*
X1238Y722D01*
X1240Y722D01*
X1240Y720D01*
X1242Y720D01*
X1242Y718D01*
X1244Y718D01*
X1244Y716D01*
X1266Y716D01*
X1266Y718D01*
X1268Y718D01*
X1268Y720D01*
X1270Y720D01*
X1270Y722D01*
X1274Y722D01*
X1274Y724D01*
X1276Y724D01*
X1276Y726D01*
X1280Y726D01*
X1280Y728D01*
X1284Y728D01*
X1284Y730D01*
X1292Y730D01*
X1292Y732D01*
X1220Y732D01*
G37*
D02*
G36*
X1320Y732D02*
X1320Y730D01*
X1326Y730D01*
X1326Y728D01*
X1330Y728D01*
X1330Y726D01*
X1334Y726D01*
X1334Y724D01*
X1338Y724D01*
X1338Y722D01*
X1340Y722D01*
X1340Y720D01*
X1342Y720D01*
X1342Y718D01*
X1344Y718D01*
X1344Y716D01*
X1366Y716D01*
X1366Y718D01*
X1368Y718D01*
X1368Y720D01*
X1370Y720D01*
X1370Y722D01*
X1374Y722D01*
X1374Y724D01*
X1376Y724D01*
X1376Y726D01*
X1380Y726D01*
X1380Y728D01*
X1384Y728D01*
X1384Y730D01*
X1392Y730D01*
X1392Y732D01*
X1320Y732D01*
G37*
D02*
G36*
X2104Y780D02*
X2104Y778D01*
X2102Y778D01*
X2102Y776D01*
X2100Y776D01*
X2100Y774D01*
X2098Y774D01*
X2098Y770D01*
X2096Y770D01*
X2096Y768D01*
X2094Y768D01*
X2094Y766D01*
X2092Y766D01*
X2092Y764D01*
X2090Y764D01*
X2090Y762D01*
X2088Y762D01*
X2088Y760D01*
X2086Y760D01*
X2086Y758D01*
X2084Y758D01*
X2084Y756D01*
X2082Y756D01*
X2082Y754D01*
X2080Y754D01*
X2080Y752D01*
X2078Y752D01*
X2078Y750D01*
X2076Y750D01*
X2076Y748D01*
X2072Y748D01*
X2072Y746D01*
X2068Y746D01*
X2068Y744D01*
X2062Y744D01*
X2062Y742D01*
X2040Y742D01*
X2040Y722D01*
X2042Y722D01*
X2042Y720D01*
X2044Y720D01*
X2044Y718D01*
X2048Y718D01*
X2048Y714D01*
X2050Y714D01*
X2050Y712D01*
X2052Y712D01*
X2052Y710D01*
X2054Y710D01*
X2054Y708D01*
X2056Y708D01*
X2056Y704D01*
X2058Y704D01*
X2058Y700D01*
X2060Y700D01*
X2060Y694D01*
X2062Y694D01*
X2062Y688D01*
X2064Y688D01*
X2064Y664D01*
X2062Y664D01*
X2062Y656D01*
X2060Y656D01*
X2060Y650D01*
X2058Y650D01*
X2058Y646D01*
X2056Y646D01*
X2056Y644D01*
X2054Y644D01*
X2054Y640D01*
X2052Y640D01*
X2052Y638D01*
X2050Y638D01*
X2050Y636D01*
X2048Y636D01*
X2048Y634D01*
X2046Y634D01*
X2046Y632D01*
X2044Y632D01*
X2044Y630D01*
X2042Y630D01*
X2042Y628D01*
X2038Y628D01*
X2038Y626D01*
X2036Y626D01*
X2036Y614D01*
X2034Y614D01*
X2034Y610D01*
X2032Y610D01*
X2032Y608D01*
X2030Y608D01*
X2030Y606D01*
X2028Y606D01*
X2028Y602D01*
X2026Y602D01*
X2026Y600D01*
X2024Y600D01*
X2024Y598D01*
X2022Y598D01*
X2022Y596D01*
X2020Y596D01*
X2020Y594D01*
X2018Y594D01*
X2018Y592D01*
X2016Y592D01*
X2016Y590D01*
X2014Y590D01*
X2014Y588D01*
X2012Y588D01*
X2012Y586D01*
X2010Y586D01*
X2010Y584D01*
X2008Y584D01*
X2008Y582D01*
X2006Y582D01*
X2006Y580D01*
X2004Y580D01*
X2004Y578D01*
X2002Y578D01*
X2002Y576D01*
X2000Y576D01*
X2000Y574D01*
X1998Y574D01*
X1998Y572D01*
X1996Y572D01*
X1996Y570D01*
X1994Y570D01*
X1994Y568D01*
X1992Y568D01*
X1992Y566D01*
X1990Y566D01*
X1990Y564D01*
X1988Y564D01*
X1988Y560D01*
X1986Y560D01*
X1986Y558D01*
X1984Y558D01*
X1984Y556D01*
X1982Y556D01*
X1982Y554D01*
X1980Y554D01*
X1980Y552D01*
X1978Y552D01*
X1978Y550D01*
X1974Y550D01*
X1974Y548D01*
X1972Y548D01*
X1972Y546D01*
X1966Y546D01*
X1966Y544D01*
X1800Y544D01*
X1800Y524D01*
X1802Y524D01*
X1802Y522D01*
X1804Y522D01*
X1804Y520D01*
X1806Y520D01*
X1806Y518D01*
X1810Y518D01*
X1810Y516D01*
X1812Y516D01*
X1812Y514D01*
X1814Y514D01*
X1814Y512D01*
X1816Y512D01*
X1816Y510D01*
X1818Y510D01*
X1818Y508D01*
X1820Y508D01*
X1820Y506D01*
X1822Y506D01*
X1822Y504D01*
X1824Y504D01*
X1824Y502D01*
X1826Y502D01*
X1826Y500D01*
X1828Y500D01*
X1828Y498D01*
X1830Y498D01*
X1830Y496D01*
X1832Y496D01*
X1832Y492D01*
X1834Y492D01*
X1834Y490D01*
X1836Y490D01*
X1836Y484D01*
X1838Y484D01*
X1838Y234D01*
X2018Y234D01*
X2018Y232D01*
X2024Y232D01*
X2024Y230D01*
X2030Y230D01*
X2030Y228D01*
X2034Y228D01*
X2034Y226D01*
X2038Y226D01*
X2038Y224D01*
X2040Y224D01*
X2040Y222D01*
X2042Y222D01*
X2042Y220D01*
X2044Y220D01*
X2044Y218D01*
X2048Y218D01*
X2048Y214D01*
X2050Y214D01*
X2050Y212D01*
X2052Y212D01*
X2052Y210D01*
X2054Y210D01*
X2054Y208D01*
X2056Y208D01*
X2056Y204D01*
X2058Y204D01*
X2058Y200D01*
X2060Y200D01*
X2060Y194D01*
X2062Y194D01*
X2062Y188D01*
X2064Y188D01*
X2064Y164D01*
X2062Y164D01*
X2062Y156D01*
X2060Y156D01*
X2060Y150D01*
X2058Y150D01*
X2058Y146D01*
X2056Y146D01*
X2056Y144D01*
X2054Y144D01*
X2054Y140D01*
X2052Y140D01*
X2052Y138D01*
X2050Y138D01*
X2050Y136D01*
X2048Y136D01*
X2048Y134D01*
X2046Y134D01*
X2046Y132D01*
X2044Y132D01*
X2044Y130D01*
X2042Y130D01*
X2042Y128D01*
X2038Y128D01*
X2038Y126D01*
X2036Y126D01*
X2036Y116D01*
X2034Y116D01*
X2034Y110D01*
X2032Y110D01*
X2032Y108D01*
X2030Y108D01*
X2030Y106D01*
X2028Y106D01*
X2028Y102D01*
X2026Y102D01*
X2026Y100D01*
X2024Y100D01*
X2024Y98D01*
X2022Y98D01*
X2022Y96D01*
X2020Y96D01*
X2020Y94D01*
X2018Y94D01*
X2018Y92D01*
X2016Y92D01*
X2016Y90D01*
X2014Y90D01*
X2014Y88D01*
X2012Y88D01*
X2012Y86D01*
X2010Y86D01*
X2010Y84D01*
X2008Y84D01*
X2008Y82D01*
X2006Y82D01*
X2006Y80D01*
X2004Y80D01*
X2004Y78D01*
X2002Y78D01*
X2002Y76D01*
X2000Y76D01*
X2000Y74D01*
X1998Y74D01*
X1998Y72D01*
X1996Y72D01*
X1996Y70D01*
X1994Y70D01*
X1994Y68D01*
X1992Y68D01*
X1992Y66D01*
X1990Y66D01*
X1990Y64D01*
X1988Y64D01*
X1988Y62D01*
X1986Y62D01*
X1986Y42D01*
X2124Y42D01*
X2124Y780D01*
X2104Y780D01*
G37*
D02*
G36*
X1838Y234D02*
X1838Y224D01*
X1840Y224D01*
X1840Y222D01*
X1842Y222D01*
X1842Y220D01*
X1844Y220D01*
X1844Y218D01*
X1866Y218D01*
X1866Y220D01*
X1868Y220D01*
X1868Y222D01*
X1870Y222D01*
X1870Y224D01*
X1874Y224D01*
X1874Y226D01*
X1876Y226D01*
X1876Y228D01*
X1880Y228D01*
X1880Y230D01*
X1886Y230D01*
X1886Y232D01*
X1894Y232D01*
X1894Y234D01*
X1838Y234D01*
G37*
D02*
G36*
X1918Y234D02*
X1918Y232D01*
X1924Y232D01*
X1924Y230D01*
X1930Y230D01*
X1930Y228D01*
X1934Y228D01*
X1934Y226D01*
X1938Y226D01*
X1938Y224D01*
X1940Y224D01*
X1940Y222D01*
X1942Y222D01*
X1942Y220D01*
X1944Y220D01*
X1944Y218D01*
X1966Y218D01*
X1966Y220D01*
X1968Y220D01*
X1968Y222D01*
X1970Y222D01*
X1970Y224D01*
X1974Y224D01*
X1974Y226D01*
X1976Y226D01*
X1976Y228D01*
X1980Y228D01*
X1980Y230D01*
X1986Y230D01*
X1986Y232D01*
X1994Y232D01*
X1994Y234D01*
X1918Y234D01*
G37*
D02*
G36*
X944Y634D02*
X944Y632D01*
X942Y632D01*
X942Y630D01*
X938Y630D01*
X938Y618D01*
X996Y618D01*
X996Y620D01*
X988Y620D01*
X988Y622D01*
X982Y622D01*
X982Y624D01*
X978Y624D01*
X978Y626D01*
X974Y626D01*
X974Y628D01*
X972Y628D01*
X972Y630D01*
X970Y630D01*
X970Y632D01*
X966Y632D01*
X966Y634D01*
X944Y634D01*
G37*
D02*
G36*
X1044Y634D02*
X1044Y632D01*
X1042Y632D01*
X1042Y630D01*
X1038Y630D01*
X1038Y628D01*
X1036Y628D01*
X1036Y626D01*
X1032Y626D01*
X1032Y624D01*
X1028Y624D01*
X1028Y622D01*
X1024Y622D01*
X1024Y620D01*
X1016Y620D01*
X1016Y618D01*
X1096Y618D01*
X1096Y620D01*
X1088Y620D01*
X1088Y622D01*
X1082Y622D01*
X1082Y624D01*
X1078Y624D01*
X1078Y626D01*
X1074Y626D01*
X1074Y628D01*
X1072Y628D01*
X1072Y630D01*
X1070Y630D01*
X1070Y632D01*
X1066Y632D01*
X1066Y634D01*
X1044Y634D01*
G37*
D02*
G36*
X1144Y634D02*
X1144Y632D01*
X1142Y632D01*
X1142Y630D01*
X1138Y630D01*
X1138Y628D01*
X1136Y628D01*
X1136Y626D01*
X1132Y626D01*
X1132Y624D01*
X1128Y624D01*
X1128Y622D01*
X1124Y622D01*
X1124Y620D01*
X1116Y620D01*
X1116Y618D01*
X1196Y618D01*
X1196Y620D01*
X1188Y620D01*
X1188Y622D01*
X1182Y622D01*
X1182Y624D01*
X1178Y624D01*
X1178Y626D01*
X1174Y626D01*
X1174Y628D01*
X1172Y628D01*
X1172Y630D01*
X1170Y630D01*
X1170Y632D01*
X1166Y632D01*
X1166Y634D01*
X1144Y634D01*
G37*
D02*
G36*
X1244Y634D02*
X1244Y632D01*
X1242Y632D01*
X1242Y630D01*
X1238Y630D01*
X1238Y628D01*
X1236Y628D01*
X1236Y626D01*
X1232Y626D01*
X1232Y624D01*
X1228Y624D01*
X1228Y622D01*
X1224Y622D01*
X1224Y620D01*
X1216Y620D01*
X1216Y618D01*
X1274Y618D01*
X1274Y628D01*
X1272Y628D01*
X1272Y630D01*
X1270Y630D01*
X1270Y632D01*
X1266Y632D01*
X1266Y634D01*
X1244Y634D01*
G37*
D02*
G36*
X938Y618D02*
X938Y616D01*
X1274Y616D01*
X1274Y618D01*
X938Y618D01*
G37*
D02*
G36*
X938Y618D02*
X938Y616D01*
X1274Y616D01*
X1274Y618D01*
X938Y618D01*
G37*
D02*
G36*
X938Y618D02*
X938Y616D01*
X1274Y616D01*
X1274Y618D01*
X938Y618D01*
G37*
D02*
G36*
X938Y618D02*
X938Y616D01*
X1274Y616D01*
X1274Y618D01*
X938Y618D01*
G37*
D02*
G36*
X938Y616D02*
X938Y568D01*
X936Y568D01*
X936Y562D01*
X934Y562D01*
X934Y558D01*
X932Y558D01*
X932Y556D01*
X930Y556D01*
X930Y554D01*
X928Y554D01*
X928Y552D01*
X926Y552D01*
X926Y550D01*
X924Y550D01*
X924Y548D01*
X922Y548D01*
X922Y546D01*
X920Y546D01*
X920Y544D01*
X918Y544D01*
X918Y542D01*
X916Y542D01*
X916Y540D01*
X914Y540D01*
X914Y538D01*
X912Y538D01*
X912Y536D01*
X910Y536D01*
X910Y534D01*
X908Y534D01*
X908Y532D01*
X906Y532D01*
X906Y530D01*
X904Y530D01*
X904Y528D01*
X902Y528D01*
X902Y526D01*
X900Y526D01*
X900Y524D01*
X898Y524D01*
X898Y522D01*
X896Y522D01*
X896Y520D01*
X894Y520D01*
X894Y518D01*
X892Y518D01*
X892Y516D01*
X890Y516D01*
X890Y514D01*
X888Y514D01*
X888Y512D01*
X886Y512D01*
X886Y510D01*
X884Y510D01*
X884Y508D01*
X882Y508D01*
X882Y506D01*
X880Y506D01*
X880Y504D01*
X878Y504D01*
X878Y502D01*
X876Y502D01*
X876Y500D01*
X874Y500D01*
X874Y498D01*
X872Y498D01*
X872Y496D01*
X868Y496D01*
X868Y494D01*
X862Y494D01*
X862Y492D01*
X738Y492D01*
X738Y432D01*
X1320Y432D01*
X1320Y430D01*
X1326Y430D01*
X1326Y428D01*
X1330Y428D01*
X1330Y426D01*
X1334Y426D01*
X1334Y424D01*
X1338Y424D01*
X1338Y422D01*
X1340Y422D01*
X1340Y420D01*
X1342Y420D01*
X1342Y418D01*
X1344Y418D01*
X1344Y416D01*
X1366Y416D01*
X1366Y418D01*
X1368Y418D01*
X1368Y420D01*
X1370Y420D01*
X1370Y422D01*
X1374Y422D01*
X1374Y424D01*
X1376Y424D01*
X1376Y444D01*
X1346Y444D01*
X1346Y446D01*
X1340Y446D01*
X1340Y448D01*
X1338Y448D01*
X1338Y450D01*
X1334Y450D01*
X1334Y452D01*
X1332Y452D01*
X1332Y454D01*
X1330Y454D01*
X1330Y456D01*
X1328Y456D01*
X1328Y458D01*
X1326Y458D01*
X1326Y460D01*
X1324Y460D01*
X1324Y462D01*
X1322Y462D01*
X1322Y464D01*
X1320Y464D01*
X1320Y466D01*
X1318Y466D01*
X1318Y468D01*
X1316Y468D01*
X1316Y470D01*
X1314Y470D01*
X1314Y472D01*
X1312Y472D01*
X1312Y474D01*
X1310Y474D01*
X1310Y476D01*
X1308Y476D01*
X1308Y478D01*
X1306Y478D01*
X1306Y480D01*
X1304Y480D01*
X1304Y482D01*
X1302Y482D01*
X1302Y484D01*
X1300Y484D01*
X1300Y486D01*
X1298Y486D01*
X1298Y488D01*
X1296Y488D01*
X1296Y490D01*
X1294Y490D01*
X1294Y492D01*
X1292Y492D01*
X1292Y494D01*
X1290Y494D01*
X1290Y496D01*
X1288Y496D01*
X1288Y498D01*
X1286Y498D01*
X1286Y500D01*
X1284Y500D01*
X1284Y502D01*
X1282Y502D01*
X1282Y504D01*
X1280Y504D01*
X1280Y508D01*
X1278Y508D01*
X1278Y512D01*
X1276Y512D01*
X1276Y516D01*
X1274Y516D01*
X1274Y616D01*
X938Y616D01*
G37*
D02*
G36*
X738Y432D02*
X738Y422D01*
X740Y422D01*
X740Y420D01*
X742Y420D01*
X742Y418D01*
X744Y418D01*
X744Y416D01*
X766Y416D01*
X766Y418D01*
X768Y418D01*
X768Y420D01*
X770Y420D01*
X770Y422D01*
X774Y422D01*
X774Y424D01*
X776Y424D01*
X776Y426D01*
X780Y426D01*
X780Y428D01*
X784Y428D01*
X784Y430D01*
X792Y430D01*
X792Y432D01*
X738Y432D01*
G37*
D02*
G36*
X820Y432D02*
X820Y430D01*
X826Y430D01*
X826Y428D01*
X830Y428D01*
X830Y426D01*
X834Y426D01*
X834Y424D01*
X838Y424D01*
X838Y422D01*
X840Y422D01*
X840Y420D01*
X842Y420D01*
X842Y418D01*
X844Y418D01*
X844Y416D01*
X866Y416D01*
X866Y418D01*
X868Y418D01*
X868Y420D01*
X870Y420D01*
X870Y422D01*
X874Y422D01*
X874Y424D01*
X876Y424D01*
X876Y426D01*
X880Y426D01*
X880Y428D01*
X884Y428D01*
X884Y430D01*
X892Y430D01*
X892Y432D01*
X820Y432D01*
G37*
D02*
G36*
X920Y432D02*
X920Y430D01*
X926Y430D01*
X926Y428D01*
X930Y428D01*
X930Y426D01*
X934Y426D01*
X934Y424D01*
X938Y424D01*
X938Y422D01*
X940Y422D01*
X940Y420D01*
X942Y420D01*
X942Y418D01*
X944Y418D01*
X944Y416D01*
X966Y416D01*
X966Y418D01*
X968Y418D01*
X968Y420D01*
X970Y420D01*
X970Y422D01*
X974Y422D01*
X974Y424D01*
X976Y424D01*
X976Y426D01*
X980Y426D01*
X980Y428D01*
X984Y428D01*
X984Y430D01*
X992Y430D01*
X992Y432D01*
X920Y432D01*
G37*
D02*
G36*
X1020Y432D02*
X1020Y430D01*
X1026Y430D01*
X1026Y428D01*
X1030Y428D01*
X1030Y426D01*
X1034Y426D01*
X1034Y424D01*
X1038Y424D01*
X1038Y422D01*
X1040Y422D01*
X1040Y420D01*
X1042Y420D01*
X1042Y418D01*
X1044Y418D01*
X1044Y416D01*
X1066Y416D01*
X1066Y418D01*
X1068Y418D01*
X1068Y420D01*
X1070Y420D01*
X1070Y422D01*
X1074Y422D01*
X1074Y424D01*
X1076Y424D01*
X1076Y426D01*
X1080Y426D01*
X1080Y428D01*
X1084Y428D01*
X1084Y430D01*
X1092Y430D01*
X1092Y432D01*
X1020Y432D01*
G37*
D02*
G36*
X1120Y432D02*
X1120Y430D01*
X1126Y430D01*
X1126Y428D01*
X1130Y428D01*
X1130Y426D01*
X1134Y426D01*
X1134Y424D01*
X1138Y424D01*
X1138Y422D01*
X1140Y422D01*
X1140Y420D01*
X1142Y420D01*
X1142Y418D01*
X1144Y418D01*
X1144Y416D01*
X1166Y416D01*
X1166Y418D01*
X1168Y418D01*
X1168Y420D01*
X1170Y420D01*
X1170Y422D01*
X1174Y422D01*
X1174Y424D01*
X1176Y424D01*
X1176Y426D01*
X1180Y426D01*
X1180Y428D01*
X1184Y428D01*
X1184Y430D01*
X1192Y430D01*
X1192Y432D01*
X1120Y432D01*
G37*
D02*
G36*
X1220Y432D02*
X1220Y430D01*
X1226Y430D01*
X1226Y428D01*
X1230Y428D01*
X1230Y426D01*
X1234Y426D01*
X1234Y424D01*
X1238Y424D01*
X1238Y422D01*
X1240Y422D01*
X1240Y420D01*
X1242Y420D01*
X1242Y418D01*
X1244Y418D01*
X1244Y416D01*
X1266Y416D01*
X1266Y418D01*
X1268Y418D01*
X1268Y420D01*
X1270Y420D01*
X1270Y422D01*
X1274Y422D01*
X1274Y424D01*
X1276Y424D01*
X1276Y426D01*
X1280Y426D01*
X1280Y428D01*
X1284Y428D01*
X1284Y430D01*
X1292Y430D01*
X1292Y432D01*
X1220Y432D01*
G37*
D02*
G36*
X1344Y634D02*
X1344Y632D01*
X1342Y632D01*
X1342Y630D01*
X1338Y630D01*
X1338Y536D01*
X1340Y536D01*
X1340Y534D01*
X1342Y534D01*
X1342Y532D01*
X1344Y532D01*
X1344Y530D01*
X1346Y530D01*
X1346Y528D01*
X1348Y528D01*
X1348Y526D01*
X1350Y526D01*
X1350Y524D01*
X1352Y524D01*
X1352Y522D01*
X1354Y522D01*
X1354Y520D01*
X1356Y520D01*
X1356Y518D01*
X1358Y518D01*
X1358Y516D01*
X1360Y516D01*
X1360Y514D01*
X1362Y514D01*
X1362Y512D01*
X1364Y512D01*
X1364Y510D01*
X1366Y510D01*
X1366Y508D01*
X1408Y508D01*
X1408Y528D01*
X1406Y528D01*
X1406Y530D01*
X1404Y530D01*
X1404Y532D01*
X1402Y532D01*
X1402Y534D01*
X1400Y534D01*
X1400Y536D01*
X1398Y536D01*
X1398Y538D01*
X1396Y538D01*
X1396Y540D01*
X1394Y540D01*
X1394Y542D01*
X1392Y542D01*
X1392Y544D01*
X1390Y544D01*
X1390Y546D01*
X1388Y546D01*
X1388Y548D01*
X1386Y548D01*
X1386Y550D01*
X1384Y550D01*
X1384Y552D01*
X1382Y552D01*
X1382Y554D01*
X1380Y554D01*
X1380Y558D01*
X1378Y558D01*
X1378Y562D01*
X1376Y562D01*
X1376Y566D01*
X1374Y566D01*
X1374Y628D01*
X1372Y628D01*
X1372Y630D01*
X1370Y630D01*
X1370Y632D01*
X1366Y632D01*
X1366Y634D01*
X1344Y634D01*
G37*
D02*
G36*
X1438Y618D02*
X1438Y588D01*
X1440Y588D01*
X1440Y586D01*
X1442Y586D01*
X1442Y584D01*
X1444Y584D01*
X1444Y582D01*
X1446Y582D01*
X1446Y580D01*
X1448Y580D01*
X1448Y578D01*
X1450Y578D01*
X1450Y576D01*
X1452Y576D01*
X1452Y574D01*
X1454Y574D01*
X1454Y572D01*
X1456Y572D01*
X1456Y570D01*
X1458Y570D01*
X1458Y568D01*
X1460Y568D01*
X1460Y566D01*
X1462Y566D01*
X1462Y564D01*
X1464Y564D01*
X1464Y562D01*
X1466Y562D01*
X1466Y560D01*
X1468Y560D01*
X1468Y558D01*
X1470Y558D01*
X1470Y556D01*
X1610Y556D01*
X1610Y576D01*
X1608Y576D01*
X1608Y578D01*
X1606Y578D01*
X1606Y580D01*
X1604Y580D01*
X1604Y582D01*
X1602Y582D01*
X1602Y584D01*
X1600Y584D01*
X1600Y586D01*
X1598Y586D01*
X1598Y588D01*
X1596Y588D01*
X1596Y590D01*
X1594Y590D01*
X1594Y592D01*
X1592Y592D01*
X1592Y594D01*
X1590Y594D01*
X1590Y596D01*
X1588Y596D01*
X1588Y598D01*
X1586Y598D01*
X1586Y600D01*
X1584Y600D01*
X1584Y602D01*
X1582Y602D01*
X1582Y604D01*
X1580Y604D01*
X1580Y608D01*
X1578Y608D01*
X1578Y610D01*
X1576Y610D01*
X1576Y614D01*
X1574Y614D01*
X1574Y618D01*
X1438Y618D01*
G37*
D02*
G36*
X168Y492D02*
X168Y490D01*
X166Y490D01*
X166Y488D01*
X164Y488D01*
X164Y486D01*
X162Y486D01*
X162Y484D01*
X158Y484D01*
X158Y482D01*
X156Y482D01*
X156Y480D01*
X154Y480D01*
X154Y478D01*
X152Y478D01*
X152Y476D01*
X150Y476D01*
X150Y474D01*
X148Y474D01*
X148Y472D01*
X146Y472D01*
X146Y470D01*
X144Y470D01*
X144Y468D01*
X142Y468D01*
X142Y466D01*
X140Y466D01*
X140Y464D01*
X138Y464D01*
X138Y462D01*
X136Y462D01*
X136Y432D01*
X620Y432D01*
X620Y430D01*
X626Y430D01*
X626Y428D01*
X630Y428D01*
X630Y426D01*
X634Y426D01*
X634Y424D01*
X638Y424D01*
X638Y422D01*
X640Y422D01*
X640Y420D01*
X642Y420D01*
X642Y418D01*
X644Y418D01*
X644Y416D01*
X666Y416D01*
X666Y418D01*
X668Y418D01*
X668Y420D01*
X670Y420D01*
X670Y422D01*
X674Y422D01*
X674Y492D01*
X168Y492D01*
G37*
D02*
G36*
X136Y432D02*
X136Y402D01*
X156Y402D01*
X156Y406D01*
X158Y406D01*
X158Y408D01*
X160Y408D01*
X160Y412D01*
X162Y412D01*
X162Y414D01*
X164Y414D01*
X164Y416D01*
X166Y416D01*
X166Y418D01*
X168Y418D01*
X168Y420D01*
X170Y420D01*
X170Y422D01*
X174Y422D01*
X174Y424D01*
X176Y424D01*
X176Y426D01*
X180Y426D01*
X180Y428D01*
X184Y428D01*
X184Y430D01*
X192Y430D01*
X192Y432D01*
X136Y432D01*
G37*
D02*
G36*
X220Y432D02*
X220Y430D01*
X226Y430D01*
X226Y428D01*
X230Y428D01*
X230Y426D01*
X234Y426D01*
X234Y424D01*
X238Y424D01*
X238Y422D01*
X240Y422D01*
X240Y420D01*
X242Y420D01*
X242Y418D01*
X244Y418D01*
X244Y416D01*
X266Y416D01*
X266Y418D01*
X268Y418D01*
X268Y420D01*
X270Y420D01*
X270Y422D01*
X274Y422D01*
X274Y424D01*
X276Y424D01*
X276Y426D01*
X280Y426D01*
X280Y428D01*
X284Y428D01*
X284Y430D01*
X292Y430D01*
X292Y432D01*
X220Y432D01*
G37*
D02*
G36*
X320Y432D02*
X320Y430D01*
X326Y430D01*
X326Y428D01*
X330Y428D01*
X330Y426D01*
X334Y426D01*
X334Y424D01*
X338Y424D01*
X338Y422D01*
X340Y422D01*
X340Y420D01*
X342Y420D01*
X342Y418D01*
X344Y418D01*
X344Y416D01*
X366Y416D01*
X366Y418D01*
X368Y418D01*
X368Y420D01*
X370Y420D01*
X370Y422D01*
X374Y422D01*
X374Y424D01*
X376Y424D01*
X376Y426D01*
X380Y426D01*
X380Y428D01*
X384Y428D01*
X384Y430D01*
X392Y430D01*
X392Y432D01*
X320Y432D01*
G37*
D02*
G36*
X420Y432D02*
X420Y430D01*
X426Y430D01*
X426Y428D01*
X430Y428D01*
X430Y426D01*
X434Y426D01*
X434Y424D01*
X438Y424D01*
X438Y422D01*
X440Y422D01*
X440Y420D01*
X442Y420D01*
X442Y418D01*
X444Y418D01*
X444Y416D01*
X466Y416D01*
X466Y418D01*
X468Y418D01*
X468Y420D01*
X470Y420D01*
X470Y422D01*
X474Y422D01*
X474Y424D01*
X476Y424D01*
X476Y426D01*
X480Y426D01*
X480Y428D01*
X484Y428D01*
X484Y430D01*
X492Y430D01*
X492Y432D01*
X420Y432D01*
G37*
D02*
G36*
X520Y432D02*
X520Y430D01*
X526Y430D01*
X526Y428D01*
X530Y428D01*
X530Y426D01*
X534Y426D01*
X534Y424D01*
X538Y424D01*
X538Y422D01*
X540Y422D01*
X540Y420D01*
X542Y420D01*
X542Y418D01*
X544Y418D01*
X544Y416D01*
X566Y416D01*
X566Y418D01*
X568Y418D01*
X568Y420D01*
X570Y420D01*
X570Y422D01*
X574Y422D01*
X574Y424D01*
X576Y424D01*
X576Y426D01*
X580Y426D01*
X580Y428D01*
X584Y428D01*
X584Y430D01*
X592Y430D01*
X592Y432D01*
X520Y432D01*
G37*
D02*
G36*
X1704Y492D02*
X1704Y472D01*
X1706Y472D01*
X1706Y470D01*
X1708Y470D01*
X1708Y468D01*
X1710Y468D01*
X1710Y466D01*
X1712Y466D01*
X1712Y464D01*
X1714Y464D01*
X1714Y462D01*
X1716Y462D01*
X1716Y460D01*
X1718Y460D01*
X1718Y458D01*
X1720Y458D01*
X1720Y456D01*
X1722Y456D01*
X1722Y454D01*
X1724Y454D01*
X1724Y452D01*
X1726Y452D01*
X1726Y450D01*
X1728Y450D01*
X1728Y448D01*
X1730Y448D01*
X1730Y446D01*
X1732Y446D01*
X1732Y442D01*
X1734Y442D01*
X1734Y438D01*
X1736Y438D01*
X1736Y434D01*
X1738Y434D01*
X1738Y224D01*
X1740Y224D01*
X1740Y222D01*
X1742Y222D01*
X1742Y220D01*
X1744Y220D01*
X1744Y218D01*
X1766Y218D01*
X1766Y220D01*
X1768Y220D01*
X1768Y222D01*
X1770Y222D01*
X1770Y224D01*
X1774Y224D01*
X1774Y462D01*
X1772Y462D01*
X1772Y464D01*
X1770Y464D01*
X1770Y466D01*
X1768Y466D01*
X1768Y468D01*
X1766Y468D01*
X1766Y470D01*
X1764Y470D01*
X1764Y472D01*
X1762Y472D01*
X1762Y474D01*
X1760Y474D01*
X1760Y476D01*
X1758Y476D01*
X1758Y478D01*
X1756Y478D01*
X1756Y480D01*
X1754Y480D01*
X1754Y482D01*
X1752Y482D01*
X1752Y484D01*
X1750Y484D01*
X1750Y486D01*
X1748Y486D01*
X1748Y488D01*
X1746Y488D01*
X1746Y490D01*
X1744Y490D01*
X1744Y492D01*
X1704Y492D01*
G37*
D02*
G36*
X744Y334D02*
X744Y332D01*
X742Y332D01*
X742Y330D01*
X738Y330D01*
X738Y274D01*
X736Y274D01*
X736Y248D01*
X756Y248D01*
X756Y252D01*
X758Y252D01*
X758Y254D01*
X760Y254D01*
X760Y258D01*
X762Y258D01*
X762Y260D01*
X764Y260D01*
X764Y262D01*
X766Y262D01*
X766Y264D01*
X768Y264D01*
X768Y266D01*
X770Y266D01*
X770Y268D01*
X772Y268D01*
X772Y270D01*
X774Y270D01*
X774Y328D01*
X772Y328D01*
X772Y330D01*
X770Y330D01*
X770Y332D01*
X766Y332D01*
X766Y334D01*
X744Y334D01*
G37*
D02*
G36*
X1534Y444D02*
X1534Y424D01*
X1538Y424D01*
X1538Y422D01*
X1540Y422D01*
X1540Y420D01*
X1542Y420D01*
X1542Y418D01*
X1544Y418D01*
X1544Y416D01*
X1546Y416D01*
X1546Y414D01*
X1548Y414D01*
X1548Y412D01*
X1550Y412D01*
X1550Y410D01*
X1552Y410D01*
X1552Y408D01*
X1554Y408D01*
X1554Y404D01*
X1556Y404D01*
X1556Y400D01*
X1558Y400D01*
X1558Y396D01*
X1560Y396D01*
X1560Y390D01*
X1562Y390D01*
X1562Y362D01*
X1560Y362D01*
X1560Y354D01*
X1558Y354D01*
X1558Y350D01*
X1556Y350D01*
X1556Y346D01*
X1554Y346D01*
X1554Y344D01*
X1552Y344D01*
X1552Y340D01*
X1550Y340D01*
X1550Y338D01*
X1548Y338D01*
X1548Y336D01*
X1546Y336D01*
X1546Y334D01*
X1544Y334D01*
X1544Y332D01*
X1542Y332D01*
X1542Y330D01*
X1538Y330D01*
X1538Y328D01*
X1536Y328D01*
X1536Y326D01*
X1532Y326D01*
X1532Y324D01*
X1528Y324D01*
X1528Y322D01*
X1524Y322D01*
X1524Y320D01*
X1516Y320D01*
X1516Y318D01*
X1674Y318D01*
X1674Y412D01*
X1672Y412D01*
X1672Y414D01*
X1670Y414D01*
X1670Y416D01*
X1668Y416D01*
X1668Y418D01*
X1666Y418D01*
X1666Y420D01*
X1664Y420D01*
X1664Y422D01*
X1662Y422D01*
X1662Y424D01*
X1660Y424D01*
X1660Y426D01*
X1658Y426D01*
X1658Y428D01*
X1656Y428D01*
X1656Y430D01*
X1654Y430D01*
X1654Y432D01*
X1652Y432D01*
X1652Y434D01*
X1650Y434D01*
X1650Y436D01*
X1648Y436D01*
X1648Y438D01*
X1646Y438D01*
X1646Y440D01*
X1644Y440D01*
X1644Y442D01*
X1642Y442D01*
X1642Y444D01*
X1534Y444D01*
G37*
D02*
G36*
X844Y334D02*
X844Y332D01*
X842Y332D01*
X842Y330D01*
X838Y330D01*
X838Y318D01*
X896Y318D01*
X896Y320D01*
X888Y320D01*
X888Y322D01*
X882Y322D01*
X882Y324D01*
X878Y324D01*
X878Y326D01*
X874Y326D01*
X874Y328D01*
X872Y328D01*
X872Y330D01*
X870Y330D01*
X870Y332D01*
X866Y332D01*
X866Y334D01*
X844Y334D01*
G37*
D02*
G36*
X944Y334D02*
X944Y332D01*
X942Y332D01*
X942Y330D01*
X938Y330D01*
X938Y328D01*
X936Y328D01*
X936Y326D01*
X932Y326D01*
X932Y324D01*
X928Y324D01*
X928Y322D01*
X924Y322D01*
X924Y320D01*
X916Y320D01*
X916Y318D01*
X996Y318D01*
X996Y320D01*
X988Y320D01*
X988Y322D01*
X982Y322D01*
X982Y324D01*
X978Y324D01*
X978Y326D01*
X974Y326D01*
X974Y328D01*
X972Y328D01*
X972Y330D01*
X970Y330D01*
X970Y332D01*
X966Y332D01*
X966Y334D01*
X944Y334D01*
G37*
D02*
G36*
X1044Y334D02*
X1044Y332D01*
X1042Y332D01*
X1042Y330D01*
X1038Y330D01*
X1038Y328D01*
X1036Y328D01*
X1036Y326D01*
X1032Y326D01*
X1032Y324D01*
X1028Y324D01*
X1028Y322D01*
X1024Y322D01*
X1024Y320D01*
X1016Y320D01*
X1016Y318D01*
X1096Y318D01*
X1096Y320D01*
X1088Y320D01*
X1088Y322D01*
X1082Y322D01*
X1082Y324D01*
X1078Y324D01*
X1078Y326D01*
X1074Y326D01*
X1074Y328D01*
X1072Y328D01*
X1072Y330D01*
X1070Y330D01*
X1070Y332D01*
X1066Y332D01*
X1066Y334D01*
X1044Y334D01*
G37*
D02*
G36*
X1144Y334D02*
X1144Y332D01*
X1142Y332D01*
X1142Y330D01*
X1138Y330D01*
X1138Y328D01*
X1136Y328D01*
X1136Y326D01*
X1132Y326D01*
X1132Y324D01*
X1128Y324D01*
X1128Y322D01*
X1124Y322D01*
X1124Y320D01*
X1116Y320D01*
X1116Y318D01*
X1196Y318D01*
X1196Y320D01*
X1188Y320D01*
X1188Y322D01*
X1182Y322D01*
X1182Y324D01*
X1178Y324D01*
X1178Y326D01*
X1174Y326D01*
X1174Y328D01*
X1172Y328D01*
X1172Y330D01*
X1170Y330D01*
X1170Y332D01*
X1166Y332D01*
X1166Y334D01*
X1144Y334D01*
G37*
D02*
G36*
X1244Y334D02*
X1244Y332D01*
X1242Y332D01*
X1242Y330D01*
X1238Y330D01*
X1238Y328D01*
X1236Y328D01*
X1236Y326D01*
X1232Y326D01*
X1232Y324D01*
X1228Y324D01*
X1228Y322D01*
X1224Y322D01*
X1224Y320D01*
X1216Y320D01*
X1216Y318D01*
X1296Y318D01*
X1296Y320D01*
X1288Y320D01*
X1288Y322D01*
X1282Y322D01*
X1282Y324D01*
X1278Y324D01*
X1278Y326D01*
X1274Y326D01*
X1274Y328D01*
X1272Y328D01*
X1272Y330D01*
X1270Y330D01*
X1270Y332D01*
X1266Y332D01*
X1266Y334D01*
X1244Y334D01*
G37*
D02*
G36*
X1344Y334D02*
X1344Y332D01*
X1342Y332D01*
X1342Y330D01*
X1338Y330D01*
X1338Y328D01*
X1336Y328D01*
X1336Y326D01*
X1332Y326D01*
X1332Y324D01*
X1328Y324D01*
X1328Y322D01*
X1324Y322D01*
X1324Y320D01*
X1316Y320D01*
X1316Y318D01*
X1396Y318D01*
X1396Y320D01*
X1388Y320D01*
X1388Y322D01*
X1382Y322D01*
X1382Y324D01*
X1378Y324D01*
X1378Y326D01*
X1374Y326D01*
X1374Y328D01*
X1372Y328D01*
X1372Y330D01*
X1370Y330D01*
X1370Y332D01*
X1366Y332D01*
X1366Y334D01*
X1344Y334D01*
G37*
D02*
G36*
X1444Y334D02*
X1444Y332D01*
X1442Y332D01*
X1442Y330D01*
X1438Y330D01*
X1438Y328D01*
X1436Y328D01*
X1436Y326D01*
X1432Y326D01*
X1432Y324D01*
X1428Y324D01*
X1428Y322D01*
X1424Y322D01*
X1424Y320D01*
X1416Y320D01*
X1416Y318D01*
X1496Y318D01*
X1496Y320D01*
X1488Y320D01*
X1488Y322D01*
X1482Y322D01*
X1482Y324D01*
X1478Y324D01*
X1478Y326D01*
X1474Y326D01*
X1474Y328D01*
X1472Y328D01*
X1472Y330D01*
X1470Y330D01*
X1470Y332D01*
X1466Y332D01*
X1466Y334D01*
X1444Y334D01*
G37*
D02*
G36*
X838Y318D02*
X838Y316D01*
X1674Y316D01*
X1674Y318D01*
X838Y318D01*
G37*
D02*
G36*
X838Y318D02*
X838Y316D01*
X1674Y316D01*
X1674Y318D01*
X838Y318D01*
G37*
D02*
G36*
X838Y318D02*
X838Y316D01*
X1674Y316D01*
X1674Y318D01*
X838Y318D01*
G37*
D02*
G36*
X838Y318D02*
X838Y316D01*
X1674Y316D01*
X1674Y318D01*
X838Y318D01*
G37*
D02*
G36*
X838Y318D02*
X838Y316D01*
X1674Y316D01*
X1674Y318D01*
X838Y318D01*
G37*
D02*
G36*
X838Y318D02*
X838Y316D01*
X1674Y316D01*
X1674Y318D01*
X838Y318D01*
G37*
D02*
G36*
X838Y318D02*
X838Y316D01*
X1674Y316D01*
X1674Y318D01*
X838Y318D01*
G37*
D02*
G36*
X838Y318D02*
X838Y316D01*
X1674Y316D01*
X1674Y318D01*
X838Y318D01*
G37*
D02*
G36*
X838Y316D02*
X838Y280D01*
X916Y280D01*
X916Y278D01*
X924Y278D01*
X924Y276D01*
X928Y276D01*
X928Y274D01*
X932Y274D01*
X932Y272D01*
X936Y272D01*
X936Y270D01*
X938Y270D01*
X938Y268D01*
X940Y268D01*
X940Y266D01*
X944Y266D01*
X944Y264D01*
X946Y264D01*
X946Y260D01*
X948Y260D01*
X948Y258D01*
X1520Y258D01*
X1520Y256D01*
X1528Y256D01*
X1528Y254D01*
X1534Y254D01*
X1534Y252D01*
X1540Y252D01*
X1540Y250D01*
X1544Y250D01*
X1544Y248D01*
X1548Y248D01*
X1548Y246D01*
X1550Y246D01*
X1550Y244D01*
X1554Y244D01*
X1554Y242D01*
X1556Y242D01*
X1556Y240D01*
X1558Y240D01*
X1558Y238D01*
X1560Y238D01*
X1560Y236D01*
X1564Y236D01*
X1564Y234D01*
X1566Y234D01*
X1566Y230D01*
X1568Y230D01*
X1568Y228D01*
X1570Y228D01*
X1570Y226D01*
X1572Y226D01*
X1572Y224D01*
X1574Y224D01*
X1574Y220D01*
X1576Y220D01*
X1576Y218D01*
X1578Y218D01*
X1578Y214D01*
X1580Y214D01*
X1580Y210D01*
X1582Y210D01*
X1582Y204D01*
X1584Y204D01*
X1584Y198D01*
X1586Y198D01*
X1586Y190D01*
X1588Y190D01*
X1588Y162D01*
X1586Y162D01*
X1586Y152D01*
X1584Y152D01*
X1584Y146D01*
X1582Y146D01*
X1582Y142D01*
X1580Y142D01*
X1580Y138D01*
X1578Y138D01*
X1578Y134D01*
X1576Y134D01*
X1576Y130D01*
X1574Y130D01*
X1574Y128D01*
X1572Y128D01*
X1572Y108D01*
X1672Y108D01*
X1672Y128D01*
X1670Y128D01*
X1670Y130D01*
X1668Y130D01*
X1668Y132D01*
X1664Y132D01*
X1664Y134D01*
X1662Y134D01*
X1662Y138D01*
X1660Y138D01*
X1660Y140D01*
X1658Y140D01*
X1658Y142D01*
X1656Y142D01*
X1656Y146D01*
X1654Y146D01*
X1654Y148D01*
X1652Y148D01*
X1652Y152D01*
X1650Y152D01*
X1650Y158D01*
X1648Y158D01*
X1648Y168D01*
X1646Y168D01*
X1646Y182D01*
X1648Y182D01*
X1648Y192D01*
X1650Y192D01*
X1650Y198D01*
X1652Y198D01*
X1652Y202D01*
X1654Y202D01*
X1654Y206D01*
X1656Y206D01*
X1656Y208D01*
X1658Y208D01*
X1658Y212D01*
X1660Y212D01*
X1660Y214D01*
X1662Y214D01*
X1662Y216D01*
X1664Y216D01*
X1664Y218D01*
X1666Y218D01*
X1666Y220D01*
X1668Y220D01*
X1668Y222D01*
X1670Y222D01*
X1670Y224D01*
X1674Y224D01*
X1674Y316D01*
X838Y316D01*
G37*
D02*
G36*
X838Y280D02*
X838Y268D01*
X840Y268D01*
X840Y266D01*
X844Y266D01*
X844Y264D01*
X846Y264D01*
X846Y262D01*
X866Y262D01*
X866Y264D01*
X868Y264D01*
X868Y266D01*
X870Y266D01*
X870Y268D01*
X872Y268D01*
X872Y270D01*
X874Y270D01*
X874Y272D01*
X878Y272D01*
X878Y274D01*
X882Y274D01*
X882Y276D01*
X886Y276D01*
X886Y278D01*
X894Y278D01*
X894Y280D01*
X838Y280D01*
G37*
D02*
G36*
X950Y258D02*
X950Y256D01*
X952Y256D01*
X952Y252D01*
X954Y252D01*
X954Y248D01*
X956Y248D01*
X956Y244D01*
X958Y244D01*
X958Y236D01*
X960Y236D01*
X960Y214D01*
X958Y214D01*
X958Y206D01*
X956Y206D01*
X956Y202D01*
X954Y202D01*
X954Y198D01*
X952Y198D01*
X952Y194D01*
X950Y194D01*
X950Y192D01*
X948Y192D01*
X948Y190D01*
X946Y190D01*
X946Y188D01*
X944Y188D01*
X944Y186D01*
X942Y186D01*
X942Y184D01*
X940Y184D01*
X940Y182D01*
X938Y182D01*
X938Y180D01*
X934Y180D01*
X934Y178D01*
X930Y178D01*
X930Y176D01*
X928Y176D01*
X928Y174D01*
X922Y174D01*
X922Y172D01*
X912Y172D01*
X912Y170D01*
X1422Y170D01*
X1422Y184D01*
X1424Y184D01*
X1424Y196D01*
X1426Y196D01*
X1426Y202D01*
X1428Y202D01*
X1428Y208D01*
X1430Y208D01*
X1430Y212D01*
X1432Y212D01*
X1432Y216D01*
X1434Y216D01*
X1434Y220D01*
X1436Y220D01*
X1436Y222D01*
X1438Y222D01*
X1438Y224D01*
X1440Y224D01*
X1440Y228D01*
X1442Y228D01*
X1442Y230D01*
X1444Y230D01*
X1444Y232D01*
X1446Y232D01*
X1446Y234D01*
X1448Y234D01*
X1448Y236D01*
X1450Y236D01*
X1450Y238D01*
X1452Y238D01*
X1452Y240D01*
X1454Y240D01*
X1454Y242D01*
X1458Y242D01*
X1458Y244D01*
X1460Y244D01*
X1460Y246D01*
X1464Y246D01*
X1464Y248D01*
X1468Y248D01*
X1468Y250D01*
X1472Y250D01*
X1472Y252D01*
X1476Y252D01*
X1476Y254D01*
X1482Y254D01*
X1482Y256D01*
X1492Y256D01*
X1492Y258D01*
X950Y258D01*
G37*
D02*
G36*
X736Y204D02*
X736Y170D01*
X798Y170D01*
X798Y172D01*
X788Y172D01*
X788Y174D01*
X784Y174D01*
X784Y176D01*
X780Y176D01*
X780Y178D01*
X776Y178D01*
X776Y180D01*
X774Y180D01*
X774Y182D01*
X770Y182D01*
X770Y184D01*
X768Y184D01*
X768Y186D01*
X766Y186D01*
X766Y188D01*
X764Y188D01*
X764Y190D01*
X762Y190D01*
X762Y194D01*
X760Y194D01*
X760Y196D01*
X758Y196D01*
X758Y200D01*
X756Y200D01*
X756Y204D01*
X736Y204D01*
G37*
D02*
G36*
X844Y188D02*
X844Y186D01*
X842Y186D01*
X842Y184D01*
X840Y184D01*
X840Y182D01*
X838Y182D01*
X838Y180D01*
X834Y180D01*
X834Y178D01*
X830Y178D01*
X830Y176D01*
X828Y176D01*
X828Y174D01*
X822Y174D01*
X822Y172D01*
X812Y172D01*
X812Y170D01*
X898Y170D01*
X898Y172D01*
X890Y172D01*
X890Y174D01*
X884Y174D01*
X884Y176D01*
X880Y176D01*
X880Y178D01*
X876Y178D01*
X876Y180D01*
X874Y180D01*
X874Y182D01*
X870Y182D01*
X870Y184D01*
X868Y184D01*
X868Y186D01*
X866Y186D01*
X866Y188D01*
X844Y188D01*
G37*
D02*
G36*
X736Y170D02*
X736Y168D01*
X1422Y168D01*
X1422Y170D01*
X736Y170D01*
G37*
D02*
G36*
X736Y170D02*
X736Y168D01*
X1422Y168D01*
X1422Y170D01*
X736Y170D01*
G37*
D02*
G36*
X736Y170D02*
X736Y168D01*
X1422Y168D01*
X1422Y170D01*
X736Y170D01*
G37*
D02*
G36*
X736Y168D02*
X736Y138D01*
X738Y138D01*
X738Y136D01*
X740Y136D01*
X740Y134D01*
X742Y134D01*
X742Y132D01*
X744Y132D01*
X744Y130D01*
X746Y130D01*
X746Y128D01*
X748Y128D01*
X748Y126D01*
X750Y126D01*
X750Y124D01*
X752Y124D01*
X752Y122D01*
X754Y122D01*
X754Y120D01*
X756Y120D01*
X756Y118D01*
X758Y118D01*
X758Y116D01*
X760Y116D01*
X760Y114D01*
X762Y114D01*
X762Y112D01*
X764Y112D01*
X764Y110D01*
X766Y110D01*
X766Y108D01*
X1438Y108D01*
X1438Y128D01*
X1436Y128D01*
X1436Y132D01*
X1434Y132D01*
X1434Y136D01*
X1432Y136D01*
X1432Y138D01*
X1430Y138D01*
X1430Y144D01*
X1428Y144D01*
X1428Y148D01*
X1426Y148D01*
X1426Y156D01*
X1424Y156D01*
X1424Y166D01*
X1422Y166D01*
X1422Y168D01*
X736Y168D01*
G37*
D02*
G36*
X344Y334D02*
X344Y332D01*
X342Y332D01*
X342Y330D01*
X338Y330D01*
X338Y328D01*
X336Y328D01*
X336Y326D01*
X332Y326D01*
X332Y324D01*
X328Y324D01*
X328Y322D01*
X324Y322D01*
X324Y320D01*
X316Y320D01*
X316Y318D01*
X396Y318D01*
X396Y320D01*
X388Y320D01*
X388Y322D01*
X382Y322D01*
X382Y324D01*
X378Y324D01*
X378Y326D01*
X374Y326D01*
X374Y328D01*
X372Y328D01*
X372Y330D01*
X370Y330D01*
X370Y332D01*
X366Y332D01*
X366Y334D01*
X344Y334D01*
G37*
D02*
G36*
X444Y334D02*
X444Y332D01*
X442Y332D01*
X442Y330D01*
X438Y330D01*
X438Y328D01*
X436Y328D01*
X436Y326D01*
X432Y326D01*
X432Y324D01*
X428Y324D01*
X428Y322D01*
X424Y322D01*
X424Y320D01*
X416Y320D01*
X416Y318D01*
X496Y318D01*
X496Y320D01*
X488Y320D01*
X488Y322D01*
X482Y322D01*
X482Y324D01*
X478Y324D01*
X478Y326D01*
X474Y326D01*
X474Y328D01*
X472Y328D01*
X472Y330D01*
X470Y330D01*
X470Y332D01*
X466Y332D01*
X466Y334D01*
X444Y334D01*
G37*
D02*
G36*
X544Y334D02*
X544Y332D01*
X542Y332D01*
X542Y330D01*
X538Y330D01*
X538Y328D01*
X536Y328D01*
X536Y326D01*
X532Y326D01*
X532Y324D01*
X528Y324D01*
X528Y322D01*
X524Y322D01*
X524Y320D01*
X516Y320D01*
X516Y318D01*
X596Y318D01*
X596Y320D01*
X588Y320D01*
X588Y322D01*
X582Y322D01*
X582Y324D01*
X578Y324D01*
X578Y326D01*
X574Y326D01*
X574Y328D01*
X572Y328D01*
X572Y330D01*
X570Y330D01*
X570Y332D01*
X566Y332D01*
X566Y334D01*
X544Y334D01*
G37*
D02*
G36*
X644Y334D02*
X644Y332D01*
X642Y332D01*
X642Y330D01*
X638Y330D01*
X638Y328D01*
X636Y328D01*
X636Y326D01*
X632Y326D01*
X632Y324D01*
X628Y324D01*
X628Y322D01*
X624Y322D01*
X624Y320D01*
X616Y320D01*
X616Y318D01*
X674Y318D01*
X674Y328D01*
X672Y328D01*
X672Y330D01*
X670Y330D01*
X670Y332D01*
X666Y332D01*
X666Y334D01*
X644Y334D01*
G37*
D02*
G36*
X302Y318D02*
X302Y316D01*
X674Y316D01*
X674Y318D01*
X302Y318D01*
G37*
D02*
G36*
X302Y318D02*
X302Y316D01*
X674Y316D01*
X674Y318D01*
X302Y318D01*
G37*
D02*
G36*
X302Y318D02*
X302Y316D01*
X674Y316D01*
X674Y318D01*
X302Y318D01*
G37*
D02*
G36*
X302Y318D02*
X302Y316D01*
X674Y316D01*
X674Y318D01*
X302Y318D01*
G37*
D02*
G36*
X302Y316D02*
X302Y298D01*
X306Y298D01*
X306Y296D01*
X308Y296D01*
X308Y294D01*
X312Y294D01*
X312Y292D01*
X314Y292D01*
X314Y290D01*
X318Y290D01*
X318Y288D01*
X320Y288D01*
X320Y286D01*
X324Y286D01*
X324Y284D01*
X326Y284D01*
X326Y282D01*
X330Y282D01*
X330Y280D01*
X332Y280D01*
X332Y278D01*
X336Y278D01*
X336Y276D01*
X338Y276D01*
X338Y274D01*
X342Y274D01*
X342Y272D01*
X344Y272D01*
X344Y270D01*
X348Y270D01*
X348Y268D01*
X350Y268D01*
X350Y266D01*
X354Y266D01*
X354Y264D01*
X356Y264D01*
X356Y262D01*
X360Y262D01*
X360Y260D01*
X362Y260D01*
X362Y258D01*
X366Y258D01*
X366Y256D01*
X368Y256D01*
X368Y254D01*
X372Y254D01*
X372Y252D01*
X374Y252D01*
X374Y250D01*
X376Y250D01*
X376Y248D01*
X378Y248D01*
X378Y246D01*
X380Y246D01*
X380Y244D01*
X382Y244D01*
X382Y240D01*
X384Y240D01*
X384Y236D01*
X386Y236D01*
X386Y234D01*
X468Y234D01*
X468Y232D01*
X474Y232D01*
X474Y230D01*
X480Y230D01*
X480Y228D01*
X484Y228D01*
X484Y226D01*
X488Y226D01*
X488Y224D01*
X490Y224D01*
X490Y222D01*
X492Y222D01*
X492Y220D01*
X494Y220D01*
X494Y218D01*
X498Y218D01*
X498Y214D01*
X500Y214D01*
X500Y212D01*
X502Y212D01*
X502Y210D01*
X504Y210D01*
X504Y208D01*
X506Y208D01*
X506Y204D01*
X508Y204D01*
X508Y200D01*
X510Y200D01*
X510Y194D01*
X512Y194D01*
X512Y188D01*
X514Y188D01*
X514Y164D01*
X512Y164D01*
X512Y156D01*
X510Y156D01*
X510Y150D01*
X508Y150D01*
X508Y146D01*
X506Y146D01*
X506Y144D01*
X504Y144D01*
X504Y140D01*
X502Y140D01*
X502Y138D01*
X500Y138D01*
X500Y136D01*
X498Y136D01*
X498Y134D01*
X496Y134D01*
X496Y132D01*
X494Y132D01*
X494Y130D01*
X492Y130D01*
X492Y128D01*
X488Y128D01*
X488Y126D01*
X486Y126D01*
X486Y124D01*
X482Y124D01*
X482Y122D01*
X478Y122D01*
X478Y120D01*
X472Y120D01*
X472Y118D01*
X462Y118D01*
X462Y116D01*
X674Y116D01*
X674Y120D01*
X672Y120D01*
X672Y278D01*
X674Y278D01*
X674Y316D01*
X302Y316D01*
G37*
D02*
G36*
X386Y234D02*
X386Y226D01*
X388Y226D01*
X388Y224D01*
X390Y224D01*
X390Y222D01*
X392Y222D01*
X392Y220D01*
X394Y220D01*
X394Y218D01*
X416Y218D01*
X416Y220D01*
X418Y220D01*
X418Y222D01*
X420Y222D01*
X420Y224D01*
X424Y224D01*
X424Y226D01*
X426Y226D01*
X426Y228D01*
X430Y228D01*
X430Y230D01*
X436Y230D01*
X436Y232D01*
X444Y232D01*
X444Y234D01*
X386Y234D01*
G37*
D02*
G36*
X184Y148D02*
X184Y146D01*
X182Y146D01*
X182Y142D01*
X180Y142D01*
X180Y138D01*
X178Y138D01*
X178Y134D01*
X176Y134D01*
X176Y130D01*
X174Y130D01*
X174Y128D01*
X172Y128D01*
X172Y124D01*
X170Y124D01*
X170Y122D01*
X168Y122D01*
X168Y120D01*
X166Y120D01*
X166Y118D01*
X164Y118D01*
X164Y116D01*
X248Y116D01*
X248Y118D01*
X238Y118D01*
X238Y120D01*
X232Y120D01*
X232Y122D01*
X228Y122D01*
X228Y124D01*
X226Y124D01*
X226Y126D01*
X222Y126D01*
X222Y128D01*
X220Y128D01*
X220Y130D01*
X218Y130D01*
X218Y132D01*
X214Y132D01*
X214Y134D01*
X212Y134D01*
X212Y138D01*
X210Y138D01*
X210Y140D01*
X208Y140D01*
X208Y142D01*
X206Y142D01*
X206Y146D01*
X204Y146D01*
X204Y148D01*
X184Y148D01*
G37*
D02*
G36*
X294Y132D02*
X294Y130D01*
X292Y130D01*
X292Y128D01*
X288Y128D01*
X288Y126D01*
X286Y126D01*
X286Y124D01*
X282Y124D01*
X282Y122D01*
X278Y122D01*
X278Y120D01*
X272Y120D01*
X272Y118D01*
X262Y118D01*
X262Y116D01*
X348Y116D01*
X348Y118D01*
X338Y118D01*
X338Y120D01*
X332Y120D01*
X332Y122D01*
X328Y122D01*
X328Y124D01*
X326Y124D01*
X326Y126D01*
X322Y126D01*
X322Y128D01*
X320Y128D01*
X320Y130D01*
X318Y130D01*
X318Y132D01*
X294Y132D01*
G37*
D02*
G36*
X394Y132D02*
X394Y130D01*
X392Y130D01*
X392Y128D01*
X388Y128D01*
X388Y126D01*
X386Y126D01*
X386Y124D01*
X382Y124D01*
X382Y122D01*
X378Y122D01*
X378Y120D01*
X372Y120D01*
X372Y118D01*
X362Y118D01*
X362Y116D01*
X448Y116D01*
X448Y118D01*
X438Y118D01*
X438Y120D01*
X432Y120D01*
X432Y122D01*
X428Y122D01*
X428Y124D01*
X426Y124D01*
X426Y126D01*
X422Y126D01*
X422Y128D01*
X420Y128D01*
X420Y130D01*
X418Y130D01*
X418Y132D01*
X394Y132D01*
G37*
D02*
G36*
X162Y116D02*
X162Y114D01*
X674Y114D01*
X674Y116D01*
X162Y116D01*
G37*
D02*
G36*
X162Y116D02*
X162Y114D01*
X674Y114D01*
X674Y116D01*
X162Y116D01*
G37*
D02*
G36*
X162Y116D02*
X162Y114D01*
X674Y114D01*
X674Y116D01*
X162Y116D01*
G37*
D02*
G36*
X162Y116D02*
X162Y114D01*
X674Y114D01*
X674Y116D01*
X162Y116D01*
G37*
D02*
G36*
X160Y114D02*
X160Y112D01*
X158Y112D01*
X158Y110D01*
X154Y110D01*
X154Y108D01*
X152Y108D01*
X152Y106D01*
X150Y106D01*
X150Y104D01*
X146Y104D01*
X146Y102D01*
X142Y102D01*
X142Y100D01*
X138Y100D01*
X138Y98D01*
X132Y98D01*
X132Y96D01*
X126Y96D01*
X126Y94D01*
X114Y94D01*
X114Y92D01*
X692Y92D01*
X692Y94D01*
X690Y94D01*
X690Y96D01*
X688Y96D01*
X688Y98D01*
X686Y98D01*
X686Y100D01*
X684Y100D01*
X684Y102D01*
X682Y102D01*
X682Y104D01*
X680Y104D01*
X680Y106D01*
X678Y106D01*
X678Y110D01*
X676Y110D01*
X676Y114D01*
X160Y114D01*
G37*
D02*
G36*
X40Y106D02*
X40Y92D01*
X96Y92D01*
X96Y94D01*
X86Y94D01*
X86Y96D01*
X78Y96D01*
X78Y98D01*
X74Y98D01*
X74Y100D01*
X68Y100D01*
X68Y102D01*
X66Y102D01*
X66Y104D01*
X62Y104D01*
X62Y106D01*
X40Y106D01*
G37*
D02*
G36*
X40Y92D02*
X40Y90D01*
X694Y90D01*
X694Y92D01*
X40Y92D01*
G37*
D02*
G36*
X40Y92D02*
X40Y90D01*
X694Y90D01*
X694Y92D01*
X40Y92D01*
G37*
D02*
G36*
X40Y90D02*
X40Y42D01*
X724Y42D01*
X724Y62D01*
X722Y62D01*
X722Y64D01*
X720Y64D01*
X720Y66D01*
X718Y66D01*
X718Y68D01*
X716Y68D01*
X716Y70D01*
X714Y70D01*
X714Y72D01*
X712Y72D01*
X712Y74D01*
X710Y74D01*
X710Y76D01*
X708Y76D01*
X708Y78D01*
X706Y78D01*
X706Y80D01*
X704Y80D01*
X704Y82D01*
X702Y82D01*
X702Y84D01*
X700Y84D01*
X700Y86D01*
X698Y86D01*
X698Y88D01*
X696Y88D01*
X696Y90D01*
X40Y90D01*
G37*
D02*
G36*
X1080Y1590D02*
X1127Y1590D01*
X1127Y1548D01*
X1080Y1548D01*
X1080Y1590D01*
G37*
D02*
G36*
X632Y1586D02*
X675Y1586D01*
X675Y1544D01*
X632Y1544D01*
X632Y1586D01*
G37*
D02*
G36*
X632Y1510D02*
X675Y1510D01*
X675Y1468D01*
X632Y1468D01*
X632Y1510D01*
G37*
D02*
G36*
X594Y1548D02*
X636Y1548D01*
X636Y1505D01*
X594Y1505D01*
X594Y1548D01*
G37*
D02*
G36*
X670Y1548D02*
X712Y1548D01*
X712Y1505D01*
X670Y1505D01*
X670Y1548D01*
G37*
D02*
G36*
X1382Y1636D02*
X1425Y1636D01*
X1425Y1594D01*
X1382Y1594D01*
X1382Y1636D01*
G37*
D02*
G36*
X1982Y1456D02*
X2025Y1456D01*
X2025Y1418D01*
X1982Y1418D01*
X1982Y1456D01*
G37*
D02*
G36*
X982Y1342D02*
X1025Y1342D01*
X1025Y1300D01*
X982Y1300D01*
X982Y1342D01*
G37*
D02*
G36*
X982Y1266D02*
X1025Y1266D01*
X1025Y1224D01*
X982Y1224D01*
X982Y1266D01*
G37*
D02*
G36*
X1020Y1304D02*
X1062Y1304D01*
X1062Y1261D01*
X1020Y1261D01*
X1020Y1304D01*
G37*
D02*
G36*
X882Y436D02*
X925Y436D01*
X925Y396D01*
X882Y396D01*
X882Y436D01*
G37*
D02*
G36*
X883Y214D02*
X924Y214D01*
X924Y170D01*
X883Y170D01*
X883Y214D01*
G37*
D02*
G36*
X918Y249D02*
X960Y249D01*
X960Y208D01*
X918Y208D01*
X918Y249D01*
G37*
D02*
G36*
X130Y1592D02*
X177Y1592D01*
X177Y1548D01*
X130Y1548D01*
X130Y1592D01*
G37*
D02*
G36*
X130Y1506D02*
X177Y1506D01*
X177Y1464D01*
X130Y1464D01*
X130Y1506D01*
G37*
D02*
G36*
X90Y1550D02*
X132Y1550D01*
X132Y1503D01*
X90Y1503D01*
X90Y1550D01*
G37*
D02*
G36*
X174Y1550D02*
X218Y1550D01*
X218Y1503D01*
X174Y1503D01*
X174Y1550D01*
G37*
D02*
G36*
X982Y1086D02*
X1025Y1086D01*
X1025Y1046D01*
X982Y1046D01*
X982Y1086D01*
G37*
D02*
G36*
X982Y1012D02*
X1025Y1012D01*
X1025Y968D01*
X982Y968D01*
X982Y1012D01*
G37*
D02*
G36*
X1020Y1050D02*
X1062Y1050D01*
X1062Y1007D01*
X1020Y1007D01*
X1020Y1050D01*
G37*
D02*
G36*
X431Y238D02*
X476Y238D01*
X476Y198D01*
X431Y198D01*
X431Y238D01*
G37*
D02*
G36*
X431Y160D02*
X476Y160D01*
X476Y116D01*
X431Y116D01*
X431Y160D01*
G37*
D02*
G36*
X472Y201D02*
X514Y201D01*
X514Y156D01*
X472Y156D01*
X472Y201D01*
G37*
D02*
G36*
X1881Y238D02*
X1926Y238D01*
X1926Y198D01*
X1881Y198D01*
X1881Y238D01*
G37*
D02*
G36*
X782Y736D02*
X825Y736D01*
X825Y696D01*
X782Y696D01*
X782Y736D01*
G37*
D02*
G36*
X782Y662D02*
X825Y662D01*
X825Y618D01*
X782Y618D01*
X782Y662D01*
G37*
D02*
G36*
X733Y1184D02*
X774Y1184D01*
X774Y1144D01*
X733Y1144D01*
X733Y1184D01*
G37*
D02*
G36*
X696Y1149D02*
X738Y1149D01*
X738Y1108D01*
X696Y1108D01*
X696Y1149D01*
G37*
D02*
G36*
X768Y1149D02*
X810Y1149D01*
X810Y1108D01*
X768Y1108D01*
X768Y1149D01*
G37*
D02*
G36*
X533Y1184D02*
X574Y1184D01*
X574Y1144D01*
X533Y1144D01*
X533Y1184D01*
G37*
D02*
G36*
X496Y1149D02*
X538Y1149D01*
X538Y1108D01*
X496Y1108D01*
X496Y1149D01*
G37*
D02*
G36*
X568Y1149D02*
X610Y1149D01*
X610Y1108D01*
X568Y1108D01*
X568Y1149D01*
G37*
D02*
G36*
X1482Y1260D02*
X1525Y1260D01*
X1525Y1218D01*
X1482Y1218D01*
X1482Y1260D01*
G37*
D02*
G36*
X1444Y1298D02*
X1486Y1298D01*
X1486Y1255D01*
X1444Y1255D01*
X1444Y1298D01*
G37*
D02*
G36*
X1520Y1298D02*
X1562Y1298D01*
X1562Y1255D01*
X1520Y1255D01*
X1520Y1298D01*
G37*
D02*
G36*
X1482Y1080D02*
X1525Y1080D01*
X1525Y1040D01*
X1482Y1040D01*
X1482Y1080D01*
G37*
D02*
G36*
X1482Y1006D02*
X1525Y1006D01*
X1525Y962D01*
X1482Y962D01*
X1482Y1006D01*
G37*
D02*
G36*
X1444Y1044D02*
X1486Y1044D01*
X1486Y1001D01*
X1444Y1001D01*
X1444Y1044D01*
G37*
D02*
G36*
X1520Y1044D02*
X1562Y1044D01*
X1562Y1001D01*
X1520Y1001D01*
X1520Y1044D01*
G37*
D02*
G04 End of Copper0*
M02*