; NON-PLATED HOLES START AT T1
; THROUGH (PLATED) HOLES START AT T100
M48
INCH
T1C0.125984
T100C0.031555
T101C0.038000
T102C0.030000
T103C0.035000
T104C0.031496
T105C0.040255
T106C0.042000
T107C0.043307
%
T1
X019554Y012250
X015054Y001750
X001054Y010750
X001054Y001750
T100
X005623Y008750
T101
X002554Y001750
X020054Y001750
X019054Y001750
X018054Y001750
X017054Y006750
X017054Y001750
X004554Y001750
X018054Y006750
X020054Y006750
X019054Y006750
X003554Y001750
T102
X009054Y002250
X005554Y010248
X007554Y010248
X005554Y011250
X008052Y002250
X007554Y011250
T103
X015054Y015750
X006554Y013250
X003054Y006750
X010054Y003750
X015054Y010191
X010054Y006750
X012054Y006750
X014054Y015750
X015054Y012750
X010054Y010250
X002054Y006750
X004054Y006750
X011825Y010250
X015054Y006750
X013054Y006750
X011054Y013750
X009054Y003750
X011054Y006750
X007054Y003750
X006054Y006750
X005054Y006750
X012054Y003750
X011825Y012809
X007054Y006750
X010054Y012809
X011054Y008250
X006554Y015250
X015054Y003750
X014054Y006750
X013054Y003750
X002054Y003750
X015054Y008250
X013282Y010191
X009054Y006750
X006054Y003750
X011054Y003750
X008054Y006750
X004054Y003750
X015054Y013750
X005054Y003750
X008054Y003750
X013282Y012750
X014054Y003750
X003054Y003750
T104
X007554Y008750
T105
X020066Y014750
X019060Y015750
X017047Y015750
X017047Y014750
X019060Y014750
X018054Y015750
X018054Y014750
X020066Y015750
T106
X012054Y015250
X010054Y015250
X011054Y015250
T107
X001554Y015250
X001554Y013282
T00
M30
