G04 MADE WITH FRITZING*
G04 WWW.FRITZING.ORG*
G04 DOUBLE SIDED*
G04 HOLES PLATED*
G04 CONTOUR ON CENTER OF CONTOUR VECTOR*
%ASAXBY*%
%FSLAX23Y23*%
%MOIN*%
%OFA0B0*%
%SFA1.0B1.0*%
%ADD10C,0.084472*%
%ADD11C,0.085000*%
%ADD12C,0.080925*%
%ADD13C,0.080866*%
%ADD14C,0.080000*%
%ADD15C,0.092000*%
%ADD16C,0.088000*%
%ADD17C,0.093307*%
%ADD18C,0.135984*%
%ADD19R,0.084472X0.084108*%
%ADD20R,0.085000X0.085000*%
%ADD21R,0.092000X0.092000*%
%ADD22R,0.093307X0.093307*%
%LNMASK1*%
G90*
G70*
G54D10*
X2007Y1475D03*
X2007Y1575D03*
X1906Y1475D03*
X1906Y1575D03*
X1805Y1475D03*
X1805Y1575D03*
X1705Y1475D03*
X1705Y1575D03*
X2007Y1475D03*
X2007Y1575D03*
X1906Y1475D03*
X1906Y1575D03*
X1805Y1475D03*
X1805Y1575D03*
X1705Y1475D03*
X1705Y1575D03*
G54D11*
X1505Y675D03*
X1505Y375D03*
X1405Y675D03*
X1405Y375D03*
X1305Y675D03*
X1305Y375D03*
X1205Y675D03*
X1205Y375D03*
X1105Y675D03*
X1105Y375D03*
X1005Y675D03*
X1005Y375D03*
X905Y675D03*
X905Y375D03*
X805Y675D03*
X805Y375D03*
X705Y675D03*
X705Y375D03*
X605Y675D03*
X605Y375D03*
X505Y675D03*
X505Y375D03*
X405Y675D03*
X405Y375D03*
X305Y675D03*
X305Y375D03*
X205Y675D03*
X205Y375D03*
G54D12*
X562Y875D03*
G54D13*
X755Y875D03*
G54D14*
X755Y1125D03*
X755Y1025D03*
X555Y1125D03*
X555Y1025D03*
G54D11*
X1105Y825D03*
X1505Y825D03*
X1183Y1281D03*
X1183Y1025D03*
X1005Y1281D03*
X1005Y1025D03*
G54D14*
X805Y225D03*
X905Y225D03*
G54D15*
X1005Y1525D03*
X1105Y1525D03*
X1205Y1525D03*
G54D11*
X655Y1525D03*
X655Y1325D03*
X1405Y1575D03*
X1505Y1575D03*
X1505Y1375D03*
X1105Y1375D03*
X1328Y1019D03*
X1328Y1275D03*
X1505Y1019D03*
X1505Y1275D03*
G54D16*
X255Y175D03*
X355Y175D03*
X455Y175D03*
X1705Y175D03*
X1805Y175D03*
X1905Y175D03*
X2005Y175D03*
X1705Y675D03*
X1805Y675D03*
X1905Y675D03*
X2005Y675D03*
G54D17*
X155Y1525D03*
X155Y1328D03*
G54D18*
X1955Y1225D03*
X105Y1075D03*
X1505Y175D03*
X105Y175D03*
G54D19*
X2007Y1475D03*
X2007Y1475D03*
X1705Y1475D03*
G54D20*
X1505Y675D03*
G54D21*
X1005Y1525D03*
G54D20*
X655Y1525D03*
X1405Y1575D03*
G54D22*
X155Y1525D03*
G04 End of Mask1*
M02*